<?xml version="1.0" encoding="UTF-8"?>
<svg xmlns="http://www.w3.org/2000/svg" viewBox="0 0 1125.67 792">
  <defs>
    <style>
      .cls-1 {
        stroke: #ae935f;
        stroke-miterlimit: 10;
      }

      .cls-1, .cls-2 {
        fill: #006551;
      }

      .cls-3 {
        fill: #e4e2e0;
      }

      .cls-4 {
        fill-rule: evenodd;
      }

      .cls-4, .cls-5 {
        fill: #ae935f;
      }

      .cls-6 {
        fill: #e0cfaf;
      }

      .cls-7 {
        fill: #fff;
      }

      .cls-8 {
        fill: #262766;
      }

      .cls-9 {
        fill: #bf2b37;
      }
    </style>
  </defs>
  <g id="Background">
    <rect class="cls-8" width="1125.67" height="792"/>
  </g>
  <g id="Layer_1" data-name="Layer 1">
    <ellipse class="cls-5" cx="292.44" cy="396.39" rx="218.38" ry="137.56"/>
    <ellipse class="cls-5" cx="293.62" cy="398.42" rx="181.58" ry="109.12"/>
    <ellipse class="cls-6" cx="98.51" cy="397.27" rx="13.63" ry="12.53"/>
    <ellipse class="cls-6" cx="485.29" cy="396.74" rx="13.63" ry="12.53"/>
    <ellipse class="cls-7" cx="292.49" cy="395.87" rx="153.58" ry="95.11"/>
    <path class="cls-6" d="M168.84,452.29s28.49-8.24,37.97-10.32,35.7-6.07,35.7-6.07l1.04-11.56,23.44-2.48v-4.5h19.5l8.69-8.69v89.53s-96.27-18.3-107.58-28.07c-11.32-9.78-18.77-17.83-18.77-17.83Z"/>
    <path class="cls-6" d="M197.93,439.97c.41-.33.96-.77,1.53-1.22v-4.51c.55,1.68,1.02,2.86.8,4.21.77-.13,1.06.83,1.85.43v-2.48c-.53-1.02-1.06-2.06-1.58-3.08-.25-.08-.65.13-.6-.59.72.57.81-.54,1.69-.31.09.1.32.39.56.67-.22.24-.52.4-.44.83.46.95,1.61.92,2.34,1.51,1.13.92,2.5,1.21,3.82,1.67.28-.87-.64-1.12-.9-1.71.22-.22.5-.4.39-.92-1.16-1.37-2.81-2.07-4.68-2.55h3.13c.15-.44.24-.71.42-1.22.36.49.62.86.95,1.32.16-.44.26-.72.36-.99.38-.28.95.16,1.27-.33-.82-.64-1.84-.72-3.3-.91.87-.24.93-.75,1.43-.76.6-.01.49-.42.37-.79-.38-.38-.97.12-1.3-.35.16-.38.49-.24.77-.27.37-.04.79.15,1.09-.23-.67-.86-1.43-.96-2.42-.47-.57.29-1.08.87-1.8.7-.31.52-.52,1.16-1.44.82.32-.61.73-.93,1.44-.82.12-1.37,1.25-2.16,1.85-3.23.14-.63-.14-1.07-.68-1.47h-2.44l-1.35,1.35c-1.11-1.02-2.4-1.75-3.97-2.59.14,1.08-.69,1.41-1.19,2.18.48.31.63.81.78,1.29.2.64,1.25.26,1.28,1.06.03.69-.65.27-.92.71.72.31.61,1.06.4,1.51-.37.83.91,1.16.33,2.06-1.43-1.39-2.71-2.9-4.38-3.77h-1.51c-.73.52-1.18.83-1.46,1.03v1.9c1.63-.64,2.94.75,4.48.3.39,1.21,1.48,1.41,1.97,1.84,1.25.35,1.37-1.1,2.31-.82.59.68-.16.92-.44,1.31-2.26.38-4.65-.47-6.84.67-.69,1.81-1.75,3.49-1.91,5.59.57-.99,1.51-.18,2.12-.58.28-.62.55-1.22.83-1.82,1.32-1.44,3.41-1.52,4.66-2.94.48.47.36.75.09,1.11-1.19,1.56-1.32,2.44-.81,4.35.1.36.12.76.12,1.14.01,1.98,0,3.96,0,5.97h.96v-5.78Z"/>
    <path class="cls-6" d="M397.6,445.33c.2-1.21-.35-2.35-.61-3.44-.32-1.32-.33-2.58-.33-3.86,0-1.24-.7-2.32-.53-3.6.17-1.28.11-2.55.44-3.85.3-1.18.06-2.49.06-3.75.66-.64,1.29-1.24,1.92-1.85-.15-1.21.31-2.49-.51-3.57.25-.48.49-.94.84-1.6.1.91.3,1.62.68,2.21-.23.25-.39.43-.56.61.9.47.16,1.46.66,2.12.19-.16.35-.3.5-.43.45.14.09.74.52.91.51-.07,1.07.18,1.64-.2.09-2.89-1.27-5.13-3.17-7.25.43-.29.35-1.06.35-1.54.03-.54.41-.97.81-1.43.32.07.74-.18,1.06.22-.6.7-1.33,1.1-1.87,1.21,1.24-.01,2.03-.01,2.82-.01.87,0,1.79-.19,2.58.06.74.24,1.3-.93,1.97-.1.43-.12-.09-.81.5-.84.34.24.51.72.99.79.11-.31.2-.58.32-.92h1.51c-.36-.43-.73-.88-1.23-1.47h-2.46c.86-.9,2.27-.52,3.01-1.77h-3.25c.25-.33.46-.61.73-.97,1.25.17,2.53-.12,4.14-.88-1.63-.14-2.89.21-3.87-.61-1.17.57-2.21,1.08-3.22,1.57-.47-.48-.32-.93-.19-1.4,1.38-1.23,2.68-2.53,2.13-4.87-.71.64-.72-.56-1.34-.44-.76.75-1.75.34-2.68.54-.21.92-.81,1.54-1.61,1.89-.76-.36-.09-1.13-.64-1.47h-1.19c-.32-.41-.75-.97-1.11-1.42-.82-.02-1.51.14-2.22-.6.19,1.31-.56,2.12-1.02,3.18.87.41.95,1.6,1.98,1.91,0,.86-.03,1.73,0,2.59.04.85-.73,1.52-.48,2.4.33-.01.49.15.47.47.29.06.64-.15.59-.21.46.71-.25.68,0,1.05.54.36,1.26-.2,1.77.34v.98c-.38.36-.78.74-1.21,1.16h-7.49c-.88.6-1.39,1.43-1.72,2.37-.31.9-.9,1.64-1.08,2.65-.15.84-1.14,1.53-.48,3,.58-1.25,1.53-.76,2.59-1.01.55-1.51,2.13-2.49,3.04-4.16h1.54c1.24-.59,1.58-1.74,2.64-1.92.46.38.2.81.28,1.17-.42.64-1.21.98-1.5,1.89.27.28.78.55.47,1.09-.27.1-.54.21-.81.31v2.03c.33.33.61.61.97.97-.26,1.51-.67,3.07-.57,4.7.1,1.65.02,3.32.02,4.98s.1,3.48-.03,5.21c-.11,1.44.9,2.79.44,4.3.66-.2,1.33.42,1.99.59ZM403.27,411.72c-.32.34-.64.34-.96,0,.32-.34.64-.34.96,0ZM402.31,414.33c0-.08,0-.17-.01-.28.04.03.09.05.14.08.14-.19.28-.25.43-.27.11,0,.24.12.36.18-.16.43-.49.26-.79.08-.04.06-.08.12-.12.2,0,0,0,0,0,0,0,.28-.11.38-.28.42-.04,0-.15-.1-.14-.14.05-.22.19-.32.42-.28Z"/>
    <path class="cls-6" d="M183.71,448.28c-.64-2.42-1.6-4.72-2.08-7.22-.5-2.58-.92-5.16-1.21-7.76-.19-1.64-.01-3.31-.04-4.97-.03-1.61.92-3.12.43-4.72.5-.35,1.09-.39,1.42-.95.04-.84.09-1.74.14-2.69.88.45.83,1.2.97,1.87,1.03-.08,1.39,1.65,2.68.88v-2.91c-.76-1.07-.99-2.37-1.83-3.34,0,0,.11-.1.2-.18h1.06c.13.32.17.7.37.84,1.08.76,2.1,1.61,3.44,1.98,1.22.34,2.38.88,3.25,1.89.25.29.5.62,1.12.34-.31-.52-.57-1.08-.95-1.56-.41-.51-.92-.94-1.36-1.38.31-.42.99-.02.93-.7-2.08-2.62-4.57-3.64-7.84-3.06.5.34.88.59,1.56,1.04h-2.7c.18-.32.31-.56.45-.81-.2-.55-.73-1.01-.45-1.77.17-.16.41-.37.68-.61.51-.02,1.1-.2,1.52.07-.07.83-.87.68-1.31,1.16,1.67.43,3.37-.34,5.02.75-.02-.92.9-.31,1.2-.9-.13-.49.1-.7.65-.65.52.07,0,1,.7.94.79.1.32-.79.76-.95.37-.09.79.17,1.12-.17-.37-1.52-2.36-.05-2.68-1.44.19-.95,1.51-.6,1.73-1.72-.48,0-.95.06-1.39-.02-.42-.07-1.01.37-1.32-.55,1.53.36,2.86-.15,4.23-.74-1.06-.05-2.09-.13-3.08-.56-.46-.2-.98.16-1.48.37-.59.24-1.25,1.09-2.15.27.58-1.66,2.52-2.74,2.42-4.77-1.4-.46-2.69-.89-4.09-.57-.14.82-.83,1.25-1.5,1.98-.42-.55-.83-1.08-1.24-1.62l-.51.51c-.28-.51-.42-1.39-.93-1.34-.78.07-1.23-.64-1.92-.56-.54.74-.57,1.85-1.7,2.15,1.01.56.96,2.16,2.36,2.31.2,1-.21,2.08.39,3.04-.25.18-.64,0-.81.35,0,.54,0,1.09.04,1.68.4.03.84.03,1.37.03q-.79.44-1.37-.03c-1.53-1.34-3.27-2.35-4.45-3.74-1.72-.4-2.9.45-4.12,1.17-.08.8.24,1.67-.46,2.44,1.04.16,2.01.28,2.85-.41,1.02.55,1.95,1.23,3.04.97.99.92,1.72,1.93,2.93,2.31.21-.1.33-.61.65-.13-.01.23.06.48-.17.61-2.3.36-4.68-.51-6.86.68-.79,2.15-2.38,4.01-2.4,6.45,1.12.18,1.85-.51,2.9-.59-.43-2.07,2.26-1.94,2.49-3.67,1.68.31,2.71-.73,3.75-1.79.1-.11.41-.01.6-.01.28.39.13.78.13,1.64-.23.23-.69.69-1.15,1.15.16.16.49.43.08.86-.25.16-.63,0-.8.34v1.87c.55.57.88,1.22.99,2.1-.37.59-.54,1.28-.56,2.07-.04,1.76.34,3.53-.39,5.28-.24.57-.32,1.48.11,2.04.4.53.25,1.03.32,1.54.19,1.45-.23,2.91.27,4.39.45,1.34.16,2.85.67,4.23.74,2,.7,4.23,1.86,6.03.56-.18,1.07-.43,1.63-.59-.06-.14-.11-.29-.16-.47ZM186.11,412.43v-.85c.24-.05.45-.09.7-.13.37.63.36,1.02-.7.98ZM186.07,410.07c0-.33.15-.49.48-.48-.04-.23.07-.37.28-.42.04,0,.15.1.14.14-.05.22-.19.32-.42.28,0,.33-.15.49-.48.48.04.23-.07.37-.28.42-.04,0-.15-.1-.14-.14.05-.22.19-.32.42-.28Z"/>
    <path class="cls-6" d="M396.15,413.86c-.1.77.12,1.48.57,2.07-.6.52-1.18.2-1.69.3-1.38-1.16-2.85-2.13-4.6-2.67-.77-.24-1.61-.42-2.21,0-.86.59-1.63.08-2.45.36.05-.7.44-.47.74-.59.35-.78,0-1.65.24-2.6.94-1.2,2.74-.1,3.74-1.25,1.46,1.38,3.14,2.26,4.3,3.74.25.32.59.1.88.17-.01.33.15.49.47.47Z"/>
    <path class="cls-6" d="M401.36,418.38c.16-.17.31-.34.45-.5-.28-.57-.91-.65-1.6-1.05,2.26-.33,4.21-.19,5.95.85,1.08.65,2.44,1.14,2.7,2.67-.35.41-.95-.13-1.28.32,1.15.96,2.04,2.12,2.72,3.46-.4.34-.69.13-.98-.19-1.64-1.75-3.84-2.43-6.01-3.17-.05-.21-.1-.43-.16-.69-.38-.04-.75-.07-1.13-.11,0-.63-.76-.94-.66-1.6Z"/>
    <path class="cls-6" d="M418.69,450.08s-25.63-6.03-35.12-8.1-35.7-6.07-35.7-6.07l-1.04-11.56-23.44-2.48v-4.5s-19.5,0-19.5,0l-8.69-8.69v89.53c.47.97,43.61-8.6,74.87-19.37,10.16-3.5,26.94-12.83,30-14.89,13.89-9.36,19.65-13.97,18.63-13.87Z"/>
    <path class="cls-5" d="M258.17,432.39c3.89-.56,13.56-1.44,13.56-1.44v-4.11l17.11.11,6.11-6.33v-3.22l-7.56,7h-18.11v4.44s-7.33.22-10,.56c-2.67.33-13.22,1.89-13.22,1.89l-.89,11.44s-2.22.33-4.67.44c-2.44.11-27.44,4.56-30.89,5.33s-35.44,8.67-35.44,8.67c0,0-4.78,1.44-2.78,5,2,3.56,21.56,14.22,47.56,24.22s76,7.79,76,7.79v-21.94s-.85,0-3.48.19-3.59.22-3.59.22l.15,19.07s-1.37-.07-3.15-.22-3-.22-3-.22v-18.44s-5.15.11-8.22.19c-3.07.07-8.12.43-8.12.43l-.11,16.56s-1.58-.03-2.81-.22-3.07-.57-3.07-.57l-.15-15.11s-13.78.59-20.25,1.33c-6.47.74-23.16,3.7-23.16,3.7l-9.78-4.3s29.93-4.89,45.33-6.37c15.41-1.48,43.41-1.93,43.41-1.93v-12.15s-10.22-.3-18.67.3-25,2.37-25,2.37l3,4.11-3.67.56-2.44-3.56.44-24.67s5.67-.56,9.56-1.11ZM244.21,458.46s-17.78,1.85-26.81,3.19c-9.04,1.33-26.52,6.22-26.52,6.22l-14-8.89s26.44-6.67,35.11-8.37c8.67-1.7,33.11-5.48,33.11-5.48l-.89,13.33Z"/>
    <path class="cls-5" d="M341.28,433.5l.44,24.67-2.44,3.56-3.67-.56,3-4.11s-16.56-1.78-25-2.37-18.67-.3-18.67-.3v12.15s28,.44,43.41,1.93c15.41,1.48,45.33,6.37,45.33,6.37l-9.78,4.3s-16.69-2.96-23.16-3.7c-6.47-.74-20.25-1.33-20.25-1.33l-.15,15.11s-1.85.38-3.07.57-2.81.22-2.81.22l-.11-16.56s-5.05-.35-8.12-.43c-3.07-.07-8.22-.19-8.22-.19v18.44s-1.22.07-3,.22-3.15.22-3.15.22l.15-19.07s-.96-.04-3.59-.22-3.48-.19-3.48-.19v21.94s50,2.21,76-7.79c26-10,45.56-20.67,47.56-24.22,2-3.56-2.78-5-2.78-5,0,0-32-7.89-35.44-8.67s-28.44-5.22-30.89-5.33c-2.44-.11-4.67-.44-4.67-.44l-.89-11.44s-10.56-1.56-13.22-1.89c-2.67-.33-10-.56-10-.56v-4.44s-18.11,0-18.11,0l-7.56-7v3.22s6.11,6.33,6.11,6.33l17.11-.11v4.11s9.67.89,13.56,1.44c3.89.56,9.56,1.11,9.56,1.11ZM344.8,445.13s24.44,3.78,33.11,5.48c8.67,1.7,35.11,8.37,35.11,8.37l-14,8.89s-17.48-4.89-26.52-6.22c-9.04-1.33-26.81-3.19-26.81-3.19l-.89-13.33Z"/>
    <path class="cls-4" d="M203.51,347.06s-1-.35-.78,2.83,1,2.95,1.89,3.4,18.11,5.19,35.22,4.15,17.33-2.26,21.33-1.7,8.78,2.05,9.17,3.14-.83,4.86,0,6.64,3.28,4.22,4.94,4.56,2.89,2.67,3.22,2.56,2.89-.44,2.44-5.56-2.37-5.21-2.23-5.46,5.67,4.07,8.17,4.43,5.56,1.11,8.81-1.64,3.03-3.75,3.03-3.75c0,0-2.33-.94-3.31-1.75s-3.42-2.08-5.22-2.19-5.44,1.03-5.44,1.03c0,0,1.75-1.42,2.17-2.56s.39-2.69.39-2.69c0,0-3.47-1.67-6.92-1.71s-6.44,2.1-7,2.63-1.19,1.75-3.06,1.19-2.89-1.08-2.89-1.08c0,0,9.17-2.75,13.92-5.03s10.92-5.28,10.92-5.28c0,0-1.11,2.64-.89,4.75s2.42,3.72,2.42,3.72c0,0,1.56-3.72,2.5-4.42s2.31-1.94,5.11-2.44,3.39-3,3.39-3c0,0,3.06,1.06,7.06.94s7.53-4.36,10.11-6,5.47-3.5,5.97-3.33,1.89,2.36,2.59,2.47,5.08-1.3,5.97-2.48,2.2-3.93.42-6.77-2.95-3.67-2.79-3.97,1.38-2.81.52-4.97-3.25-5.14-7.08-7.56-5.53-3.28-5.86-3.89-1.81-3.31-2.44-3.97-1.33-.92-1.33-.92c0,0-1.36,3.67-2.33,4.83s-4.39,4.49-9.89,5.68-6.11,6.44-6.06,6.74-.67,1.56-1.33,2.25-1.92,2.56-1.94,3.69-.11,4.22-.11,4.22c0,0-2.36-.53-3.47.25s-5.08,4.92-5.92,5.36-3.33,1.28-3.67,1.28-.81-.19-1.14-.11-.39,2.63.33,2.98,4.97,1.32,5.31,1.21-.64,1.11-1.39,1.33-10.81,5.58-19.53,7.72-19.33,4.42-22.61,4.06,6.97-4.06,7.78-4.06,6.61,1.17,8.44.75,6.31-2.42,7.39-4.25,1.39-4.08,1.19-4.31-3.64-.14-4.47-.14-5.25.22-4.69-.22,3.28-1.72,3.61-2.17,0-1.06.56-1.33,3.3.31,4.77-2.47,3.54-6.28,3.38-7.22.59-2.97.76-3.44.75-1.69-.22-2.42-1.36-.25-1.61-.42-.44-1.47-1.11-1.58-3.69.19-3.94-.11-.78-1.5-1.53-1.5-2.19,1.5-2.39,2.25-1.31.5-1.56.94-3.78,6.36-4.06,7.44-.31,3.33-.06,4.06,1.03,1.39.94,2.06.17,2.44-.44,3.28-2.31,2.61-2.75,2.89-.58-.92-.33-1.44,1.08-2.31.69-3.75-1.83-4.23-2.69-4.74-3.17-1.37-3.81-1.34-.97-.19-.67.17-.19,3.75-.69,4.86-1.06,4.11-.86,5.19,2.72,4.42,2.81,4.89-1.61,1.97-1.92,2.03-7.08,4.5-12.53,4.97-11.97.31-18.11-1.42-12.56-3.25-12.56-3.25Z"/>
    <path class="cls-2" d="M293.05,530.76c-36.5-.16-72.08-5.62-106.52-17.78-23.53-8.31-45.48-19.6-64.89-35.46-16.05-13.11-29.2-28.52-37.31-47.84-4.99-11.88-7.45-24.3-6.85-37.17.95-20.62,8.69-38.74,21.26-54.89,17.25-22.17,39.77-37.5,64.86-49.38,23.71-11.22,48.68-18.44,74.53-22.55,10.61-1.69,21.35-2.78,32.07-3.54,10.01-.72,20.08-1.11,30.11-.84,44.8,1.19,87.92,9.83,128.24,30.13,19.04,9.58,36.37,21.61,50.88,37.37,13.89,15.08,23.93,32.23,27.48,52.74,3.58,20.66-.44,39.98-10.47,58.15-11.27,20.43-27.83,35.83-47.05,48.57-24.98,16.56-52.52,27.04-81.54,33.88-14.8,3.49-28.96,6.43-44.11,7.66-11.82,1-21.33,1.08-30.68.97ZM288.93,291.23c-12.6-.13-28.92,1.25-45.11,3.99-24.01,4.06-47.1,10.99-68.75,22.32-18.02,9.44-34.22,21.18-46.1,38.02-13.86,19.64-17.84,40.88-9.18,63.75,5.52,14.58,15.23,26.18,27,36.16,16.11,13.66,34.56,23.16,54.36,30.12,34.03,11.96,69.15,16.27,105.1,14.67,14.32-.63,28.5-2.22,42.56-4.97,24.55-4.81,48.03-12.64,69.67-25.42,15.39-9.09,29.12-20.13,39.24-35.11,11.68-17.3,15.88-36.06,10.12-56.46-4.58-16.25-14.45-29.13-26.88-40.16-16.43-14.58-35.56-24.5-56.11-31.82-29.77-10.61-60.55-15.14-95.91-15.1ZM103.41,405.09c-6.12-.71-12.58.09-17.07-6.19.08,4.02,2.49,7.44,5.97,8.72,4.13,1.52,7.78.2,11.1-2.53ZM480.85,404.81c3.77,3.45,8.99,4.32,12.43,2.41,3.37-1.87,5.38-5.02,4.79-7.9-4.3,5.89-10.73,5.02-17.22,5.49ZM97.6,402.79c2.99,1.94,7.33,1.17,9.15-1.32,1.79-2.47.91-6.23-2.31-8.61,1.55,5.96-1.87,8.48-6.84,9.94ZM493.53,400.94c3.87-1.47,5.5-4.59,4.53-7.84-.82-2.76-3.3-4.18-6.71-3.5,2.81,3.39,4.55,6.98,2.18,11.35ZM480.43,392.52c-3.52,3.29-4.18,6.78-2.28,9.12,1.94,2.39,6.15,3.06,8.98,1.1-4.99-1.39-8.24-3.97-6.7-10.22ZM93.6,389.27c-4.52.02-6.73,1.64-7.08,4.6-.39,3.32,1.39,6.17,4.96,7.09-2.79-4.47-.74-8.01,2.12-11.69ZM484.97,393.53c-2.09,2.56-2.35,4.87-.88,6.65,1.39,1.68,4.43,2.1,6.75.93q-4.21-2.94-5.86-7.58ZM93.19,400.8c3.47,1.53,6.46.94,7.73-.98,1.25-1.89.77-4.36-1.43-6.25-.39,3.59-1.65,6.49-6.3,7.23ZM490.83,391.32c-1.74-2.2-4.46-2.8-6.74-1.67-1.87.93-2.64,3.04-1.97,5.39,3.86-4.39,3.17-3.75,8.71-3.72ZM93.66,391.81c4.27-1.52,7.14-.09,9.15,4.18.34-4.11-.58-5.93-2.75-6.63-2.38-.77-4.73-.04-6.4,2.45ZM478.37,392.26c2.43-1.45,4.79-2.86,7.19-4.29-3.9-1.37-7.01.45-7.19,4.29ZM106.3,392.19c-.08-3.85-3.53-5.76-7.03-4.14,2.26,1.33,4.54,2.68,7.03,4.14ZM97.25,397.67c-1.64-.98-3.18-1.89-4.83-2.88-.76,1.51-.99,3.02.58,3.99,1.56.96,3.02.36,4.25-1.11ZM487.35,397.73c1.56,1.38,3.15,2.17,4.5.94.79-.72.74-2.37,1.07-3.6-.23-.06-.45-.12-.68-.18-1.55.9-3.1,1.8-4.89,2.84ZM96.05,391.84c-.83,1.02-1.71,1.81-1.6,1.99.55.9,1.37,1.64,2.09,2.44.58-.66,1.7-1.4,1.61-1.95-.12-.78-1.14-1.42-2.1-2.48ZM493.64,388.19c-1.74-2.79-4.84-3.09-7.47-.88,2.44.29,4.83.57,7.47.88ZM488.84,391.93c-1.04.95-2.3,1.61-2.27,2.18.05.75,1.12,1.44,1.76,2.15.67-.78,1.47-1.49,1.92-2.38.13-.26-.71-1.02-1.41-1.95ZM91.2,388.2c2.53-.32,5-.62,7.94-.99-4.17-2.06-6.53-1.69-7.94.99Z"/>
    <path class="cls-9" d="M467.31,394.49c-.22,16.93-5.71,30.56-14.95,42.84-10.3,13.7-23.61,23.82-38.35,32.19-20.9,11.87-43.4,19.42-66.97,23.59-11.83,2.09-23.82,3.5-35.8,4.36-11.03.78-22.17.97-33.21.43-30.46-1.49-60.07-7.25-88.23-19.37-18.86-8.12-36.22-18.57-50.33-33.76-9.62-10.36-16.79-22.14-19.73-36.18-3.57-17.01-.05-32.72,8.91-47.34,9.47-15.46,22.92-26.82,38.18-36.16,21.87-13.39,45.76-21.41,70.79-26.32,14.2-2.78,28.53-4.29,43.01-4.96,17.48-.8,34.83.14,52.14,2.47,26.08,3.5,51.13,10.46,74.64,22.42,14.36,7.3,27.55,16.28,38.59,28.16,10.5,11.32,18.06,24.19,20.49,39.67.49,3.08.65,6.22.82,7.96ZM437.94,359.73c-.78-1.15-1.66-2.52-2.56-3.76-7.65-10.44-17-19.11-27.73-26.25-30.3-20.16-64.27-28.7-100.08-31.01-8.4-.54-16.86-.4-25.28-.07-8.09.32-16.2.94-24.22,2.04-19.91,2.74-39.18,7.96-57.5,16.36-18.2,8.35-34.59,19.24-47.27,35.01-11.2,13.93-17.48,29.61-16.36,47.85.72,11.7,4.53,22.32,10.78,32.08,10.71,16.71,25.78,28.55,43.02,37.82,28,15.05,58.24,21.84,89.71,23.42,19.95,1,39.82-.25,59.47-4.21,21.84-4.4,42.65-11.53,61.77-23.12,15.27-9.26,28.42-20.77,37.67-36.3,6.18-10.38,9.56-21.66,9.56-33.69,0-11.78-3.28-22.83-9.15-33.1-.62-1.09-1.14-1.85-1.83-3.08Z"/>
    <path class="cls-1" d="M204.32,399.46c-3.15,1.55-6.02,3.43-9.17,4.38-5.44,1.65-9.75-2.9-7.85-8.28.94-2.65,2.88-4.95,4.43-7.37.65-1.01,1.5-1.89,2.13-2.92.71-1.17,1.58-2.56-.12-3.53-1.5-.85-2.99-.92-4.14.91-2.1,3.33-4.11,6.76-6.57,9.81-6.88,8.49-15.84,13.01-26.84,12.75-2.41-.06-4.94-1.23-7.12-2.42-1.62-.88-2.11-2.78-1.26-4.68.73-1.65,2.03-2.47,3.82-2.41,2.18.07,3.31,1.78,2.61,3.86-1.05,3.09.33,4.76,3.7,4.4,3.71-.4,7.27-1.6,9.61-4.51,4.29-5.34,8.18-10.99,11.81-16.73-2.07.98-4.06,2.23-6.23,2.88-4.59,1.39-8.49-1.67-8.37-6.48.14-5.72,3.29-9.95,7.63-13.09,9.86-7.11,20.85-10.1,33.01-7.88.32.06.64.11.94.2,4.28,1.32,8.06,3.35,8.67,8.3.58,4.66-1.83,8.23-5.72,10.34-3.75,2.04-7.91,3.32-11.89,4.94-.09-.2,2.31,7.32-.07,11.23-.83,1.36-1.47,2.87-1.98,4.38-.82,2.41.27,3.72,2.74,3.09,2.88-.74,5.39-2.34,6.51-5.22,2.76-7.11,7.68-12.21,14.37-15.59,2.11-1.07,4.52-1.69,6.87-2.11,5.45-.99,8.71,2.47,7.66,7.94-1.56,8.14-12.01,17.77-20.24,18.66-4.41.48-6.83-.9-8.91-4.84ZM206.52,362.34c.08-.22.16-.44.23-.65-1.64-.75-3.22-1.75-4.94-2.19-5.7-1.47-11.2-.21-16.48,1.9-7.46,2.98-13.18,7.98-16.25,15.56-.86,2.12-1.72,4.69.42,6.53,2.06,1.77,4.39.62,6.26-.62,3.56-2.38,7.64-4.16,10.01-8.03.21-.34.52-.61.8-.9,5.54-5.77,11.53-10.78,19.96-11.59ZM212.16,401.41c.67.58,1.61.74,2.42.4,1.1-.45,1.98-.58,2.73-1.25,5.06-4.52,8.7-10.11,11.31-16.31.57-1.34.72-3.82-.08-4.58-1.42-1.36-3.11.24-4.37,1.31-4.98,4.22-8.67,9.46-11.64,15.22-.64,1.25-1.06,2.75-1.06,4.14,0,.48.29.74.68,1.07ZM190.99,379.3c6.49,1.83,14.07-2.08,17.05-8.05,1.36-2.73,1.35-5.87-.02-7.06-1.26-1.1-5.7-.5-7.32,1.57-3.35,4.25-6.34,8.79-9.71,13.54Z"/>
    <path class="cls-1" d="M316.84,384.21c-.77.39-1.37,1-2.16,1.35-2.69,1.2-5.3,2.79-8.12,3.48-6.82,1.68-11.35-3.31-9.43-10.09,1.07-3.77,3.34-6.83,6.3-9.23,10.46-8.5,22.42-11.94,35.79-9.86,2.17.34,4.37,1.22,6.28,2.32,7.61,4.39,7.72,13.14.16,17.6-2.8,1.65-5.99,2.63-8.8,3.83.52.58,1.27,1.5,2.1,2.34,5.74,5.84,4.5,14.36-2.79,18.16-5.17,2.7-10.7,3.13-16.07.87-2.12-.9-3.73-3.03-5.54-4.59-3.73,1.62-7.76,3.59-11.95,5.11-3.95,1.43-8.16,2.19-12.29.85-1.8-.58-3.62-1.78-4.82-3.2-.66-.78-.51-2.93.12-3.92.64-.99,2.3-1.71,3.57-1.81,2.04-.16,3.11,1.7,2.47,3.67-1.04,3.23.36,4.9,3.82,4.47,3.62-.45,7-1.69,9.32-4.55,3.33-4.1,6.34-8.45,9.47-12.7.95-1.29,1.82-2.63,2.72-3.96,6.06-10.07,13.73-17.81,26.52-18.03-1.25-3.33-4.23-5.05-8.61-5.28-11.99-.64-21.86,3.94-29.78,12.66-2.02,2.22-3.52,5.23-4.34,8.14-1.16,4.12,1.92,6.89,5.98,5.64,2.5-.77,4.84-2.09,7.2-3.26.88-.43,1.63-1.13,2.63-1.84.2.95.15,1.3.27,1.84ZM335.88,390c0-.48.05-.97,0-1.44-.33-2.57-1.8-4.11-4.45-4.71-3.14-.71-3.99-.23-5.77,2.37-2.35,3.44-4.83,6.78-7.37,10.08-1.78,2.31-1.5,5.34,1.15,6.63,1.56.76,3.59,1.21,5.28.95,5.91-.92,11.22-7.7,11.17-13.87ZM328.35,381.65c7.19,1.37,13.63-2.75,15.38-9.5.33-1.28-.05-2.73-.1-4.11-1.4.13-2.97-.11-4.16.47-5.52,2.67-7.99,7.96-11.12,13.14Z"/>
    <path class="cls-1" d="M279.96,389.04c-.17.42-.25.92-.53,1.25-3.96,4.66-8,9.25-13.4,12.33-2.56,1.46-5.27,2.36-8.28,1.79-3.79-.72-5.99-3.46-4.91-7.11.99-3.31,2.33-6.81,4.49-9.42,4.36-5.27,10.3-8.34,17.08-9.6,1.84-.34,3.69-.24,4.67,1.57,1.03,1.9.09,3.6-1.28,4.99-3.45,3.5-7.83,5.24-12.45,6.49-3.13.85-5.53,3.77-5.67,7.07-.09,2.23,1.7,3.86,3.78,2.88,2.99-1.42,5.86-3.24,8.48-5.28,2-1.56,3.51-3.73,5.29-5.59.67-.7,1.46-1.26,2.2-1.89.18.18.35.35.53.53ZM274.02,380.08c-3.43.59-8.75,6.14-9.06,9.3,3.91-.41,9.11-5.65,9.06-9.3Z"/>
    <path class="cls-1" d="M246.03,384.96c-2.45,2.38-4.81,4.75-7.27,7.03-3.6,3.33-7.26,6.59-10.92,9.85-.59.53-1.28,1.05-2.02,1.29-.48.16-1.13-.19-1.71-.31.24-.52.34-1.28.75-1.52,10.14-5.93,17.41-14.86,24.76-23.7.31-.37.52-.91.91-1.1.93-.45,2.12-1.27,2.86-.99,1.52.56.42,1.78.2,2.84-.52,2.5-.98,5.03-1.17,7.57-.4,5.41-1.37,10.58-5.6,14.45-2.9,2.66-6.38,4.21-10.32,3.85-1.47-.13-2.97-1.3-4.18-2.32-.38-.32-.07-1.8.3-2.56.23-.46,1.41-.95,1.77-.74.55.32.91,1.19,1.09,1.89.53,2.03,1.62,2.49,3.28,1.23.51-.38.95-.87,1.36-1.36,2.28-2.79,5.58-11.39,5.9-15.4Z"/>
    <path class="cls-1" d="M385.27,390.85c0,.34-.79,1.49-2.38,3.46-2.5,3.12-5.23,5.98-8.21,8.57-2.59,2.26-5.18,3.38-7.78,3.38-1.49,0-2.76-.36-3.82-1.08-1.25-.86-1.87-1.99-1.87-3.38,0-.86.1-1.61.29-2.23-4.03,4.32-7.9,6.48-11.59,6.48-3.89,0-5.83-2.02-5.83-6.05s2.64-8.4,7.92-12.82c5.14-4.27,9.82-6.41,14.04-6.41,3.17,0,4.75,1.44,4.75,4.32l2.45-3.6h8.86l-10.94,16.27c-1.44,2.16-2.16,3.65-2.16,4.46,0,1.06.5,1.58,1.51,1.58s2.11-.58,3.46-1.73c4.9-4.22,8.21-7.8,9.94-10.73.38-.62.7-.94.94-.94.29,0,.43.14.43.43ZM369.57,384.81c0-1.35-.6-2.02-1.79-2.02-2.25,0-5.38,2.43-9.39,7.3-4.02,4.86-6.02,8.52-6.02,10.98,0,1.54.72,2.31,2.15,2.31s3.32-1.25,5.81-3.76c1.96-1.97,3.49-3.85,4.59-5.63l1.86-3.04c.62-.96,1.22-1.93,1.79-2.89.67-1.2,1-2.29,1-3.25Z"/>
    <path class="cls-1" d="M416.67,361.6c0,.7-.5,1.8-1.5,3.3l-21.66,32.02c-1.6,2.35-2.41,4-2.41,4.95s.48,1.43,1.43,1.43c1.2,0,3.04-1.02,5.5-3.08,1.86-1.5,3.46-3,4.82-4.5.65-.75,2.08-2.57,4.29-5.48.25-.4.53-.6.83-.6.25,0,.38.15.38.45,0,1.05-2.4,3.98-7.2,8.77s-9.25,7.43-12.9,7.43c-1.6,0-2.96-.43-4.09-1.28s-1.69-2.05-1.69-3.6,1.03-3.85,3.07-6.9l20.78-30.83c.65-.95.97-1.6.97-1.95v-1.12h9.3c.05.2.07.53.07.98Z"/>
    <g>
      <path class="cls-6" d="M173.09,294.36l6.58-3.04c1.83-.85,3.5-.97,4.89-.44,1.18.46,2.16,1.42,2.8,2.82l.02.04c1.11,2.4.55,4.48-.96,6.03l5.97,3.67-3.7,1.71-5.28-3.32-2.49,1.15,2.19,4.75-3.17,1.46-6.86-14.84ZM182.8,298.62c1.54-.71,2.03-1.97,1.46-3.22l-.02-.04c-.65-1.4-1.93-1.68-3.47-.97l-3.15,1.46,1.97,4.26,3.21-1.48Z"/>
      <path class="cls-6" d="M191.15,295.16l-.02-.04c-1.56-4.38.52-9.16,5.13-10.8,4.61-1.64,9.18.73,10.74,5.11l.02.04c1.56,4.38-.52,9.16-5.13,10.8-4.61,1.64-9.18-.73-10.74-5.11ZM203.59,290.73v-.04c-.95-2.64-3.61-4.17-6.26-3.23-2.65.94-3.72,3.75-2.78,6.39l.02.04c.94,2.64,3.6,4.17,6.25,3.23,2.65-.94,3.72-3.75,2.78-6.39Z"/>
      <path class="cls-6" d="M210.7,294.47l1.32-3c1.7.8,3.34,1.15,5.09.67,1.38-.38,2.06-1.16,1.8-2.09v-.05c-.25-.88-.9-1.19-3.64-1.16-3.3.03-5.53-.31-6.39-3.44v-.05c-.79-2.86.92-5.36,4.05-6.21,2.23-.61,4.33-.4,6.23.46l-1.04,3.09c-1.62-.6-3.11-.82-4.4-.47-1.29.35-1.8,1.14-1.6,1.91v.05c.29,1.04,1.04,1.19,3.88,1.17,3.33-.01,5.4.66,6.14,3.41v.04c.86,3.13-.98,5.52-4.28,6.42-2.32.63-4.88.44-7.18-.75Z"/>
      <path class="cls-6" d="M222.83,276.84l11.72-2.44.65,3.13-8.32,1.73.68,3.25,7.32-1.52.65,3.13-7.32,1.52.7,3.36,8.43-1.75.65,3.13-11.83,2.46-3.33-16Z"/>
      <path class="cls-6" d="M245.47,272.61l7.31-.89c1.8-.22,3.28.12,4.29.94.81.65,1.28,1.52,1.41,2.63v.05c.23,1.83-.6,2.97-1.64,3.75,1.91.5,3.17,1.45,3.43,3.63v.05c.36,2.97-1.8,4.73-5.35,5.17l-7.49.91-1.97-16.23ZM252.84,278.37c1.53-.19,2.44-.81,2.29-2.02v-.05c-.13-1.07-1.02-1.57-2.48-1.39l-3.42.41.42,3.43,3.19-.39ZM254.55,284.8c1.53-.19,2.39-.85,2.24-2.06v-.05c-.14-1.09-1.01-1.67-2.78-1.45l-4.01.49.43,3.57,4.12-.5Z"/>
      <path class="cls-6" d="M267.87,270.22l3.21-.2,7.8,16.01-3.64.23-1.67-3.57-6.7.41-1.22,3.75-3.55.22,5.78-16.85ZM272.12,279.59l-2.43-5.16-1.78,5.42,4.21-.26Z"/>
      <path class="cls-6" d="M280.97,269.7l3.49-.03.12,13.07,7.91-.07.03,3.27-11.4.1-.15-16.34Z"/>
      <path class="cls-6" d="M295.58,269.67l3.49.12-.46,13.06,7.91.28-.12,3.27-11.4-.4.58-16.33Z"/>
      <path class="cls-6" d="M317.06,270.83l12.02,1.14-.31,3.25-8.55-.81-.33,3.46,7.54.72-.31,3.25-7.54-.72-.6,6.3-3.47-.33,1.54-16.27Z"/>
      <path class="cls-6" d="M330.65,280.44v-.05c.72-4.59,4.82-7.8,9.66-7.05,4.84.75,7.74,5,7.02,9.59v.05c-.72,4.59-4.82,7.8-9.66,7.05-4.84-.75-7.74-5-7.03-9.59ZM343.71,282.47v-.05c.44-2.77-1.18-5.38-3.96-5.81-2.78-.43-5.05,1.53-5.48,4.3v.05c-.44,2.77,1.18,5.38,3.96,5.81,2.78.43,5.06-1.53,5.48-4.3Z"/>
      <path class="cls-6" d="M352.31,275.65l7.09,1.51c1.97.42,3.38,1.32,4.18,2.58.67,1.07.87,2.43.55,3.94v.05c-.56,2.58-2.26,3.91-4.39,4.25l2.57,6.51-3.99-.85-2.23-5.82-2.68-.57-1.09,5.11-3.41-.73,3.41-15.98ZM357.53,284.88c1.66.35,2.81-.36,3.1-1.7v-.05c.33-1.51-.52-2.5-2.19-2.85l-3.39-.72-.98,4.59,3.46.74Z"/>
      <path class="cls-6" d="M369.06,279.3l3.63,1,2.18,7.77,5.86-5.55,3.63,1-4.35,15.75-3.34-.92,2.84-10.28-6.16,5.54-.09-.02-2.42-7.84-2.82,10.22-3.3-.91,4.35-15.75Z"/>
      <path class="cls-6" d="M393.93,286.59l3.04,1.06,1.02,17.78-3.45-1.2-.17-3.94-6.34-2.2-2.57,2.99-3.36-1.17,11.82-13.32ZM394.24,296.88l-.25-5.7-3.73,4.32,3.98,1.38Z"/>
      <path class="cls-6" d="M406.29,291.21l3.22,1.34-5.02,12.07,7.31,3.03-1.25,3.02-10.53-4.37,6.27-15.09Z"/>
    </g>
    <g>
      <path class="cls-5" d="M269.82,449.4l.05-.68c.15-1.38.46-2.49.93-3.33.47-.85,1.21-1.62,2.24-2.33l.07-.04,1.26-.79.26-.18.68-.46c.95-.69,1.42-1.44,1.42-2.26,0-.6-.11-1.08-.32-1.44-.22-.36-.59-.64-1.11-.84-.13-.04-.29-.08-.47-.11-.19-.03-.45-.04-.79-.04l-.38.07c-.84.21-1.39.66-1.65,1.36.19-.06.42-.09.7-.09.21.03.37.07.47.13.28.12.5.32.66.59.16.28.25.6.25.97,0,.23-.05.48-.14.75-.33.85-.93,1.27-1.8,1.27-.17,0-.36-.02-.56-.07-.48-.13-.86-.42-1.15-.88-.29-.45-.44-1-.44-1.64,0-.48.08-.95.25-1.4.35-1.02.99-1.82,1.93-2.38.94-.56,2.12-.84,3.54-.84,1.07,0,2,.21,2.78.62.69.37,1.27.9,1.74,1.6s.71,1.52.71,2.46c0,.69-.14,1.34-.43,1.97-.29.63-.69,1.13-1.22,1.49-.26.19-.54.36-.84.52-.3.15-.69.31-1.15.47l-.23.07-1.66.53-.59.2c-.86.34-1.48.65-1.84.95-.36.3-.66.73-.91,1.28l.44-.26c.51-.31.95-.53,1.3-.66s.73-.2,1.11-.2c.22,0,.48.02.79.07l.49.12.14.05.75.26.42.12h.4c.46,0,.82-.14,1.09-.42.27-.28.41-.63.41-1.07l.05-.57h1.71v.61c0,1.52-.29,2.69-.86,3.51-.57.82-1.39,1.23-2.47,1.23-.76,0-1.62-.21-2.59-.61l-.79-.35-.26-.11-.42-.15c-.32-.09-.59-.13-.82-.13-.59,0-1.01.29-1.26.86l-.09.24h-1.82Z"/>
      <path class="cls-5" d="M288.35,434.66c1.83,0,3.34.71,4.51,2.13s1.77,3.2,1.77,5.35-.59,4-1.76,5.54c-1.17,1.54-2.61,2.31-4.31,2.31-1.91,0-3.45-.71-4.6-2.13-1.16-1.42-1.73-3.22-1.73-5.4s.6-3.99,1.79-5.52c1.2-1.53,2.64-2.29,4.33-2.29ZM286.4,442.55c0,1.65.09,2.82.28,3.49.33,1.18,1,1.78,2.03,1.78s1.59-.94,1.78-2.81c.07-.66.11-1.61.11-2.85,0-1.67-.09-2.83-.26-3.49-.31-1.18-.96-1.78-1.94-1.78-.85,0-1.42.64-1.71,1.91-.19.8-.28,2.05-.28,3.75Z"/>
      <path class="cls-5" d="M295.64,449.4l.05-.68c.15-1.38.46-2.49.93-3.33.47-.85,1.21-1.62,2.24-2.33l.07-.04,1.26-.79.26-.18.68-.46c.95-.69,1.42-1.44,1.42-2.26,0-.6-.11-1.08-.32-1.44-.22-.36-.59-.64-1.11-.84-.13-.04-.29-.08-.47-.11-.19-.03-.45-.04-.79-.04l-.38.07c-.84.21-1.39.66-1.65,1.36.19-.06.42-.09.7-.09.21.03.37.07.47.13.28.12.5.32.66.59.16.28.25.6.25.97,0,.23-.05.48-.14.75-.33.85-.93,1.27-1.8,1.27-.17,0-.36-.02-.56-.07-.48-.13-.86-.42-1.15-.88-.29-.45-.44-1-.44-1.64,0-.48.08-.95.25-1.4.35-1.02.99-1.82,1.93-2.38.94-.56,2.12-.84,3.54-.84,1.07,0,2,.21,2.78.62.69.37,1.27.9,1.74,1.6s.71,1.52.71,2.46c0,.69-.14,1.34-.43,1.97-.29.63-.69,1.13-1.22,1.49-.26.19-.54.36-.84.52-.3.15-.69.31-1.15.47l-.23.07-1.66.53-.59.2c-.86.34-1.48.65-1.84.95-.36.3-.66.73-.91,1.28l.44-.26c.51-.31.95-.53,1.3-.66s.73-.2,1.11-.2c.22,0,.48.02.79.07l.49.12.14.05.75.26.42.12h.4c.46,0,.82-.14,1.09-.42.27-.28.41-.63.41-1.07l.05-.57h1.71v.61c0,1.52-.29,2.69-.86,3.51-.57.82-1.39,1.23-2.47,1.23-.76,0-1.62-.21-2.59-.61l-.79-.35-.26-.11-.42-.15c-.32-.09-.59-.13-.82-.13-.59,0-1.01.29-1.26.86l-.09.24h-1.82Z"/>
      <path class="cls-5" d="M308.22,445.03v-2.43l6.53-7.7h3.34v7.92h1.99v2.22h-1.99v1.34c.05.48.19.72.42.72h1.57v2.3h-7.96v-2.3h1.63c.29,0,.44-.34.44-1.02v-1.04h-5.97ZM314.2,442.82v-4.1s-3.5,4.08-3.5,4.08l3.5.02Z"/>
    </g>
    <g>
      <path class="cls-5" d="M196.62,463.47c-.25-.42-.37-.62-.62-1.04-.76.23-1.14.34-1.89.57.01.49.02.73.03,1.22-.4.13-.6.19-1,.32-.06-2.47-.09-3.71-.14-6.19.58-.18.88-.27,1.46-.44,1.35,2.08,2,3.13,3.28,5.24-.45.13-.68.2-1.13.33ZM194.01,459.19c.03,1.15.05,1.72.08,2.87.57-.18.85-.26,1.42-.43-.59-.98-.89-1.46-1.5-2.44Z"/>
      <path class="cls-5" d="M201.36,462.15c-.37-1.29-.56-1.94-.94-3.23-.15-.52-.23-.77-.38-1.29-.01.38-.02.57-.04.95-.04.85-.06,1.27-.1,2.12-.26.07-.39.11-.65.18-.43-.72-.65-1.08-1.09-1.8-.19-.32-.29-.49-.48-.81.13.51.2.77.32,1.28.33,1.32.49,1.98.8,3.29-.35.1-.52.15-.87.25-.52-2.32-.79-3.48-1.34-5.8.48-.14.72-.2,1.19-.34.38.6.57.89.94,1.49.19.34.29.51.48.85,0-.37,0-.56,0-.93.02-.73.04-1.09.06-1.82.49-.13.73-.19,1.22-.32.72,2.27,1.07,3.41,1.76,5.69-.36.09-.55.14-.91.24Z"/>
      <path class="cls-5" d="M203.24,461.67c-.56-2.31-.85-3.46-1.44-5.77,1.37-.34,2.06-.51,3.44-.82.09.37.13.55.22.92-.94.21-1.41.32-2.34.55.14.57.21.86.35,1.44.88-.21,1.32-.32,2.21-.52.08.36.12.54.21.9-.88.2-1.32.31-2.2.52.16.64.23.96.39,1.61.91-.22,1.37-.33,2.29-.54.08.37.12.55.21.92-1.34.31-2,.46-3.33.8Z"/>
      <path class="cls-5" d="M210.59,460c-.46-.69-.7-1.03-1.17-1.71-.11-.16-.25-.28-.4-.34-.15-.06-.32-.07-.5-.04-.08.02-.12.03-.2.04.21.96.31,1.44.51,2.41-.42.09-.63.14-1.05.23-.5-2.33-.76-3.49-1.29-5.81.67-.15,1.01-.22,1.68-.36.32-.07.61-.1.89-.1.27,0,.51.05.72.14.21.09.39.23.53.42.14.19.24.43.3.73.04.21.05.41.02.59-.03.18-.08.34-.17.48-.09.14-.2.27-.34.37s-.29.19-.47.26c.15,0,.29.06.43.16.14.11.3.28.46.5.52.71.78,1.06,1.29,1.78-.5.1-.75.15-1.24.25ZM209.49,455.95c-.06-.29-.19-.47-.4-.56-.21-.09-.49-.09-.85-.02-.19.04-.28.06-.47.1.15.66.22.98.36,1.64.17-.04.26-.06.44-.09.17-.04.31-.08.44-.15.13-.06.23-.14.31-.23.08-.09.14-.2.17-.31.03-.12.03-.24,0-.38Z"/>
      <path class="cls-5" d="M211.74,454.65c-.07-.36-.11-.54-.18-.9,1.47-.28,2.21-.41,3.69-.66.07.36.1.54.16.9-.51.09-.77.13-1.29.22.3,1.62.45,2.43.73,4.05.5-.09.75-.13,1.26-.21.06.36.09.55.15.91-1.44.24-2.15.37-3.58.64-.07-.36-.1-.55-.17-.91.5-.09.75-.14,1.25-.23-.29-1.62-.44-2.43-.75-4.04-.51.09-.77.14-1.28.24Z"/>
      <path class="cls-5" d="M221.29,457.96c-.24.14-.48.25-.71.34-.23.08-.48.15-.73.18-.41.06-.78.05-1.12-.03-.34-.08-.63-.22-.89-.43-.26-.21-.47-.49-.64-.84-.17-.35-.3-.76-.38-1.24-.08-.5-.1-.94-.04-1.35.06-.41.18-.76.37-1.06.19-.3.44-.55.75-.74.31-.19.68-.32,1.1-.38.14-.02.26-.04.38-.05.12-.01.24-.02.36-.02.12,0,.24,0,.36.02.12.01.25.03.38.05.07.44.1.66.17,1.1-.27-.09-.53-.14-.77-.16-.24-.02-.45-.01-.64.01-.28.04-.51.13-.69.26-.18.13-.32.29-.42.5-.1.2-.16.43-.17.69-.02.26,0,.54.04.84.05.32.13.6.23.84.1.24.23.44.38.59.15.15.34.26.55.33.21.06.45.07.72.04.1-.01.2-.04.31-.07.11-.04.22-.08.33-.12.11-.05.22-.1.33-.16.11-.06.21-.12.3-.18.06.41.09.62.14,1.04Z"/>
      <path class="cls-5" d="M225.61,457.67c-.18-.45-.27-.68-.46-1.13-.81.09-1.22.14-2.03.24-.07.48-.11.72-.18,1.21-.43.05-.65.08-1.08.14.37-2.45.55-3.67.93-6.12.63-.08.94-.11,1.57-.18,1.02,2.28,1.51,3.43,2.45,5.73-.48.05-.73.07-1.21.13ZM223.69,453c-.17,1.14-.25,1.7-.41,2.84.61-.07.92-.11,1.53-.18-.44-1.07-.66-1.6-1.12-2.66Z"/>
      <path class="cls-5" d="M227.36,453.52c.18-.01.35-.04.51-.08.15-.04.29-.1.4-.17.11-.07.2-.15.25-.25s.08-.21.07-.34c0-.09-.03-.16-.06-.22-.03-.06-.07-.11-.12-.16-.05-.05-.09-.09-.14-.13-.05-.04-.1-.09-.14-.14-.05-.05-.08-.11-.12-.17-.03-.07-.06-.15-.07-.24-.01-.09,0-.19.02-.28.02-.09.06-.18.12-.25.06-.08.13-.14.22-.19.09-.05.19-.08.31-.09.15-.01.29.01.42.07.13.06.24.14.33.25.1.11.17.23.23.38.06.15.1.3.11.46.03.28,0,.55-.08.81s-.21.49-.4.69c-.19.2-.43.37-.73.51-.3.13-.65.22-1.06.26-.03-.29-.05-.43-.08-.72Z"/>
      <path class="cls-5" d="M236.36,455.04c.02.33-.02.61-.13.86-.11.25-.26.45-.47.62-.21.17-.45.3-.74.39-.29.09-.61.15-.96.17-.31.02-.61.02-.9,0-.29-.02-.58-.06-.87-.12-.03-.44-.05-.66-.09-1.1.14.04.29.07.44.11.15.03.31.06.46.08.15.02.31.04.46.05.15,0,.3,0,.44,0,.21-.01.39-.04.54-.09.15-.04.26-.1.35-.17.09-.07.15-.15.19-.24.04-.09.05-.19.04-.29,0-.15-.06-.27-.15-.36-.09-.09-.21-.18-.35-.24-.14-.07-.3-.13-.48-.18-.18-.05-.36-.11-.55-.16-.19-.06-.37-.13-.55-.2-.18-.08-.35-.18-.49-.3-.15-.12-.27-.27-.37-.44-.1-.17-.16-.39-.18-.64-.02-.23,0-.46.07-.67.07-.21.19-.41.36-.57.17-.17.4-.31.68-.42.28-.11.63-.18,1.04-.2.12,0,.25,0,.38,0,.13,0,.26.01.39.02.13,0,.26.02.38.04.12.02.23.04.33.05.03.41.04.61.07,1.02-.1-.03-.21-.06-.33-.08-.12-.02-.24-.05-.37-.06-.13-.02-.25-.03-.38-.03-.13,0-.25,0-.36,0-.2.01-.37.04-.51.08-.14.04-.25.09-.33.15-.08.06-.14.13-.18.22-.03.08-.05.18-.04.28.01.12.06.23.15.31.09.08.21.16.35.22.14.06.31.12.49.17.18.05.37.11.56.17.19.06.38.13.56.22.18.08.35.19.49.31.15.12.27.27.36.45.09.17.15.38.16.62Z"/>
    </g>
    <g>
      <path class="cls-5" d="M350.49,450.55c-.05.64-.07.95-.11,1.59.9.04,1.35.07,2.24.12-.03.35-.04.53-.07.89-.89-.05-1.34-.08-2.23-.12-.06.94-.1,1.41-.16,2.35-.45-.02-.67-.03-1.12-.05.13-2.3.2-3.45.36-5.75,1.43.06,2.14.09,3.56.18-.03.37-.05.55-.08.91-.96-.06-1.43-.08-2.39-.13Z"/>
      <path class="cls-5" d="M356.75,455.81c-.25-.76-.38-1.14-.64-1.91-.06-.18-.16-.32-.29-.42-.13-.1-.29-.16-.48-.17-.08,0-.13,0-.21-.02-.09.95-.13,1.42-.22,2.37-.44-.03-.66-.05-1.09-.08.19-2.29.29-3.44.51-5.73.7.05,1.05.07,1.75.13.33.03.63.08.89.15.26.08.48.19.66.33.17.14.3.32.38.53.08.21.1.46.07.75-.02.21-.08.39-.16.55-.08.16-.19.29-.31.4-.13.11-.27.19-.44.25-.16.06-.34.1-.53.11.14.04.26.13.37.27.11.14.21.34.3.59.29.8.44,1.2.73,2-.51-.05-.77-.07-1.28-.11ZM356.89,451.75c.03-.28-.04-.49-.21-.63-.17-.14-.44-.22-.81-.25-.2-.02-.3-.02-.49-.04-.06.65-.1.97-.16,1.62.18.01.27.02.45.03.17.01.33,0,.47-.02.14-.02.27-.07.38-.13.11-.06.19-.14.26-.24.06-.1.1-.22.12-.35Z"/>
      <path class="cls-5" d="M361.99,456.33c-.07-.46-.1-.7-.17-1.16-.81-.09-1.21-.14-2.02-.22-.18.44-.28.66-.46,1.09-.43-.04-.65-.06-1.08-.1.93-2.22,1.41-3.33,2.41-5.54.63.07.94.1,1.56.17.39,2.36.58,3.54.95,5.9-.48-.06-.72-.09-1.19-.14ZM361.27,451.53c-.45,1.03-.67,1.54-1.11,2.57.61.06.91.1,1.52.16-.16-1.1-.25-1.64-.42-2.74Z"/>
      <path class="cls-5" d="M366.97,452.08c-.31,1.92-.46,2.87-.75,4.79-.44-.06-.66-.09-1.1-.15.28-1.92.43-2.88.73-4.8-.64-.09-.96-.13-1.61-.21.05-.36.08-.54.13-.89,1.75.22,2.62.34,4.36.6-.06.36-.09.53-.15.89-.64-.1-.96-.14-1.6-.23Z"/>
      <path class="cls-5" d="M368.91,457.28c.38-2.27.58-3.4.99-5.67,1.41.22,2.11.34,3.51.59-.07.36-.11.54-.18.9-.95-.17-1.43-.25-2.38-.41-.1.56-.16.84-.26,1.41.9.15,1.35.23,2.25.39-.07.35-.1.53-.17.88-.89-.16-1.34-.24-2.24-.38-.11.63-.17.94-.28,1.57.93.15,1.4.23,2.33.4-.07.36-.1.54-.17.9-1.36-.24-2.04-.36-3.4-.57Z"/>
      <path class="cls-5" d="M376.36,458.62c-.16-.79-.24-1.18-.41-1.97-.04-.19-.12-.34-.23-.45-.12-.11-.27-.19-.45-.22-.08-.02-.12-.02-.2-.04-.19.93-.29,1.4-.47,2.33-.42-.08-.63-.12-1.05-.2.44-2.26.67-3.39,1.13-5.64.68.13,1.01.19,1.69.32.32.06.6.15.85.25.25.11.45.24.6.4.15.16.26.35.31.57.05.22.05.47-.02.76-.05.21-.12.38-.21.53-.1.15-.21.27-.35.36-.14.09-.29.16-.46.2-.17.04-.34.06-.53.05.13.06.24.16.33.31.09.15.16.36.23.62.2.83.29,1.24.49,2.07-.49-.1-.74-.15-1.23-.26ZM376.95,454.6c.06-.28.01-.49-.14-.65-.15-.16-.41-.27-.77-.34-.19-.04-.29-.06-.48-.09-.13.64-.2.95-.33,1.59.17.03.26.05.44.08.17.03.32.04.46.04.14,0,.27-.04.38-.09s.2-.12.28-.21c.07-.09.13-.2.15-.33Z"/>
      <path class="cls-5" d="M380.94,459.62c-.27-1.47-.41-2.21-.7-3.68-.06-.32-.08-.47-.14-.79-.22.93-.33,1.39-.54,2.32-.16.7-.24,1.04-.4,1.74-.38-.08-.57-.13-.95-.21.5-2.24.75-3.37,1.28-5.61.53.11.79.17,1.32.29.3,1.48.45,2.23.73,3.71.04.29.07.43.11.72.24-.99.36-1.48.61-2.46.15-.62.23-.92.39-1.54.39.09.59.14.98.23-.58,2.23-.86,3.34-1.41,5.57-.51-.12-.76-.18-1.27-.3Z"/>
      <path class="cls-5" d="M384.41,455.45c.09-.34.14-.51.23-.86,1.43.35,2.15.54,3.57.92-.1.34-.15.51-.24.85-.49-.13-.74-.2-1.23-.33-.42,1.53-.63,2.3-1.05,3.83.48.13.73.19,1.21.32-.1.34-.14.52-.24.86-1.38-.37-2.07-.55-3.46-.89.09-.35.13-.52.22-.87.49.12.73.18,1.22.31.4-1.54.61-2.3,1.02-3.84-.5-.13-.74-.19-1.24-.31Z"/>
      <path class="cls-5" d="M391.53,457.39c-.57,1.85-.85,2.78-1.4,4.64-.42-.12-.62-.18-1.04-.3.54-1.86.81-2.79,1.37-4.65-.61-.17-.91-.26-1.53-.43.1-.35.15-.52.25-.87,1.66.46,2.49.7,4.13,1.2-.11.34-.16.52-.27.86-.6-.18-.91-.27-1.52-.45Z"/>
      <path class="cls-5" d="M395.37,461.52c-.26.77-.38,1.16-.64,1.93-.41-.13-.61-.2-1.02-.33.25-.77.37-1.16.62-1.93-.24-1.64-.37-2.46-.64-4.1.46.14.69.21,1.16.36.1.78.15,1.17.25,1.94.04.38.06.57.09.95.26-.29.39-.44.65-.73.56-.56.84-.83,1.4-1.38.44.15.66.22,1.1.37-1.21,1.16-1.81,1.74-2.98,2.92Z"/>
    </g>
    <path class="cls-4" d="M292.59,229.03c-138.26,0-250.33,75-250.33,167.51,0,58.38,44.64,109.78,112.32,139.76v-5.24c-65.54-29.33-108.62-78.95-108.62-135.22,0-90.11,110.45-163.15,246.7-163.15s246.7,73.05,246.7,163.15c0,56.87-44.01,106.94-110.72,136.14v5.2c68.79-29.85,114.3-81.69,114.3-140.63,0-92.51-112.08-167.51-250.33-167.51Z"/>
    <path class="cls-4" d="M292.78,220.62c-143.99,0-260.72,79.02-260.72,176.5,0,63.11,48.94,118.47,122.52,149.67v-5.5c-71.36-30.54-118.67-84.03-118.67-144.92,0-94.94,115.03-171.91,256.93-171.91s256.93,76.97,256.93,171.91c0,61.59-48.41,115.6-121.15,145.96v5.46c74.89-31.01,124.88-86.89,124.88-150.67,0-97.48-116.73-176.5-260.72-176.5Z"/>
    <path class="cls-1" d="M432.13,360.2c-1.83-.14-3.02.54-4.01,2.04-1.5,2.28-3.23,4.42-4.73,6.7-5.24,8-10.52,15.99-15.55,24.11-1.41,2.27-2.35,4.95-2.97,7.58-.89,3.76,1.68,6.29,5.38,5.27,2.17-.6,4.51-1.62,6.09-3.15,3.56-3.46,6.71-7.33,9.97-11.09.5-.58.68-1.45,1-2.19-.19-.14-.38-.29-.57-.43-.6.54-1.27,1.02-1.78,1.63-1.6,1.91-3.05,3.95-4.73,5.79-1.56,1.72-3.27,3.32-5.04,4.82-.58.49-1.58.5-2.38.74.03-.81-.19-1.74.12-2.41,1.05-2.26,2.11-4.54,3.48-6.6,6.62-9.99,13.34-19.91,20.02-29.86.43-.64.82-1.33,1.39-2.31-.06-.19-.14-.39-.25-.58-1.32.04-3.02.15-5.43-.04Z"/>
    <g>
      <path class="cls-5" d="M210.66,550.04c-.59,2.03-.89,3.04-1.49,5.07-.07.23-.06.41.02.56.08.14.26.28.52.4-.04.14-.06.22-.11.36-2.09-.38-3.13-.58-5.22-.97.04-.14.06-.22.11-.36.32-.02.55-.08.7-.18.15-.1.26-.26.33-.49,1.56-5.2,2.33-7.8,3.86-13,.07-.23.06-.42-.01-.56-.08-.14-.25-.28-.51-.41.04-.14.06-.22.11-.36,4.08.77,6.13,1.14,10.22,1.85,1.19.21,2.12.44,2.78.71.66.27,1.21.63,1.65,1.09.45.48.75,1.06.89,1.73.14.7.11,1.41-.09,2.14-.28,1.04-.83,1.91-1.64,2.59-.7.59-1.52.95-2.46,1.09-.94.14-2.17.07-3.7-.19-2.39-.42-3.58-.63-5.96-1.07ZM211.4,547.5c2.2.4,3.31.6,5.51.99,1.1.19,1.9.22,2.41.07.32-.09.62-.28.88-.57.26-.28.44-.61.55-.99.1-.37.11-.72.02-1.07-.09-.34-.25-.61-.49-.8-.37-.29-1.11-.53-2.21-.73-2.19-.38-3.29-.58-5.48-.98-.47,1.63-.71,2.44-1.18,4.07Z"/>
      <path class="cls-5" d="M224.58,557.7c1.27-5.26,1.89-7.89,3.13-13.16.05-.23.04-.41-.05-.55-.08-.14-.26-.27-.53-.38.03-.15.05-.22.09-.37,2.06.31,3.09.46,5.15.75-.03.15-.05.22-.08.36-.31.03-.53.1-.67.21-.14.11-.24.28-.29.51-1.21,5.27-1.83,7.91-3.07,13.18-.06.24-.04.42.05.57.09.14.27.27.54.38-.03.15-.05.22-.09.37-2.11-.3-3.16-.46-5.26-.77.03-.15.05-.22.09-.36.31-.03.55-.1.69-.2.14-.1.25-.27.3-.51Z"/>
      <path class="cls-5" d="M246.26,554.19c-1.14.66-1.71.99-2.85,1.65-.28,1.68-.42,2.53-.71,4.21-.04.24-.01.43.09.57.1.14.29.26.57.36-.02.15-.04.22-.06.37-2.12-.22-3.18-.33-5.3-.57.03-.15.04-.22.07-.37.31-.04.54-.12.67-.23.14-.11.23-.28.27-.52.93-5.31,1.38-7.97,2.29-13.29.04-.23.01-.41-.08-.55-.09-.13-.28-.26-.56-.37.03-.15.04-.22.06-.37,2.07.23,3.11.34,5.19.55-.02.15-.04.22-.06.37-.3.04-.52.12-.66.23-.13.11-.22.29-.26.52-.36,2.2-.54,3.3-.91,5.5,3.11-1.82,4.66-2.74,7.74-4.6.36-.22.55-.4.57-.54.03-.22-.18-.4-.64-.53.02-.15.03-.22.06-.37,2.72.26,4.08.38,6.81.61-.02.15-.03.22-.05.37-.29.03-.51.07-.64.13-.13.06-.52.29-1.18.69-.42.26-.63.39-1.05.66-2.53,1.52-3.8,2.27-6.36,3.77,2.12,3.17,3.2,4.75,5.37,7.9.5.73.87,1.2,1.11,1.42.24.22.56.38.96.47-.02.15-.03.22-.06.37-2.66-.23-3.99-.35-6.65-.6.02-.15.03-.22.06-.37.45-.04.7-.17.73-.38.02-.11-.14-.41-.46-.91-1.64-2.46-2.45-3.69-4.06-6.17Z"/>
      <path class="cls-5" d="M271.12,559.39c-3.09-.15-4.64-.23-7.72-.41-.54.86-.81,1.3-1.36,2.16-.19.3-.29.54-.31.72-.03.34.22.59.77.76-.01.15-.02.22-.04.37-2.26-.13-3.39-.2-5.65-.36.02-.15.02-.22.04-.37.34-.04.61-.13.8-.27.19-.14.42-.43.69-.86,3-4.7,4.48-7.05,7.39-11.78.23-.38.36-.68.38-.91.03-.35-.18-.62-.64-.8.01-.15.02-.22.03-.37,2.37.13,3.56.19,5.93.31-.01.15-.02.22-.03.37-.49.11-.75.33-.78.65-.02.22.03.48.17.78,2.14,5,3.23,7.5,5.45,12.49.24.53.45.9.64,1.09.19.2.47.33.81.41-.01.15-.02.22-.03.37-2.52-.1-3.78-.15-6.29-.27.01-.15.02-.22.03-.37.56-.06.86-.29.89-.68.01-.16-.05-.41-.19-.73-.39-.91-.59-1.37-.98-2.28ZM270.24,557.17c-.91-2.31-1.36-3.47-2.25-5.78-1.31,2.2-1.97,3.29-3.3,5.49,2.22.12,3.32.18,5.54.29Z"/>
      <path class="cls-5" d="M283.66,557.37c-.05,2.09-.08,3.14-.13,5.23,0,.23.05.41.17.54.12.13.32.23.61.3,0,.15,0,.22,0,.37-2.14-.02-3.21-.04-5.34-.08,0-.15,0-.22.01-.37.3-.07.52-.17.64-.29.12-.12.18-.3.19-.53.16-5.37.24-8.06.39-13.44,0-.24-.05-.42-.16-.55-.11-.12-.31-.23-.61-.31,0-.15,0-.22.01-.37,4.18.08,6.27.1,10.46.12,1.22,0,2.19.08,2.9.24.71.15,1.35.42,1.89.8.56.39,1.01.91,1.32,1.55.32.66.47,1.37.47,2.11,0,1.07-.32,2.01-.93,2.82-.53.69-1.24,1.19-2.12,1.48-.88.29-2.1.44-3.67.43-2.44,0-3.66-.02-6.09-.05ZM283.72,554.75c2.26.03,3.38.04,5.64.05,1.12,0,1.92-.11,2.37-.33.29-.15.53-.38.71-.7.18-.32.27-.68.28-1.06,0-.38-.08-.73-.25-1.05-.17-.32-.4-.56-.69-.7-.44-.23-1.22-.34-2.35-.34-2.24-.01-3.36-.02-5.61-.05-.04,1.68-.06,2.52-.1,4.2Z"/>
      <path class="cls-5" d="M302.71,557.25c.09,2.09.14,3.14.23,5.23,0,.23.08.41.2.53.13.12.34.22.63.28,0,.15.01.22.02.37-2.14.07-3.2.1-5.34.15,0-.15,0-.22-.02-.37.3-.08.5-.19.62-.32.11-.13.16-.31.15-.54-.21-5.37-.31-8.06-.52-13.43,0-.24-.07-.42-.19-.54-.12-.12-.33-.22-.62-.29,0-.15,0-.22-.01-.37,4.18-.1,6.27-.17,10.46-.34,1.22-.05,2.19-.01,2.91.11.72.12,1.38.36,1.94.72.59.37,1.07.87,1.42,1.49.36.64.56,1.35.61,2.09.07,1.07-.18,2.02-.75,2.85-.48.71-1.16,1.24-2.02,1.56-.86.33-2.07.53-3.63.59-2.44.1-3.65.14-6.09.22ZM302.6,554.64c2.25-.07,3.38-.11,5.63-.2,1.12-.04,1.91-.19,2.35-.43.28-.16.5-.4.66-.73.16-.33.23-.69.21-1.07-.02-.38-.13-.73-.33-1.04-.19-.31-.44-.54-.73-.67-.46-.21-1.25-.28-2.37-.24-2.24.09-3.36.13-5.6.2.07,1.68.11,2.52.18,4.19Z"/>
      <path class="cls-5" d="M328.17,558.2c-3.08.25-4.63.37-7.71.6-.36.92-.54,1.38-.91,2.3-.12.32-.18.57-.16.75.04.34.34.55.91.65.02.15.02.22.04.37-2.26.16-3.39.24-5.65.38-.01-.15-.02-.22-.04-.37.33-.08.57-.21.73-.37.16-.17.33-.48.51-.94,2.01-5.02,3-7.54,4.94-12.57.16-.4.22-.72.19-.95-.04-.35-.3-.59-.79-.71-.02-.15-.02-.22-.04-.37,2.37-.17,3.55-.26,5.92-.46.02.15.03.22.04.37-.47.17-.68.42-.64.74.02.22.13.47.32.74,3.11,4.66,4.69,6.98,7.89,11.61.34.49.63.82.86.99.23.17.53.27.88.3.02.15.03.22.05.37-2.51.23-3.76.34-6.27.55-.02-.15-.03-.22-.05-.37.54-.13.79-.4.74-.79-.02-.16-.13-.39-.33-.7-.57-.85-.86-1.27-1.43-2.12ZM326.85,556.13c-1.36-2.16-2.03-3.24-3.37-5.41-.86,2.33-1.29,3.5-2.16,5.83,2.21-.16,3.32-.25,5.53-.43Z"/>
      <path class="cls-5" d="M346.29,553.85c.41,2.06.62,3.09,1.04,5.15.05.23.14.4.29.51.15.11.37.18.67.21.03.15.05.22.08.37-2.11.28-3.17.42-5.29.69-.03-.15-.04-.22-.07-.37.28-.11.47-.24.56-.38.09-.14.11-.32.07-.55-1.05-5.3-1.56-7.94-2.59-13.24-.05-.24-.14-.41-.28-.52-.14-.11-.36-.18-.67-.22-.03-.15-.04-.22-.07-.37,4.14-.52,6.21-.79,10.34-1.37,1.2-.17,2.17-.23,2.91-.18.74.05,1.42.22,2.04.52.64.31,1.2.75,1.64,1.34.46.6.76,1.28.92,2.01.23,1.05.13,2.02-.3,2.89-.37.75-.96,1.34-1.77,1.75-.8.41-1.97.73-3.52.95-2.41.34-3.61.5-6.02.82ZM345.77,551.28c2.23-.29,3.34-.45,5.57-.76,1.11-.15,1.86-.38,2.27-.66.25-.19.44-.45.54-.79.11-.34.12-.7.04-1.08-.08-.37-.24-.7-.48-1-.24-.29-.52-.49-.83-.59-.48-.16-1.28-.16-2.39,0-2.21.31-3.32.46-5.54.75.33,1.65.49,2.48.83,4.13Z"/>
      <path class="cls-5" d="M374.48,548.79c-3.82.73-5.73,1.08-9.57,1.76.61,2.22.91,3.33,1.53,5.56.06.23.17.39.32.49.15.1.38.16.69.18.04.14.06.22.1.36-2.09.38-3.14.56-5.24.92-.04-.14-.06-.22-.1-.36.28-.13.45-.26.54-.4.08-.14.09-.32.03-.55-1.42-5.23-2.12-7.85-3.51-13.09-.06-.23-.16-.39-.31-.49-.14-.1-.37-.17-.68-.19-.04-.14-.06-.22-.1-.36,2.05-.35,3.08-.53,5.13-.89.04.14.06.22.1.36-.27.12-.45.25-.52.39-.08.15-.09.33-.03.56.54,1.99.81,2.98,1.35,4.97,3.82-.68,5.73-1.03,9.54-1.76-.57-1.98-.85-2.97-1.42-4.95-.06-.23-.17-.39-.32-.49-.15-.1-.37-.16-.68-.17-.04-.14-.06-.22-.1-.36,2.04-.39,3.07-.58,5.11-.99.04.14.06.22.1.36-.27.13-.44.27-.51.41-.08.14-.08.33-.02.55,1.51,5.2,2.27,7.81,3.81,13,.07.22.18.39.32.48.15.1.38.15.7.17.04.14.06.22.11.36-2.08.41-3.13.62-5.21,1.02-.04-.14-.06-.22-.1-.36.27-.12.44-.26.52-.4.08-.15.09-.33.02-.56-.64-2.21-.96-3.32-1.6-5.54Z"/>
      <path class="cls-5" d="M384.12,552.65c-1.74-5.15-2.6-7.73-4.3-12.88-.07-.22-.18-.38-.34-.48-.15-.09-.38-.15-.69-.16-.05-.14-.07-.21-.12-.36,2.03-.44,3.05-.66,5.07-1.11.05.14.07.21.12.36-.26.13-.43.27-.5.41-.07.15-.07.33,0,.56,1.73,5.15,2.6,7.72,4.36,12.86.08.23.2.39.36.49.16.1.39.15.7.15.05.14.07.21.12.36-2.07.46-3.11.69-5.18,1.14-.05-.14-.07-.21-.12-.36.27-.14.44-.28.51-.42s.07-.33,0-.56Z"/>
    </g>
    <g>
      <path class="cls-6" d="M151.9,474.42c-1.98-1.06-2.97-1.6-4.94-2.71.68-1.21,1.02-1.82,1.7-3.03,5.3,2.97,7.97,4.38,13.38,7.05-.62,1.25-.93,1.87-1.54,3.11-2.01-.99-3.01-1.5-5-2.54-2.51,4.85-3.77,7.27-6.29,12.12-1.51-.78-2.26-1.18-3.76-1.98,2.58-4.81,3.87-7.22,6.45-12.04Z"/>
      <path class="cls-6" d="M164.8,477.09c2.99,1.44,4.5,2.14,7.52,3.5,2.1.94,3.49,2.21,4.15,3.72.56,1.28.54,2.73-.09,4.22,0,.02-.01.03-.02.05-1.07,2.55-3.25,3.52-5.76,3.31.7,2.98,1.07,4.47,1.84,7.45-1.81-.76-2.72-1.15-4.52-1.94-.62-2.67-.92-4-1.48-6.66-1.19-.54-1.78-.81-2.96-1.36-.93,1.99-1.39,2.98-2.32,4.97-1.53-.71-2.29-1.08-3.82-1.81,2.98-6.17,4.47-9.26,7.45-15.43ZM168.67,488.08c1.82.82,3.26.37,3.84-.95,0-.02.01-.03.02-.05.65-1.48-.12-2.72-1.91-3.53-1.46-.66-2.19-.99-3.64-1.67-.83,1.78-1.25,2.68-2.08,4.46,1.51.7,2.26,1.05,3.78,1.73Z"/>
      <path class="cls-6" d="M187.69,486.86c1.36.52,2.05.78,3.42,1.29.5,7.54.84,11.33,1.7,18.91-1.65-.56-2.48-.85-4.13-1.44-.14-1.68-.2-2.52-.33-4.2-2.99-1.08-4.48-1.64-7.44-2.8-1.2,1.18-1.81,1.77-3.02,2.94-1.59-.63-2.38-.95-3.97-1.61,5.66-5.13,8.42-7.74,13.77-13.08ZM188.11,497.78c-.16-2.43-.23-3.64-.36-6.06-1.69,1.74-2.55,2.6-4.27,4.32,1.85.71,2.77,1.06,4.63,1.74Z"/>
      <path class="cls-6" d="M200.96,491.72c2.66.88,3.99,1.3,6.66,2.11,5.39,1.64,8.18,6.19,6.92,10.85,0,.02,0,.03-.01.05-1.26,4.65-6.2,7.23-11.9,5.49-2.83-.86-4.24-1.31-7.05-2.24,2.15-6.51,3.22-9.76,5.37-16.27ZM203.63,506.97c3.23.98,5.98-.41,6.81-3.33,0-.02,0-.03.01-.05.83-2.92-.7-5.56-3.82-6.51-1.18-.36-1.77-.54-2.94-.91-1.24,3.94-1.87,5.91-3.11,9.85,1.22.38,1.82.57,3.04.94Z"/>
      <path class="cls-6" d="M220.33,497.4c1.52.39,2.28.58,3.81.95-1.62,6.66-2.43,9.99-4.04,16.65-1.61-.39-2.42-.59-4.03-1.01,1.7-6.64,2.56-9.96,4.26-16.59Z"/>
      <path class="cls-6" d="M231.82,503.66c-2.15-.46-3.22-.69-5.36-1.19.31-1.35.47-2.03.78-3.39,5.76,1.33,8.65,1.93,14.46,2.97-.25,1.37-.37,2.05-.62,3.42-2.16-.39-3.23-.59-5.38-1.02-1.06,5.36-1.6,8.04-2.66,13.39-1.63-.32-2.44-.49-4.06-.83,1.14-5.34,1.7-8.01,2.84-13.36Z"/>
      <path class="cls-6" d="M244.84,502.6c1.54.26,2.32.39,3.86.63-1.05,6.77-1.58,10.16-2.63,16.93-1.63-.25-2.45-.39-4.08-.66,1.14-6.76,1.71-10.14,2.85-16.89Z"/>
      <path class="cls-6" d="M251.11,512.3s0-.03,0-.05c.69-4.82,5.19-8.18,10.64-7.58,5.44.6,9.04,4.81,8.66,9.67,0,.02,0,.03,0,.05-.38,4.85-4.9,8.52-10.66,7.88-5.76-.64-9.33-5.15-8.64-9.98ZM266.22,514.08s0-.03,0-.05c.27-2.92-1.75-5.56-4.91-5.91-3.16-.35-5.65,1.74-6.03,4.65,0,.02,0,.03,0,.05-.38,2.91,1.63,5.65,4.9,6.01,3.27.36,5.77-1.82,6.04-4.75Z"/>
      <path class="cls-6" d="M274.56,506.1c1.44.1,2.15.14,3.59.22,3.09,4.4,4.69,6.57,8.01,10.89.12-4.22.17-6.33.29-10.54,1.54.04,2.31.06,3.85.08-.1,6.85-.15,10.28-.25,17.13-1.4-.02-2.11-.03-3.51-.07-3.52-4.45-5.22-6.7-8.48-11.24-.24,4.35-.35,6.52-.59,10.87-1.63-.09-2.44-.14-4.07-.25.46-6.84.69-10.26,1.15-17.09Z"/>
      <path class="cls-6" d="M301.26,521.34c.94-1.09,1.41-1.63,2.34-2.73,1.7,1.22,3.48,1.97,5.6,1.87,1.67-.08,2.64-.75,2.59-1.75,0-.02,0-.03,0-.05-.05-.95-.72-1.39-3.81-1.99-3.73-.72-6.12-1.63-6.2-5.03,0-.02,0-.03,0-.05-.07-3.11,2.46-5.21,6.08-5.37,2.58-.11,4.82.54,6.72,1.81-.74,1.19-1.11,1.78-1.87,2.96-1.66-.96-3.24-1.51-4.75-1.44-1.51.07-2.28.75-2.25,1.58,0,.02,0,.03,0,.05.04,1.13.83,1.47,3.99,2.08,3.72.72,5.89,1.81,6.1,4.79,0,.02,0,.03,0,.05.23,3.39-2.47,5.5-6.52,5.69-2.84.13-5.74-.69-8.02-2.47Z"/>
      <path class="cls-6" d="M318.55,505.82c1.56-.12,2.33-.19,3.89-.34.64,6.82.96,10.23,1.59,17.06-1.64.15-2.47.23-4.11.36-.55-6.83-.82-10.25-1.37-17.08Z"/>
      <path class="cls-6" d="M326.86,505.03c1.43-.16,2.15-.24,3.58-.41,3.81,3.79,5.77,5.66,9.81,9.32-.62-4.17-.93-6.26-1.56-10.43,1.53-.23,2.29-.35,3.81-.59,1.1,6.76,1.65,10.15,2.75,16.91-1.39.23-2.08.33-3.48.54-4.25-3.76-6.32-5.68-10.33-9.58.53,4.32.79,6.49,1.31,10.81-1.62.2-2.43.29-4.05.47-.74-6.81-1.11-10.22-1.85-17.03Z"/>
      <path class="cls-6" d="M347.42,510.82s0-.03,0-.05c-.84-4.8,2.23-9.36,7.59-10.46,3.29-.68,5.48-.08,7.45,1.07-.73,1.3-1.1,1.96-1.85,3.26-1.63-.87-3.16-1.29-4.92-.92-2.97.61-4.68,3.37-4.13,6.25,0,.02,0,.03,0,.05.54,2.88,3.17,4.89,6.3,4.24,2.09-.43,3.2-1.48,4.36-2.99,1.22.72,1.84,1.08,3.08,1.79-1.45,2.27-3.3,3.9-6.87,4.63-5.43,1.12-10.16-2.03-11.01-6.87Z"/>
      <path class="cls-6" d="M365.11,498.35c5.23-1.27,7.84-1.97,13.02-3.47.38,1.29.56,1.93.94,3.22-3.72,1.08-5.59,1.6-9.34,2.56.35,1.35.52,2.02.86,3.37,3.34-.86,5-1.31,8.32-2.26.37,1.29.55,1.93.92,3.22-3.35.96-5.04,1.42-8.41,2.29.36,1.39.54,2.09.89,3.48,3.93-1.01,5.89-1.55,9.79-2.68.38,1.29.56,1.93.94,3.22-5.53,1.61-8.32,2.36-13.9,3.71-1.62-6.66-2.43-9.99-4.04-16.65Z"/>
      <path class="cls-6" d="M392.43,494.23c-1.1.69-1.66,1.03-2.77,1.7-.7-1.07-1.05-1.6-1.75-2.67,1.78-1.2,2.67-1.81,4.43-3.04,1.02-.35,1.53-.53,2.54-.89,2.32,6.5,3.48,9.75,5.79,16.25-1.56.55-2.33.83-3.9,1.36-1.74-5.09-2.61-7.63-4.35-12.71Z"/>
      <path class="cls-6" d="M404.26,502.42c.42-1.38.63-2.07,1.03-3.45,1.64.45,2.89.47,4.37-.12,2.16-.85,2.7-2.8,2.08-5.03-.57,1-1.56,1.91-3.08,2.51-3.78,1.49-6.95.46-8.16-2.8l-.02-.04c-1.2-3.24.54-6.58,4.32-8.08,2.25-.89,3.77-.92,5.54-.25,1.67.63,3.19,2,4.52,5.11,0,.02.01.03.02.05,2.18,5.11.98,9.78-4.06,11.77-2.59,1.02-4.64.91-6.56.34ZM410.1,489.63s-.01-.03-.02-.05c-.58-1.4-2.1-1.96-3.96-1.22-1.84.73-2.49,2.13-1.95,3.55,0,.02.01.03.02.04.55,1.42,2.06,1.96,3.93,1.22,1.87-.74,2.54-2.19,1.98-3.55Z"/>
      <path class="cls-6" d="M419.58,494.89c1.57-2.72,2.33-4.09,3.81-6.83,1.38-2.57,1.78-3.8,1.18-5.08-.62-1.31-1.88-1.58-3.18-.97-1.28.59-1.85,1.66-2.47,3.65-1.39-.31-2.08-.47-3.45-.8.73-2.83,1.8-4.66,4.73-6.02,3.41-1.58,6.56-.82,7.96,2.06,0,.02.01.03.02.04,1.26,2.57.47,4.56-1.56,8.1-.75,1.3-1.12,1.95-1.89,3.25,3.01-1.38,4.5-2.09,7.48-3.55.57,1.17.86,1.75,1.43,2.92-5.11,2.51-7.69,3.7-12.88,5.96-.48-1.09-.72-1.64-1.19-2.74Z"/>
      <path class="cls-6" d="M435.08,488.42c.42-1.43.63-2.14,1.03-3.57,1.81.39,3.39.34,4.89-.45,1.74-.92,2.41-2.26,1.69-3.6,0-.02-.01-.03-.02-.04-.7-1.29-2.31-1.39-4.05-.47-1.05.55-1.86,1.31-2.49,2.02-1.12-.07-1.67-.11-2.78-.2-1.33-3.11-2-4.66-3.35-7.77,3.99-2.03,5.97-3.08,9.9-5.27.64,1.15.96,1.73,1.61,2.89-2.75,1.53-4.14,2.28-6.92,3.74.47,1.09.71,1.63,1.18,2.72.58-.5,1.11-.91,2.03-1.4,3.2-1.7,6.52-1.72,8.41,1.65,0,.02.01.03.02.04,1.77,3.16.36,6.6-3.56,8.69-2.73,1.45-5.2,1.6-7.57,1.01Z"/>
    </g>
  </g>
  <g id="rose">
    <g>
      <path class="cls-7" d="M779.17,380.07l7.3,5.62c.33.25.64.36.94.35.3-.02.64-.18,1.03-.49l.52.4-5.32,6.91-.52-.4c.19-.47.26-.85.2-1.14-.06-.28-.25-.55-.57-.8l-18.76-14.44c-.33-.26-.65-.38-.94-.36-.29.02-.64.18-1.05.49l-.52-.4,10.64-13.83c1.24-1.61,2.33-2.81,3.28-3.59.95-.78,1.96-1.33,3.05-1.65,1.13-.32,2.3-.35,3.52-.08,1.25.29,2.4.84,3.44,1.64,1.49,1.15,2.49,2.56,3,4.22.43,1.43.41,2.88-.06,4.33-.47,1.45-1.5,3.2-3.07,5.25l-6.12,7.95ZM775.52,377.26l5.68-7.38c1.13-1.47,1.77-2.62,1.91-3.46.09-.54,0-1.09-.28-1.67-.27-.58-.68-1.08-1.22-1.49-.53-.41-1.11-.67-1.74-.78-.63-.11-1.19-.06-1.69.16-.76.34-1.71,1.26-2.85,2.74l-5.68,7.38,5.86,4.51Z"/>
      <path class="cls-7" d="M802.8,366.44l-16.35-17.12c-.28-.3-.57-.46-.86-.48-.29-.03-.66.08-1.11.32l-.45-.47,6.31-6.03.45.47c-.27.43-.4.79-.38,1.09.02.29.17.59.45.89l16.35,17.12c.29.31.59.47.89.5.3.03.66-.08,1.09-.32l.45.47-6.31,6.03-.45-.47c.26-.44.39-.8.37-1.09s-.17-.59-.46-.89Z"/>
      <path class="cls-7" d="M823.41,336.4l-1.88,5.07,3.83,6.44c.22.36.47.59.75.68.29.09.66.07,1.14-.07l.34.56-7.5,4.46-.33-.56c.35-.37.55-.7.61-.98.05-.28-.03-.61-.25-.97l-12.1-20.34c-.21-.35-.45-.57-.73-.66-.28-.09-.66-.07-1.15.07l-.33-.56,7.5-4.46.33.56c-.36.36-.56.68-.61.97s.03.61.24.96l5,8.41,5.09-13.96c.23-.65.29-1.08.15-1.31-.2-.34-.68-.37-1.44-.1l-.33-.56,9.82-5.84.33.56c-.36.33-.6.59-.71.8-.11.21-.39.91-.82,2.11l-.69,1.93-4.26,11.42,15.89,5.63c1.47.52,2.49.82,3.04.89.56.07,1.15-.02,1.79-.26l.33.56-9.39,5.59-.33-.56c.55-.5.72-.91.54-1.22-.1-.17-.64-.43-1.62-.8l-12.23-4.47Z"/>
      <path class="cls-7" d="M865.19,324.29l-12.08,3.94-.57,4.32c-.08.6-.07,1.05.03,1.35.19.57.75.82,1.69.76l.2.62-8.79,2.86-.2-.62c.48-.27.82-.58,1.01-.93.19-.35.33-.96.44-1.82l3.12-23.61c.1-.75.09-1.32-.04-1.71-.2-.6-.71-.9-1.55-.92l-.2-.62,9.42-3.07.2.62c-.69.47-.95.98-.77,1.52.12.38.39.76.79,1.16l16.8,17.18c.71.73,1.28,1.2,1.71,1.41.43.21.93.28,1.51.21l.2.62-9.78,3.19-.2-.62c.81-.42,1.11-.97.89-1.63-.09-.27-.35-.63-.78-1.08l-3.04-3.14ZM862.33,321.19l-7.39-8.06-1.29,10.89,8.69-2.83Z"/>
      <path class="cls-7" d="M885.4,315.78l.88,9.17c.04.41.17.71.39.92.22.21.57.35,1.06.42l.06.65-8.68.83-.06-.65c.48-.18.8-.39.97-.63.17-.24.24-.56.2-.97l-2.25-23.56c-.04-.42-.17-.73-.38-.93-.21-.2-.57-.34-1.07-.43l-.06-.65,17.37-1.66c2.02-.19,3.64-.21,4.86-.05,1.21.16,2.31.53,3.28,1.1,1,.6,1.83,1.44,2.46,2.52.64,1.12,1.03,2.33,1.15,3.63.18,1.87-.17,3.57-1.04,5.08-.75,1.29-1.82,2.26-3.21,2.91-1.38.65-3.36,1.09-5.93,1.34l-9.99.95ZM884.96,311.19l9.28-.89c1.85-.18,3.13-.5,3.84-.96.45-.3.8-.75,1.04-1.34.24-.59.32-1.23.26-1.91-.06-.67-.27-1.27-.62-1.8-.35-.54-.77-.91-1.27-1.12-.77-.32-2.09-.4-3.95-.22l-9.28.89.7,7.36Z"/>
      <path class="cls-7" d="M918.35,314.85l-1.08,9.15c-.05.41.01.73.18.98.17.25.49.46.95.64l-.08.65-8.66-1.02.08-.65c.5-.08.86-.21,1.08-.41.21-.19.35-.5.39-.9l2.77-23.51c.05-.42,0-.75-.17-.99-.16-.24-.48-.46-.95-.65l.08-.65,17.33,2.04c2.02.24,3.61.56,4.76.97,1.16.41,2.15,1,2.98,1.77.85.8,1.48,1.8,1.88,2.98.39,1.23.51,2.49.36,3.8-.22,1.87-.91,3.45-2.08,4.74-1.01,1.1-2.26,1.83-3.75,2.17-1.49.34-3.52.36-6.08.06l-9.96-1.17ZM918.89,310.27l9.25,1.09c1.84.22,3.16.17,3.95-.13.5-.2.94-.57,1.29-1.09.36-.53.58-1.13.66-1.81.08-.66,0-1.29-.22-1.89-.23-.6-.56-1.05-1-1.37-.69-.48-1.96-.83-3.82-1.05l-9.25-1.09-.86,7.34Z"/>
      <path class="cls-7" d="M959.02,328.06l-12.08-3.94-3.01,3.15c-.42.44-.67.81-.77,1.11-.19.57.12,1.11.91,1.61l-.2.62-8.79-2.87.2-.62c.55.07,1.01.01,1.37-.16.36-.17.83-.58,1.43-1.21l16.43-17.23c.52-.55.85-1.02.98-1.41.19-.6-.04-1.15-.71-1.65l.2-.62,9.42,3.08-.2.62c-.84-.03-1.35.23-1.52.78-.12.38-.14.84-.05,1.4l3.44,23.78c.14,1.01.33,1.73.55,2.15.22.42.59.78,1.1,1.06l-.2.62-9.78-3.19.2-.62c.9.14,1.47-.12,1.68-.79.09-.27.09-.72,0-1.33l-.61-4.33ZM958.54,323.88l-1.22-10.87-7.47,8.04,8.69,2.83Z"/>
      <path class="cls-7" d="M989.71,338.53l-5.22,7.59c-.23.34-.33.66-.29.95.04.3.21.63.54,1l-.37.54-7.19-4.94.37-.54c.48.17.86.21,1.14.14.28-.07.54-.28.77-.61l13.41-19.5c.24-.35.34-.67.31-.96-.04-.29-.21-.63-.54-1.02l.37-.54,14.38,9.89c1.68,1.15,2.93,2.18,3.76,3.08.83.9,1.43,1.89,1.81,2.96.38,1.11.47,2.28.27,3.51-.23,1.27-.71,2.44-1.45,3.52-1.07,1.55-2.42,2.63-4.06,3.23-1.41.51-2.85.56-4.33.17-1.48-.4-3.28-1.32-5.4-2.78l-8.27-5.69ZM992.33,334.73l7.68,5.28c1.53,1.05,2.72,1.63,3.56,1.73.54.06,1.09-.06,1.65-.37.56-.3,1.04-.73,1.42-1.29.38-.55.61-1.14.69-1.78.08-.63,0-1.19-.25-1.68-.38-.74-1.34-1.65-2.88-2.7l-7.68-5.28-4.19,6.09Z"/>
      <path class="cls-7" d="M1027.21,370.26l-10.89-11.87-7.42,6.81c-.3.28-.47.56-.5.86s.07.66.3,1.1l-.48.44-5.9-6.43.48-.44c.43.27.79.4,1.08.4s.59-.15.89-.43l17.46-16.02c.3-.28.47-.56.5-.85.03-.29-.07-.66-.3-1.12l.48-.44,5.9,6.43-.48.44c-.42-.28-.78-.41-1.08-.4-.29.01-.59.16-.9.43l-6.64,6.09,10.89,11.88,6.64-6.09c.3-.28.47-.56.51-.85.04-.29-.07-.66-.31-1.11l.48-.44,5.9,6.43-.48.44c-.43-.27-.79-.4-1.08-.39-.29,0-.59.15-.89.42l-17.46,16.02c-.3.28-.47.56-.5.85-.03.29.07.66.3,1.12l-.48.44-5.9-6.43.48-.44c.41.27.77.4,1.07.39.3,0,.6-.15.9-.42l7.42-6.81Z"/>
      <path class="cls-7" d="M1027.41,387.55l19.83-12.93c.34-.23.55-.48.63-.75.08-.28.04-.66-.11-1.15l.55-.36,4.76,7.31-.55.36c-.37-.35-.7-.54-1-.57-.29-.04-.61.06-.96.28l-19.83,12.93c-.35.23-.57.49-.65.78-.08.29-.04.67.12,1.13l-.55.36-4.76-7.31.55-.36c.38.34.72.53,1,.57.29.04.61-.05.96-.29Z"/>
    </g>
    <g>
      <path class="cls-9" d="M319.2,304.13c2.29,2.65,2.3,4.74.02,7.5-1.92,2.33-4.35,3.84-7.29,4.49-1.66.37-3.35.61-5.01.98-1.65.37-3.28.82-5.27,1.33,1.09-2.9,3.15-4.26,5.62-5.25,2.23-.9,4.49-1.77,6.59-2.92,2.43-1.33,4.2-3.36,4.91-6.14h.43Z"/>
      <path class="cls-9" d="M316.52,315.59c-.45,2.7-.89,5.47-1.38,8.23-.34,1.95-.56,3.95-1.15,5.83-1.62,5.11-6.53,7.83-11.75,6.65-.53-.12-1.14-.3-1.52-.66-3.31-3.08-4-10.67-.93-13.91,1.36-1.44,3.52-2.26,5.46-2.97,1.92-.69,4.04-.77,6.02-1.31,1.9-.52,3.72-1.31,5.25-1.86Z"/>
      <path class="cls-2" d="M203.73,348.83c16.61,5.56,32.86,8.52,47.96-4.02.04.23.08.45.12.68-.34.36-.68.71-1.02,1.07.07.2.14.41.22.61,1.11-.34,2.61-.34,3.25-1.08,3.49-4.05,8.13-3.7,12.71-3.66-.85,4.01-5.78,6.91-10.55,5.62-3.94-1.07-7.22-.51-10.7,1.51-3.14,1.82-6.66,2.99-10.48,4.65.93.16,1.42.31,1.92.32,20.02.27,38.62-4.72,55.7-15.22.66-.4,1.45-.84,1.78-1.48,1.03-1.96,2.53-1.64,4.19-1.21.16,1.93-.34,3.11-2.55,2.97-.64-.04-1.38.34-1.96.7-9.36,5.81-19.35,10.09-30.08,12.64-.32.08-.62.26-1.39.59,1.71.81,3.05,1.45,4.93,2.34-2.55-.62-4.52-1.52-6.48-1.49-3.67.06-7.33.65-10.99,1.04-12.6,1.33-25.1.79-37.49-1.91-2.15-.47-4.29-.98-6.45-1.39-1.71-.32-2.61-1.24-2.64-3.28Z"/>
      <path class="cls-9" d="M302.1,337.62c2.45-.09,4.81.21,6.94-.35,3.05-.8,5.9-2.32,8.9-3.37,2.38-.84,4.82-1.56,7.28-2.07.84-.18,1.85.42,2.31.54-3.06,2.22-6.25,4.38-9.26,6.78-5.61,4.46-12.32,3.94-16.16-1.51Z"/>
      <path class="cls-2" d="M278.91,360.09c1.4-.07,3.29.28,4.82-.32,4.64-1.82,8.7-.74,12.63,1.8-2.09,3.41-7.8,4.5-11.63,2.17-2.11-1.28-4.18-2.62-5.82-3.64Z"/>
      <path class="cls-2" d="M271.63,356.27c0,1.88,1.09,2.85,2.59,3.86,4.25,2.87,5.78,7.06,4.3,10.93-.46-.34-.87-.76-1.37-1-4.37-2.05-6.51-5.27-5.68-10.25.14-.85-.4-1.82-.66-2.88.11-.09.47-.38.82-.68h0Z"/>
      <path class="cls-2" d="M283.64,337.33c3.02-.12,4.92-1.94,6.84-3.94,1.18-1.22,2.69-2.25,4.24-2.94,1.21-.53,2.46-.13,2.74,1.64.15.94.71,1.82,1.24,3.12-2.75-.91-4.48.61-6.32,1.95-2.68,1.95-5.96,1.98-8.74.15Z"/>
      <path class="cls-9" d="M327.11,323.32c-1.03-.08-1.73-.12-2.43-.19q-5.14-.55-4.07-5.69c.29-1.39.66-2.75.92-4.15.26-1.39.42-2.8.66-4.43,3.18,4.36,2.2,9.88,4.91,14.45Z"/>
      <path class="cls-2" d="M248.54,331.54c4.89,2.03,5.15,6.3,1.67,13.5-2.27-2.77-4.09-5.44-2.47-9.22.54-1.26.54-2.75.8-4.28Z"/>
      <path class="cls-9" d="M311.33,335.42c3.96-3.13,4.78-7.05,4.81-11.18.03-4.48,2.14-8.13,3.96-11.28-.39,4.24-.52,9.07-1.38,13.76-.7,3.8-2.14,7.55-7.38,8.7Z"/>
      <path class="cls-9" d="M261.9,323.04c-.54,1.49-1.26,2.95-1.57,4.49-.32,1.55-.46,3.22-.24,4.77.19,1.3,1.02,1.82,2.44.74,2.3-1.74,4.79-3.21,7.59-5.05-.87,1.96-1.51,3.49-2.22,5-1.32,2.79-4.05,3.83-6.69,2.58-3.09-1.46-4.21-4.22-2.75-7.14.94-1.89,2.11-3.66,3.17-5.49.09.03.18.06.27.09Z"/>
      <path class="cls-9" d="M324.9,310.24c1.94,1.4,3.97,2.68,5.8,4.22,4.64,3.89,4.83,6.78.97,11.76-1.45-.98-1.8-1.98-.71-3.64,1.49-2.26.53-5.62-2.22-6.51-2.93-.95-3.4-3.15-3.84-5.83Z"/>
      <path class="cls-2" d="M271.63,356.26c1.07-.64,2.19-1.21,3.21-1.93,3.44-2.46,7.01-1.86,10.63-.57-1.19,3.26-3.76,4.44-7.49,3.61-2.1-.47-4.23-.74-6.35-1.11,0,0,0,0,0,0Z"/>
      <path class="cls-2" d="M300.89,338.34c-.27-.21-.05-.11.05.05.73,1.18,2.63,1.73,2.03,3.63-.61,1.93-2.38,1.63-3.83,2.02-3.03.81-4.98,2.82-5.85,6.04-.9-2.98-.29-4.98,1.84-6.78,1.9-1.6,3.77-3.25,5.76-4.96Z"/>
      <path class="cls-9" d="M318.74,331.71c.64-2.59,1.25-5.1,1.92-7.83,3.02,1.27,7.12-.87,10.09,3.19-5.21-.59-8.57,2.22-12.01,4.64Z"/>
      <path class="cls-9" d="M322.77,330.62c3.08-2.75,6.65-3.4,8.57-1.82,1.51,1.25,1.75,3.4.47,6.13-2.27-3.09-4.98-5.19-9.04-4.31Z"/>
      <path class="cls-9" d="M265.14,319.75c.02,3.14.36,6.34-.11,9.4-.18,1.17-2.21,2.07-3.9,3.52-.21-5.12,2.18-8.88,2.92-13.05.36.04.72.09,1.09.13Z"/>
      <path class="cls-9" d="M333.92,324.45c3.89,4.46,3.68,8.44.17,9.75-.48-1.93-1.21-3.86-1.37-5.84-.09-1.17.71-2.42,1.21-3.91Z"/>
      <path class="cls-9" d="M271.94,324.26c-1.6,1.65-3.21,3.3-4.93,5.06-1.63-3.34-1.39-3.95,1.53-4.92.92-.3,1.84-.58,2.76-.87.21.24.42.49.63.73Z"/>
      <path class="cls-2" d="M258.38,335.23c1.28.74,2.46,1.42,3.37,1.95-2.65,2.27-5.31,4.56-8.26,7.1,2.11-3.01,6.16-4.56,4.89-9.05Z"/>
      <path class="cls-9" d="M329.43,321.56c-.36-1.27-.72-2.54-1.08-3.81,1.65.84,2.6,1.92,1.86,3.61-.26.07-.52.13-.78.2Z"/>
      <path class="cls-9" d="M326.64,316.6c.8,2.31,1.51,4.36,2.13,6.15-1.61-1.21-2.32-3.01-2.13-6.15Z"/>
    </g>
    <g>
      <path class="cls-3" d="M1014.62,447.84v1.42c-.59-1.1-1.22-.2-1.67.07-6.07,3.65-12.23,7.11-19.3,8.44-1.51.28-1.44,1.3-1.6,2.32-.9,5.96-2.44,11.76-4.44,17.42-8.04,22.71-21.31,41.1-43.42,52.08-9.58,4.76-19.83,7.36-30.35,9-.62.1-2.69-1.04-1.93,1.34h-21.96c-.68-1.19-.69-1.14-2.48-1.43-13.97-2.22-26.78-7.12-37.73-16.32-1.34-1.13-2.54-2.5-4.03-3.38-5.44-3.21-10.1-7.32-14.23-12.05-12.15-13.9-18.41-30.42-21.58-48.34-.79-4.46-4.41-6.77-7.79-9.17v-2.13c2.83-.19,11.98-7.03,12.65-9.42.15-.54.11-1.01-.41-1.12-4.2-.89-2.44-3.93-1.99-6.11,4.82-23.03,17.92-40.39,37.08-53.49,1.64-1.12,2.58-2.36,3.22-4.31,4.97-15.1,14.96-24.47,31.08-26.61,1.15-.15,2.29-.12,3.26-1.05,4.02-3.81,8.83-6.21,14.12-7.72.69-.2,1.76-.2.85-1.39h18.42c-1,.99.07,1.1.61,1.29,2.93,1.05,5.88.95,8.98.65,8.73-.85,16.4,1.6,21.89,8.77,1.73,2.26,3.66,3.7,6.21,4.8,16.41,7.08,22.26,18.36,18.58,35.87-.33,1.57.24,2.03,1.27,2.78,9.33,6.74,15.57,15.04,13.46,27.41-.17,1.01.39,1.5,1.07,2.02,5.04,3.86,7.98,9.14,10.24,14.93,1.32,3.39,2.65,6.86,5.2,9.55,1.81,1.91,3.54,4.21,6.71,3.87ZM815.58,460.79c.38,8.3,7.03,25.31,13.76,35.32,11.97,17.81,28.23,26.62,50.14,24.84,25.36-2.07,45.64-19.61,50.6-44.59.42-2.11.29-3-2.29-2.69-9,1.08-17.16,4.15-24.34,9.7-5.61,4.34-5.82,4.38-11.34-.17-1.09-.9-2.25-1.79-3.09-2.9-1.28-1.69-2.16-1.34-3.61-.09-7.95,6.87-17.45,9.57-27.76,9.83-1.11.03-2.57.41-2.8-1.32-.89-6.71-4.36-12.75-5.16-19.45-.31-2.6-1.32-2.97-3.57-2.82-10.5.7-20.73-.32-30.53-5.64ZM921.8,423.73c3.66-.84,6.66-1.39,9.58-2.23,16.31-4.7,29.53-13.77,37.88-28.72,8.66-15.48,3.89-29-12.14-36.45-1.49-.69-3.02-1.33-4.58-1.85-.95-.31-1.67-.72-2.17-1.62-5.01-8.92-13.09-10.88-22.42-9.63-1.83.25-3.41.09-5.13-.47-12.17-3.97-23.29-2.21-32.99,6.42-1.35,1.2-2.66,1.59-4.4,1.67-15.85.76-29.42,15-29.4,31.01,4.97-3.27,10.43-4.54,16.17-4.45,1.75.03,2.77-.56,3.93-1.73,5.64-5.71,12.36-9.33,20.43-10.31,4.29-.52,9.16-2.66,12.84-5.11,3.33-2.22,7.02-3.97,9.61-7.13,1.28-1.57,2.2-1.37,3.72-.28,5.83,4.21,11.84,8.16,18.1,11.73,3.74,2.13,6.81,5.07,9.18,8.68,6.42,9.78,5.43,19.74-2.83,27.97-3.37,3.35-7.18,6.06-11.6,7.95-6.38,2.71-10.7,7.51-13.77,14.55ZM860.13,524.48c.66.59.94.99,1.32,1.16,15.72,6.92,32.09,9.9,49.29,8.73,38.35-2.6,72.59-35.51,76.65-73.88.19-1.84-.06-2.63-2.12-2.47-2.94.23-5.9.35-8.84.26-2.03-.06-2.86.4-2.99,2.67-.27,4.84-1.25,9.61-2.78,14.2-7.78,23.39-21.15,41.82-45.37,50.36-10.37,3.66-21.1,5.04-32.14,4.16,4.91-1.62,9.83-3.07,14.52-5.2,21.23-9.62,33.93-25.94,38.58-48.73.61-3.01-.26-2.86-2.88-2.99-6.52-.32-9.56,2.52-9.92,8.79-.03.46-.22.92-.36,1.37-6.31,19.88-18.59,33.93-39.11,39.85-10.98,3.17-22.18,2.96-33.85,1.7ZM927.17,447.05c-9.52-14.88-27.18-22.92-43.78-19.91-10.52,1.91-20.85,2.3-31.01-1.64-.1-.04-.32.22-.54.39,2.47,5.1,4.13,10.42,5.19,16.04,2.09,11.16,11.24,17.48,22.53,16.22,4.07-.45,7.8-1.73,11.3-3.81,5.34-3.18,11.1-5.08,17.24-6.02,6.19-.95,12.42-1.19,19.08-1.27ZM968.08,440.01c-13.59,9.63-19.24,11.38-36.09,11.33-5.66-.02-11.33-.15-16.98.12-8.58.41-16.8,2.18-24.05,7.21-1.81,1.26-2.63,2.66-2.77,4.9-.48,7.36,2.56,12.96,8,17.62,1.46,1.25,2.27,1.23,3.75.03,7.4-5.99,15.87-9.68,25.29-10.97,4.31-.59,8.68-.78,13.03-1.16,19.38-1.71,29.05-11.03,29.81-29.08ZM938.16,445.71c10.86,1.87,19.84-.59,26.75-8.93,3.38-4.08,6.44-8.44,9.67-12.65,2.85-3.72,6.11-6.97,10.92-7.92,2-.4,1.99-1.55,1.89-3.07-.54-8.06-4.82-13.81-11.08-18.46-1.77-1.31-2.51-1.22-3.62.8-4.97,8.99-11.99,16.17-20.97,21.03-5.11,2.76-7.88,5.57-7.21,11.98.65,6.21-2.64,11.8-6.34,17.23ZM872.13,381.18c-8.96-.65-15.48,3.21-20.26,10.36-4.65,6.95-6.17,14.93-7.24,23.04-.19,1.43.46,2.14,1.57,2.8,11.22,6.68,23.2,8.85,36.03,6.22,1.98-.4,2.64-1.17,2.38-3.35-.38-3.14-.35-6.36-.17-9.53.11-1.82-.5-2.66-1.99-3.59-11.3-7.03-13.74-13.16-10.32-25.96ZM838.83,462.23c9.2.06,9.15.04,11.67-6.36,4.21-10.67,2.1-20.51-3.62-30-1.19-1.97-2.37-2.45-4.57-1.79-9.2,2.76-16.79,7.88-22.89,15.23-2.34,2.82-4.6,5.76-7.65,7.79-2.7,1.79-1.91,3-.04,4.71,8.31,7.58,18.41,10.06,27.1,10.42ZM1004.76,448.56c-4.3-5.49-6.57-11.6-9.21-17.5-1.63-3.67-4.14-6.51-7.15-9.06-1.51-1.28-2.79-1.29-4.43-.28-4.32,2.67-7.56,6.32-10.26,10.56-1.18,1.86-1.73,3.7-1.41,5.98.6,4.26.04,8.49-1.53,12.51-.65,1.65-.71,2.48,1.39,2.83,11.29,1.9,22.01.36,32.6-5.03ZM919.46,522.8c21.87-.13,54.8-44.4,48.02-64.66-3.74,5.07-8.52,8.83-14.02,11.63-1.79.91-2.43,2-2.71,4-2.99,20.96-14.24,36.69-31.29,49.03ZM915.87,429.78c1.18-9.64,6.11-16.58,13.94-21.71,4.83-3.16,9.82-6.1,14.15-9.97,5.02-4.47,6.83-10.01,5.49-16.57-1.39-6.82-8.89-14.88-14.66-15.7,1.02,1.73,2.11,3.36,2.99,5.11,1.89,3.72,3.26,7.58,2.74,11.87-.67,5.5-3.64,9.57-7.86,12.93-5.38,4.28-11.67,7.11-17.25,11.05-5.39,3.81-8.72,8.82-9.7,15.38-.23,1.55-.14,2.6,1.6,3.33,2.8,1.18,5.46,2.7,8.57,4.27ZM853.14,465.01c.09.8.23,2.32.43,3.84.74,5.42,3.9,10.13,4.56,15.58.19,1.53,1.53,1.24,2.52,1.23,9.3-.08,17.27-3.31,23.72-10.09.54-.57,1.38-1.07.95-2.08-1.37-3.15-1.07-6.48-1.05-9.77,0-1.51-.37-2.09-2.04-1.83-9.51,1.48-17.79-.85-24.35-8.17-1.09-1.21-1.65-.87-2.3.34-1.72,3.2-2.39,6.63-2.45,10.95ZM850.73,382.52c-14.48,6.88-33.67,36.53-33.49,52.03,5.95-5.83,12.43-10.53,20.06-13.25,2.89-1.03,3.61-2.56,3.66-5.34.17-9.39,2.45-18.25,8.02-25.94,1.75-2.42,2.15-4.73,1.75-7.51ZM911,404.84c6.46-4.04,12.47-7.66,18.33-11.48,7.68-5.01,9.34-11.83,4.9-19.78-3.24-5.79-7.55-10.81-11.76-15.9-1.16-1.4-1.74-.96-2.62.18-1.76,2.29-3.97,3.98-6.79,4.84-1.88.58-3.19,1.98-4.26,3.57-1.95,2.9-1.65,3.58,1.66,4.38,5.3,1.28,10.49,2.89,14.49,6.87,4.55,4.53,4.17,9.42-1,13.12-2.49,1.78-5.17,3.3-7.62,5.12-2.8,2.08-4.75,4.78-5.34,9.08ZM900.02,406.42c-7-4.68-13.54-9.77-12.82-19.19.72-9.41,7.99-13.46,16.38-17.4-8.49-.78-15.46.84-21.77,4.91-10.13,6.54-10.27,20.44-.31,27.26,5.54,3.8,11.86,4.58,18.53,4.41ZM892.27,385.09c-2.36,7.64,5.08,17.58,14.42,19.44.07-3.8,1.17-7.17,4.08-9.8,1.69-1.53,3.82-2.31,5.75-3.41,2.36-1.35,4.75-2.67,6.39-4.92,2.04-2.8.47-4.73-1.56-6.69-2.38-2.29-2.99.19-4.21,1.31-1.56,1.43-3.11,2.91-4.87,4.06-7.73,5.06-13.75,5.07-20,0ZM940.24,428.89c0-1.33.01-1.8,0-2.27-.14-3.95-.18-3.98-3.99-2.6-4.11,1.5-8.32,2.69-12.65,3.2-2.19.26-2.87,1.05-2.44,3.15,1.4,6.79,5.71,11.16,11.59,14.33,1.42.77,1.89-.11,2.46-1.05,2.93-4.81,4.86-9.94,5.02-14.77ZM905.15,411.17c-5.26-.18-9.97.33-14.59-.81-1-.25-1.59.09-1.58,1.2.03,3.51-.79,7.46.84,10.37,1.15,2.05,4.99.78,7.61,1.16.7.1,1.42.07,2.1.23,1.1.25,1.76.15,1.85-1.23.25-3.78,1.63-7.23,3.78-10.92ZM916.06,376.54c-6.35-2.04-12.19-3.18-17.87.49-1.52.98-2.78,2.35-2.24,4.37.51,1.89,2.05,2.82,3.84,3.23,2.03.47,4.02-.02,5.8-.93,3.64-1.86,6.89-4.31,10.47-7.16Z"/>
      <path class="cls-2" d="M815.58,460.79c9.8,5.33,20.03,6.34,30.53,5.64,2.26-.15,3.26.22,3.57,2.82.8,6.69,4.26,12.74,5.16,19.45.23,1.74,1.69,1.35,2.8,1.32,10.32-.26,19.81-2.96,27.76-9.83,1.45-1.25,2.33-1.6,3.61.09.84,1.11,2,2,3.09,2.9,5.52,4.56,5.73,4.51,11.34.17,7.18-5.55,15.34-8.62,24.34-9.7,2.58-.31,2.71.59,2.29,2.69-4.97,24.98-25.24,42.53-50.6,44.59-21.91,1.78-38.16-7.02-50.14-24.84-6.73-10.01-13.38-27.02-13.76-35.32Z"/>
      <path class="cls-9" d="M921.8,423.73c3.08-7.04,7.39-11.83,13.77-14.55,4.42-1.88,8.23-4.59,11.6-7.95,8.26-8.22,9.25-18.19,2.83-27.97-2.37-3.61-5.44-6.55-9.18-8.68-6.26-3.58-12.26-7.53-18.1-11.73-1.52-1.1-2.44-1.29-3.72.28-2.59,3.16-6.28,4.91-9.61,7.13-3.68,2.46-8.55,4.59-12.84,5.11-8.06.98-14.79,4.6-20.43,10.31-1.15,1.17-2.18,1.76-3.93,1.73-5.74-.09-11.2,1.18-16.17,4.45-.02-16,13.55-30.25,29.4-31.01,1.74-.08,3.06-.47,4.4-1.67,9.7-8.63,20.82-10.39,32.99-6.42,1.72.56,3.29.72,5.13.47,9.34-1.25,17.41.71,22.42,9.63.51.9,1.22,1.31,2.17,1.62,1.56.52,3.09,1.16,4.58,1.85,16.03,7.44,20.8,20.96,12.14,36.45-8.36,14.95-21.57,24.02-37.88,28.72-2.92.84-5.92,1.39-9.58,2.23Z"/>
      <path class="cls-2" d="M860.13,524.48c11.68,1.25,22.87,1.46,33.85-1.7,20.52-5.92,32.79-19.97,39.11-39.85.14-.45.33-.91.36-1.37.37-6.26,3.4-9.11,9.92-8.79,2.63.13,3.5-.02,2.88,2.99-4.65,22.78-17.35,39.11-38.58,48.73-4.69,2.12-9.61,3.58-14.52,5.2,11.03.88,21.77-.51,32.14-4.16,24.22-8.54,37.59-26.97,45.37-50.36,1.53-4.6,2.52-9.37,2.78-14.2.13-2.27.95-2.73,2.99-2.67,2.94.09,5.9-.03,8.84-.26,2.06-.16,2.32.63,2.12,2.47-4.06,38.37-38.29,71.27-76.65,73.88-17.21,1.17-33.58-1.81-49.29-8.73-.38-.17-.67-.57-1.32-1.16Z"/>
      <path class="cls-9" d="M927.17,447.05c-6.66.08-12.89.32-19.08,1.27-6.14.94-11.9,2.84-17.24,6.02-3.49,2.08-7.23,3.36-11.3,3.81-11.29,1.25-20.44-5.07-22.53-16.22-1.05-5.62-2.72-10.94-5.19-16.04.22-.17.44-.43.54-.39,10.16,3.94,20.49,3.54,31.01,1.64,16.6-3.01,34.26,5.04,43.78,19.91Z"/>
      <path class="cls-9" d="M968.08,440.01c-.76,18.04-10.44,27.37-29.81,29.08-4.34.38-8.71.57-13.03,1.16-9.43,1.29-17.9,4.98-25.29,10.97-1.48,1.2-2.29,1.22-3.75-.03-5.44-4.66-8.48-10.26-8-17.62.14-2.24.96-3.64,2.77-4.9,7.25-5.03,15.47-6.8,24.05-7.21,5.65-.27,11.32-.14,16.98-.12,16.85.05,22.5-1.69,36.09-11.33Z"/>
      <path class="cls-9" d="M938.16,445.71c3.7-5.44,6.98-11.03,6.34-17.23-.67-6.41,2.1-9.22,7.21-11.98,8.99-4.85,16.01-12.04,20.97-21.03,1.11-2.02,1.85-2.11,3.62-.8,6.26,4.65,10.55,10.4,11.08,18.46.1,1.53.11,2.68-1.89,3.07-4.81.95-8.07,4.2-10.92,7.92-3.23,4.22-6.29,8.57-9.67,12.65-6.91,8.34-15.89,10.8-26.75,8.93Z"/>
      <path class="cls-9" d="M872.13,381.18c-3.42,12.8-.98,18.92,10.32,25.96,1.49.93,2.09,1.78,1.99,3.59-.18,3.17-.21,6.39.17,9.53.26,2.17-.4,2.94-2.38,3.35-12.83,2.62-24.81.45-36.03-6.22-1.11-.66-1.75-1.37-1.57-2.8,1.06-8.11,2.59-16.1,7.24-23.04,4.78-7.14,11.31-11.01,20.26-10.36Z"/>
      <path class="cls-2" d="M838.83,462.23c-8.69-.37-18.79-2.84-27.1-10.42-1.87-1.71-2.66-2.91.04-4.71,3.05-2.03,5.31-4.97,7.65-7.79,6.1-7.36,13.69-12.47,22.89-15.23,2.2-.66,3.38-.19,4.57,1.79,5.73,9.49,7.83,19.32,3.62,30-2.52,6.41-2.47,6.43-11.67,6.36Z"/>
      <path class="cls-2" d="M1004.76,448.56c-10.59,5.39-21.31,6.93-32.6,5.03-2.1-.35-2.04-1.18-1.39-2.83,1.58-4.02,2.13-8.24,1.53-12.51-.32-2.28.23-4.12,1.41-5.98,2.7-4.24,5.94-7.89,10.26-10.56,1.64-1.01,2.92-1,4.43.28,3.01,2.55,5.52,5.4,7.15,9.06,2.63,5.9,4.9,12.01,9.21,17.5Z"/>
      <path class="cls-2" d="M919.46,522.8c17.05-12.34,28.3-28.07,31.29-49.03.28-2,.92-3.09,2.71-4,5.5-2.8,10.28-6.56,14.02-11.63,6.78,20.25-26.15,64.52-48.02,64.66Z"/>
      <path class="cls-9" d="M915.87,429.78c-3.1-1.57-5.76-3.1-8.57-4.27-1.74-.73-1.83-1.78-1.6-3.33.98-6.57,4.31-11.58,9.7-15.38,5.59-3.95,11.88-6.78,17.25-11.05,4.22-3.36,7.19-7.43,7.86-12.93.52-4.29-.85-8.15-2.74-11.87-.88-1.74-1.97-3.38-2.99-5.11,5.78.82,13.28,8.88,14.66,15.7,1.33,6.57-.47,12.11-5.49,16.57-4.34,3.86-9.33,6.81-14.15,9.97-7.83,5.13-12.76,12.06-13.94,21.71Z"/>
      <path class="cls-2" d="M853.14,465.01c.06-4.32.73-7.76,2.45-10.95.65-1.21,1.21-1.55,2.3-.34,6.56,7.32,14.85,9.65,24.35,8.17,1.66-.26,2.04.32,2.04,1.83-.01,3.29-.31,6.62,1.05,9.77.43,1-.4,1.5-.95,2.08-6.45,6.78-14.43,10.01-23.72,10.09-.99,0-2.33.3-2.52-1.23-.67-5.45-3.82-10.16-4.56-15.58-.21-1.52-.35-3.04-.43-3.84Z"/>
      <path class="cls-2" d="M850.73,382.52c.4,2.77,0,5.09-1.75,7.51-5.57,7.69-7.85,16.55-8.02,25.94-.05,2.78-.77,4.31-3.66,5.34-7.63,2.71-14.1,7.42-20.06,13.25-.18-15.51,19.01-45.16,33.49-52.03Z"/>
      <path class="cls-9" d="M911,404.84c.59-4.3,2.54-7,5.34-9.08,2.45-1.82,5.13-3.34,7.62-5.12,5.17-3.7,5.55-8.59,1-13.12-4.01-3.98-9.19-5.59-14.49-6.87-3.31-.8-3.61-1.48-1.66-4.38,1.07-1.59,2.37-2.99,4.26-3.57,2.82-.87,5.03-2.55,6.79-4.84.88-1.14,1.46-1.58,2.62-.18,4.21,5.09,8.52,10.11,11.76,15.9,4.44,7.95,2.78,14.77-4.9,19.78-5.86,3.83-11.87,7.45-18.33,11.48Z"/>
      <path class="cls-9" d="M900.02,406.42c-6.66.16-12.98-.62-18.53-4.41-9.96-6.82-9.83-20.72.31-27.26,6.31-4.08,13.28-5.7,21.77-4.91-8.39,3.94-15.66,7.99-16.38,17.4-.72,9.42,5.82,14.51,12.82,19.19Z"/>
      <path class="cls-9" d="M892.27,385.09c6.24,5.07,12.27,5.06,20,0,1.76-1.15,3.31-2.64,4.87-4.06,1.23-1.12,1.83-3.6,4.21-1.31,2.03,1.96,3.6,3.89,1.56,6.69-1.64,2.25-4.03,3.57-6.39,4.92-1.94,1.1-4.06,1.88-5.75,3.41-2.91,2.63-4.01,6-4.08,9.8-9.34-1.86-16.78-11.81-14.42-19.44Z"/>
      <path class="cls-9" d="M940.24,428.89c-.17,4.84-2.09,9.97-5.02,14.77-.57.93-1.04,1.81-2.46,1.05-5.88-3.17-10.2-7.54-11.59-14.33-.43-2.11.24-2.9,2.44-3.15,4.34-.51,8.54-1.7,12.65-3.2,3.8-1.38,3.84-1.35,3.99,2.6.02.47,0,.94,0,2.27Z"/>
      <path class="cls-9" d="M905.15,411.17c-2.15,3.68-3.53,7.14-3.78,10.92-.09,1.38-.75,1.48-1.85,1.23-.68-.16-1.4-.12-2.1-.23-2.62-.38-6.46.89-7.61-1.16-1.63-2.9-.81-6.85-.84-10.37-.01-1.12.58-1.45,1.58-1.2,4.62,1.14,9.33.63,14.59.81Z"/>
      <path class="cls-9" d="M916.06,376.54c-3.58,2.85-6.83,5.3-10.47,7.16-1.78.91-3.77,1.39-5.8.93-1.79-.41-3.34-1.34-3.84-3.23-.54-2.02.72-3.39,2.24-4.37,5.69-3.66,11.52-2.53,17.87-.49Z"/>
    </g>
  </g>
</svg>