<?xml version="1.0" encoding="UTF-8"?>
<svg id="Layer_1" data-name="Layer 1" xmlns="http://www.w3.org/2000/svg" xmlns:xlink="http://www.w3.org/1999/xlink" viewBox="0 0 1680.15 1107.56">
  <defs>
    <style>
      .cls-1, .cls-2, .cls-3 {
        fill: #231f20;
      }

      .cls-1, .cls-4 {
        font-size: 50.47px;
      }

      .cls-5 {
        fill: none;
      }

      .cls-6, .cls-4, .cls-7 {
        fill: #de393a;
      }

      .cls-6, .cls-3 {
        font-size: 50.33px;
      }

      .cls-8 {
        clip-path: url(#clippath-1);
      }

      .cls-9 {
        fill: #5e54a4;
      }

      .cls-10 {
        fill: #e8d4ac;
      }

      .cls-11 {
        clip-path: url(#clippath);
      }
    </style>
    <clipPath id="clippath">
      <ellipse class="cls-5" cx="1258.33" cy="492.84" rx="257.38" ry="249.39"/>
    </clipPath>
    <clipPath id="clippath-1">
      <ellipse class="cls-5" cx="354.6" cy="499.96" rx="257.38" ry="249.39"/>
    </clipPath>
  </defs>
  <rect class="cls-10" x="820.6" width="859.56" height="1107.56"/>
  <g>
    <path class="cls-9" d="M1322.67,707.66c-.86-.22-1.05-.72-.58-1.47.86.22,1.05.72.58,1.47Z"/>
    <path class="cls-9" d="M1319.98,725.9c-.86-.22-1.05-.72-.58-1.47.86.22,1.05.72.58,1.47Z"/>
    <path class="cls-9" d="M1319.91,731.95c.19-.88.67-1.06,1.4-.56-.19.88-.67,1.06-1.4.56Z"/>
    <path class="cls-9" d="M1305.59,733.38c-.37-1.57.36-2.69,1.22-3.77,1.05.45,1.31,1.28,1.11,2.64-.68.33-1.49.73-2.32,1.13Z"/>
    <path class="cls-9" d="M1297.61,738.26c-.37-1.57.36-2.69,1.22-3.77,1.05.45,1.31,1.28,1.11,2.64-.68.33-1.49.73-2.32,1.13Z"/>
    <path class="cls-9" d="M1307.94,739.32c-.37-1.57.36-2.69,1.22-3.77,1.05.45,1.31,1.28,1.11,2.64-.68.33-1.49.73-2.32,1.13Z"/>
    <path class="cls-9" d="M1296.6,741.76c-.84,2.64-1.7,3.12-3.08,2.52-.06-1.78,1.58-1.34,3.08-2.52Z"/>
    <path class="cls-9" d="M1303.81,728.87c.76,2.27-1.27,1.96-2.27,2.61-.76-2.27,1.27-1.96,2.27-2.61Z"/>
    <path class="cls-9" d="M1302.64,755.1c-.76-2.27,1.27-1.96,2.27-2.61.76,2.27-1.27,1.96-2.27,2.61Z"/>
    <path class="cls-9" d="M1300.4,764.45c-1.3-.68-1.92-2.12-.87-2.82,1.34-.88.73,1.23,1.38,1.73.06.04-.32.69-.51,1.08Z"/>
    <path class="cls-9" d="M1302.17,722.64c-.86-.22-1.05-.72-.58-1.47.86.22,1.05.72.58,1.47Z"/>
    <path class="cls-9" d="M1295.81,729.47c.19-.88.67-1.06,1.4-.56-.19.88-.67,1.06-1.4.56Z"/>
    <path class="cls-9" d="M1304.66,726.82c-.4-.66-.27-1.24.32-1.65.1-.07.57.15.59.27.12.74-.18,1.24-.92,1.38Z"/>
    <path class="cls-9" d="M1303.81,728.87c-.44-1.01-.16-1.7.84-2.05.44,1.01.16,1.7-.84,2.05Z"/>
    <path class="cls-9" d="M1292.15,736.92c-.4-.66-.27-1.24.32-1.65.1-.07.57.15.59.27.12.74-.18,1.24-.92,1.38Z"/>
    <path class="cls-9" d="M1301.54,731.5c.4.66.27,1.24-.32,1.65-.1.07-.57-.15-.59-.27-.12-.74.18-1.24.92-1.38Z"/>
    <path class="cls-9" d="M1292.14,736.93c.44,1.01.16,1.7-.84,2.05-.44-1.01-.16-1.7.84-2.05Z"/>
    <path class="cls-9" d="M1305.57,733.34c.4.66.27,1.24-.32,1.65-.1.07-.57-.15-.59-.27-.12-.74.18-1.24.92-1.38Z"/>
    <path class="cls-9" d="M1297.6,738.2c.44,1.01.16,1.7-.84,2.05-.44-1.01-.16-1.7.84-2.05Z"/>
    <path class="cls-9" d="M1303.59,736.69c-.19.88-.67,1.06-1.4.56.19-.88.67-1.06,1.4-.56Z"/>
    <path class="cls-9" d="M1295.92,742.3c-.44-1.01-.16-1.7.84-2.05.44,1.01.16,1.7-.84,2.05Z"/>
    <path class="cls-9" d="M1301.5,741.8c-.86-.22-1.05-.72-.58-1.47.86.22,1.05.72.58,1.47Z"/>
    <path class="cls-9" d="M1303.36,740.22c.19-.88.67-1.06,1.4-.56-.19.88-.67,1.06-1.4.56Z"/>
    <path class="cls-9" d="M1307.93,739.28c.4.66.27,1.24-.32,1.65-.1.07-.57-.15-.59-.27-.12-.74.18-1.24.92-1.38Z"/>
    <path class="cls-9" d="M1303.38,744.5c-.63.4-1.2.24-1.61-.38-.07-.1.13-.59.25-.6.71-.1,1.21.22,1.37.98Z"/>
    <path class="cls-9" d="M1304.83,743.93c-.4-.66-.27-1.24.32-1.65.1-.07.57.15.59.27.12.74-.18,1.24-.92,1.38Z"/>
    <path class="cls-9" d="M1303.39,744.5l1.43-.56c.44,1.01.16,1.7-.84,2.05l-.59-1.48Z"/>
    <path class="cls-9" d="M1303.98,745.99c.4.66.27,1.24-.32,1.65-.1.07-.57-.15-.59-.27-.12-.74.18-1.24.92-1.38Z"/>
    <path class="cls-9" d="M1300.88,750.64c-.4-.66-.27-1.24.32-1.65.1-.07.57.15.59.27.12.74-.18,1.24-.92,1.38Z"/>
    <path class="cls-9" d="M1300.87,750.65c.44,1.01.16,1.7-.84,2.05-.44-1.01-.16-1.7.84-2.05Z"/>
    <path class="cls-9" d="M1300.03,752.7c.44,1.01.16,1.7-.84,2.05-.44-1.01-.16-1.7.84-2.05Z"/>
    <path class="cls-9" d="M1304.91,752.48c-.4-.66-.27-1.24.32-1.65.1-.07.57.15.59.27.12.74-.18,1.24-.92,1.38Z"/>
    <path class="cls-9" d="M1299.19,754.75c.44,1.01.16,1.7-.84,2.05-.44-1.01-.16-1.7.84-2.05Z"/>
    <path class="cls-9" d="M1297.51,758.85c-.44-1.01-.16-1.7.84-2.05.44,1.01.16,1.7-.84,2.05Z"/>
    <path class="cls-9" d="M1301.8,757.15c-.44-1.01-.16-1.7.84-2.05.44,1.01.16,1.7-.84,2.05Z"/>
    <path class="cls-9" d="M1300.96,759.2c-.44-1.01-.16-1.7.84-2.05.44,1.01.16,1.7-.84,2.05Z"/>
    <path class="cls-9" d="M1300.12,761.25c-.44-1.01-.16-1.7.84-2.05.44,1.01.16,1.7-.84,2.05Z"/>
    <path class="cls-9" d="M1585.8,636.17l-1.43.56-1.18-2.97c1.17-.2,2.44-1.82,3.44.36-1,.35-1.28,1.04-.84,2.05Z"/>
    <path class="cls-9" d="M1580.85,627.82l.59,1.48c-.67.33-1.36.43-1.52-.54-.04-.26.6-.63.93-.95Z"/>
    <path class="cls-9" d="M1582.61,632.28l.59,1.48c-.67.33-1.36.43-1.52-.54-.04-.26.6-.63.93-.95Z"/>
    <path class="cls-9" d="M1584.37,636.73l.59,1.48c-.67.33-1.36.43-1.52-.54-.04-.26.6-.63.93-.95Z"/>
    <path class="cls-9" d="M1585.55,639.7c.44,1.01.16,1.7-.84,2.05-.44-1.01-.16-1.7.84-2.05Z"/>
    <path class="cls-9" d="M1579.72,643.74c.86.22,1.05.72.58,1.47-.86-.22-1.05-.72-.58-1.47Z"/>
    <path class="cls-9" d="M1584.71,641.75c.44,1.01.16,1.7-.84,2.05-.44-1.01-.16-1.7.84-2.05Z"/>
    <path class="cls-9" d="M1578.44,646.81c-.19.88-.67,1.06-1.4.56.19-.88.67-1.06,1.4-.56Z"/>
    <path class="cls-9" d="M1583.87,643.8l.59,1.48c-.67.33-1.36.43-1.52-.54-.04-.26.6-.63.93-.95Z"/>
    <path class="cls-9" d="M1581.88,647.17c-.19.88-.67,1.06-1.4.56.19-.88.67-1.06,1.4-.56Z"/>
    <path class="cls-9" d="M1586.47,646.21l-1.43.56-.59-1.48c.97-.43,1.64-.12,2.02.92Z"/>
    <path class="cls-9" d="M1585.05,646.77l.59,1.48c-.67.33-1.36.43-1.52-.54-.04-.26.6-.63.93-.95Z"/>
    <path class="cls-9" d="M1528.96,480.04l1.43-.56c.34.7.46,1.42-.48,1.55-.26.04-.63-.64-.95-.99Z"/>
    <path class="cls-9" d="M1493.69,536.92c-.4-.66-.27-1.24.32-1.65.1-.07.57.15.59.27.12.74-.18,1.24-.92,1.38Z"/>
    <path class="cls-9" d="M1489.41,538.62c-.4-.66-.27-1.24.32-1.65.1-.07.57.15.59.27.12.74-.18,1.24-.92,1.38Z"/>
    <path class="cls-9" d="M1493.64,532.66c-.19.88-.67,1.07-1.41.56.19-.88.67-1.07,1.41-.56Z"/>
    <path class="cls-9" d="M1285.68,749.79l1.43-.56,1.15,2.9c-2.39.31-1.91-1.54-2.57-2.33Z"/>
    <path class="cls-9" d="M1290.63,758.14l.59,1.48-1.43.56c-.44-1.01-.16-1.7.84-2.05Z"/>
    <path class="cls-9" d="M1491.51,548.1l-1.43.56c-.44-1.01-.16-1.7.84-2.05l.59,1.48Z"/>
    <path class="cls-9" d="M1486.64,548.3c-.4-.66-.27-1.24.32-1.65.1-.07.57.15.59.27.12.74-.18,1.24-.92,1.38Z"/>
    <path class="cls-9" d="M1490.67,550.15l-1.43.56c-.44-1.01-.16-1.7.84-2.05l.59,1.48Z"/>
    <g>
      <path class="cls-9" d="M1490.99,547.92c.16.02.32.08.51.18-.17-.09-.33-.18-.5-.27,0,.03,0,.06-.01.08Z"/>
      <path class="cls-9" d="M1298.61,756.17c-.1.25-.2.49-.3.73.01-.03.02-.05.03-.08.11-.26.21-.51.31-.76-.02.04-.03.07-.05.11Z"/>
      <path class="cls-9" d="M1299.16,754.88c-.06.04-.1.07-.11.08-.05.2-.11.38-.18.57,0-.02.01-.04.02-.05-.01.03.32-.55.3-.51,0,.01-.02-.03-.04-.08Z"/>
      <path class="cls-9" d="M1290.65,759.41c.19.07.38.15.57.22-.24-.07-.41-.17-.54-.29,0,.02-.02.05-.03.07Z"/>
      <path class="cls-9" d="M1490.13,549.97c.16.02.34.07.54.18-.16-.09-.32-.17-.48-.26-.02.03-.04.05-.06.07Z"/>
      <polygon class="cls-9" points="1291.27 738.79 1291.3 738.98 1291.45 738.86 1291.27 738.79"/>
      <path class="cls-9" d="M1585.2,635.89c.18.03.37.12.6.28-.19-.26-.38-.52-.57-.78,0,.17-.01.34-.03.5Z"/>
      <path class="cls-9" d="M1585.23,634.96s0,0,0,.01c.09-.24.2-.43.36-.57-.17,0-.33.02-.49,0,.07.18.12.36.14.56Z"/>
      <path class="cls-9" d="M1437.05,395.63c-1.68.5-3.53.78-5.69.03-2.05-4.29-7.16-7.04-8.3-12.37,2.04-1.43,4.2-2.36,6.46-3.05-1.04-1.87-2.14-3.72-3.29-5.52-5.06,1.86-10.04,3.95-15.05,5.94-1.42.56-3.23.76-4.2,1.78-3.25,3.43-7.39,5.39-11.26,7.83-2.62,1.65-5.09,3.58-7.46,5.59-1.09.92-2.18,1.86-3.26,2.79.07,2.78-.14,5.53-.58,8.25,3.37-2.76,7.06-5.21,10.51-8.19,4.09,2.29,7.68,5.14,11.62,8.58-2.11,1.79-3.95,3.52-5.96,5.01-1.95,1.44-4.71,1.11-6.37,3.62-1.56,2.35-4.89,2.27-7.16,3.54-2.15-.84-3.56-2.22-4.94-3.56-.27.78-.56,1.56-.86,2.34,1.43.85,2.76,1.87,3.93,3.29-2.98,2.33-5.85,4.82-8.85,7.1-1.81,3.28-3.8,6.46-5.86,9.55,1.92-.81,3.66-1.41,4.95-2.55,3.5-3.09,7.46-5.32,11.33-7.8,3.14-2.02,7.28-2.94,9.4-5.5,2.44-2.94,6.46-2.37,8.12-4.89,2.18-3.3,5.64-3.08,8.36-4.7,2.72-1.62,6.38-1.45,8.2-4.88.47-.89,2.24-1.26,3.47-1.41,1.5-.17,3.06,1.5,4.45-.96.7-1.23,3.31-.16,5.1-1.07,1.9-.97,3.85-1.77,5.83-2.46-.84-2.12-1.72-4.23-2.64-6.33ZM1426.22,379c-.19.88-.67,1.07-1.41.56.19-.88.67-1.07,1.41-.56ZM1413.37,384.08c-.19.88-.67,1.07-1.41.56.19-.88.67-1.07,1.41-.56ZM1401.55,389.63c.86.22,1.05.71.58,1.46-.86-.22-1.05-.71-.58-1.46ZM1428.72,399.29c-6.24,2.47-12.59,4.98-18.91,7.49-4.27-1.71-6.52-6.04-10.77-8.81,5.09-6.96,12.75-9.02,19.67-11.53,5.09,2.44,6.6,7.75,11.02,10.06-.29.81-.62,1.7-1.01,2.79Z"/>
      <path class="cls-9" d="M1592.85,642.31c-1.5-6.44-2.18-13.35-5.65-19.33-.26-.45-.69-1.12-.55-1.46,1.55-3.73-2.06-6.44-2.04-9.62.02-3.8-1.47-6.96-2.56-10.36-1.49-4.63-4.53-8.75-4.1-14.06.15-1.87-.89-4.74-2.31-5.75-2.85-2.03-3.07-5.26-4.15-6.88-5.37-4.78-9.7-9.28-15.09-12.32-10.32-5.83-21.15-7.96-32.8-6.66-9.12,1.02-18.38,1.61-27.6-.4-.73-2.45.51-4.46,1.6-5.89,3.64-4.74,7.16-9.85,11.73-13.5,8.74-6.99,14.89-16.04,19.59-25.92,4.45-9.34,8.92-18.8,10.23-29.64.94-7.76.88-15.42-1.07-22.74-2.34-8.76-6.28-17.03-8.65-25.93-2.51-9.44-6.98-18.39-10.65-27.52-.47-1.17-.82-2.34-1.74-3.42-9.17-10.8-19.05-20.36-32.36-25.82-.48-.2-.97-.38-1.45-.58,1.03,2.04,1.94,4.16,2.81,6.33,8.8,4.23,15.75,9.61,20.56,18.12-.68,1.13-1.73,1.74-2.53.89-3.13-3.3-6.93-4.45-11.18-5.33-.72-.15-1.43-.39-2.14-.68.72,2.21,1.41,4.44,2.03,6.68.35.12.7.23,1.04.36,5.19,1.99,10.32,3.72,14.68,7.22,4.38,3.51,8.5,7.08,11.88,12.03,6.97,10.21,9.66,21.46,9.02,33.69-.35,6.63-1.13,13.2-2.76,19.8-3.13,12.65-8.78,23.72-17.63,32.43-5.89,5.8-11.77,11.84-18.55,16.72-3.4,2.45-5.99,5.43-7.69,9.62-1.65,4.09-1.59,8.34-2.38,12.72,1.07,2.72,1.89,5.91,3.52,8.6,1.89,3.12.65,6.53,1.99,9.69,3.33,7.82,6.32,15.78,9.11,22.82,7.95,7.95,16.86,8.41,25.96,6.73,1.79-.33,3.36.46,5.04-.04,1.87-.56,3.51-1.54,5.69-1.62,5.33-.19,10.47.76,15.7,1.61,6.09,1,11.74,3.31,17.03,6.32,3.97,2.26,8.12,5.01,8.97,10.56-1.98,3.29-4.67,5.94-7.47,8.64-5.39,5.19-12.7,5.86-18.92,9.02-.31.16-.97-.51-1.4-.44-7.98,1.26-15.86-.86-23.48-2.53-10.02-2.2-20.01-1.88-30-2.63-8.59-.64-17.14.57-25.7,1.19-4.12.3-8.15,1.23-12.02,2.01-3.31.66-6.85.52-10.09,1.82-3.17,1.27-6.22,2.52-9.96,2.55-3.37.03-6.82,2.08-9.96,3.76-3.2,1.72-6.76.5-10.09,2.02-8.38,3.81-17.14,6.75-25.61,10.36-8.29,3.53-17.12,5.75-24.63,11.24-4.14,3.02-9.39,4.11-13.9,7.03-5.69,3.69-11.62,7.18-17.55,10.5-5.12,2.87-9.01,7.52-14.56,9.59-8.65,9.19-19.4,16.05-26.73,26.8-4.65,6.82-9.89,13.24-12.04,21.41-1.96,7.41-2.83,15.15.14,22.71,9.32,23.79,18.75,47.54,28.23,71.26.73,1.82,1.59,3.57,2.93,5.3,5.48,7.03,12.18,11.76,20.16,15.21,6.34,2.74,12.61,3.5,19.3,3.27,5.15-.18,10.03-1.73,15-2.12,7.06-.55,13.95-2.07,20.59-3.81,9.35-2.46,18.03-7.25,27.24-10.34,9.13-3.06,16.57-9.6,25.9-12.1.48-.13,1.23-.28,1.34-.62,1.11-3.35,4.33-3.4,6.8-4.17,2.77-.86,3.68-3.9,6.6-4.59,4.34-1.03,7.04-5.56,11.7-6.22,1.37-3.33,4.71-3.51,7.41-4.58,2.78-1.11,4.33-3.76,7.31-4.84,12.5-4.55,24.8-9.65,37.17-14.54.95-.38,1.89-1.06,2.86-1.08,6.74-.18,13.16-2.36,19.82-3.12-1.41-6.27-.86-13.34-5.86-18.33-1,1,2,1,1,2,1-1-2-1-1-2v-.26s-.07-.04-.11-.06c-4.11-10.38-8.28-20.92-12.32-31.12.06-.6.19-1.11.36-1.54-2.17-6.37-3.97-13.18-6.78-19.52-11.4-2.4-22.27,1.25-32.96,3.46-9.43,1.95-19.08,4.42-27.96,8.81-5.26,2.6-10.79,4.77-16.4,6.5-10.92,3.38-20.33,9.99-30.91,14.04-.48.18-1.24.24-1.38.59-1.13,2.75-3.7,3.57-6.03,3.93-3.08.47-4.12,3.48-6.64,4.51-4.11,1.67-8.61,2.65-11.68,6.32-8.24,2.44-14.73,8.62-23.07,10.91-3.19.88-6.32,2.16-9.27,3.66-8.75,4.46-18.2,5.6-27.85,5.76-3.65.06-7.42.19-11.14-1.75,6.29-9.83,12.52-19.09,20.77-26.55,5.32-4.81,10.18-10.19,16.95-13.32,3.24-1.5,7.01-3.2,9.34-5.58,2.58-2.62,5.53-3.37,8.42-4.53,3.05-1.22,4.51-4.8,8.05-5.07.74-.06,1.42-.55,2.15-.81,29.98-10.71,58.35-25.81,89.87-32.39,4.26-.89,8.9-.95,12.9-3.13,3.02,1.75,5.6-.8,8.56-.74,8.56.17,17.11-.66,25.68-.72,5.69-.04,11.51.48,17.07,1.29,5.7.83,11.5.91,17.15,2.26,6.19,1.49,11.74-2.37,17.83-1.89,9.94-3.77,18.72-8.6,25.11-18.16,4.84-7.23,4.92-14.59,3.22-21.91ZM1509.88,402.16c-.64-1.62-1.49-3.76-2.43-6.14,6.97,5,9.72,8.43,11.41,14.3-3-2.72-5.8-5.27-8.99-8.16ZM1582.27,620.58c.1-.07.57.15.59.27.12.74-.18,1.24-.92,1.38-.4-.66-.27-1.24.32-1.65ZM1577.7,613.62c.86.22,1.05.72.58,1.47-.86-.22-1.05-.72-.58-1.47ZM1526.15,558.45c.86.22,1.05.72.58,1.47-.86-.22-1.05-.72-.58-1.47ZM1520.87,559.67c-.54,1.46-1.49,1.84-2.88,1.14.54-1.46,1.49-1.84,2.88-1.14ZM1532.23,463.24c-.38-.65-.25-1.22.34-1.62.1-.07.57.15.59.27.12.74-.18,1.24-.92,1.38,0,0,0-.02-.01-.03.38,1.69,1.36,2.76,2.92,3.25,1.6,1.47-.82,2.83.05,4.38.73,1.3,1.15,2.79,1.79,4.4-2.68,0-2.02-3.67-4.2-2.56-1.4-2.08.75-3.74-.56-5.59-.66-.93-2.15-2.66,0-3.89ZM1528.96,480.04c-.34-.7-.46-1.42.48-1.55.26-.04.63.64.95.99,2.4-.62-.29-2.83,1.5-4.12.89,2.66,2.98,4.68,2.39,7.8-.89,4.72-.54,9.87-4.23,14.23-2.46-2.63-2.81-5.81-4.06-8.12,1.06-3.27,2.02-6.25,2.98-9.23ZM1518.65,501.49c3.28-2.51,2.22-7.47,5.82-9.54,4.44,2.79.92,8.04,3.78,11.07-3.44,9.42-5.7,13.07-10.98,17.61-1.27-3.21-2.52-6.36-3.89-9.83.95-3.26,2.37-7.1,5.27-9.31ZM1497.59,523.6c4.69-1.95,7.31-7.78,12.75-10.61,1.19,3.01,2.24,5.65,3.45,8.72-.38,8.13-7.43,11.72-12.46,17.1-2.65-4.59-4.16-9.38-3.74-15.21ZM1486.36,551.86c.12-1.53.2-2.54.27-3.54-2.67-1.11-3.54-3.3-2.35-5.94.8-6.23,4.3-10.81,8.58-15.22,1.67,4.21,3.3,8.34,5.02,12.68-.57,1.4-1.26,3.08-2.02,4.92-3.14-2.22.19-4.08-.29-6.49-.25-.32-1.65-.03-1.89-1.33-.41.52-.86,1.01-1.23,1.55-.94,1.4-1.9,2.04-3.06.14-1.13.45-2.4.66-2.73,2.22-.26,1.25-1.6.99-2.39,1.52.19.96.88,1.15,1.66,1.05,2.49-.32,4.28.5,4.98,3.19,1.23-.25.99-1.6,1.62-2.31,1.08.36,1.45,1.2,1.41,2.24-.42,1.24-1.64,1.04-2.44,1.55.44,1.01.16,1.7-.84,2.05.34.7.46,1.42-.48,1.55-.26.04-.63-.64-.95-.99-.83.33-1.65.65-2.88,1.14ZM1495.2,582.29c-2.89-5.09-4.5-12.08-5.6-19.32.99-.82,1.63.61,2.77.56,2.86,7.23,5.74,14.51,9.04,22.85-2.3-1.51-3.76-2.47-6.22-4.09ZM1506.93,587.85c-.09-4.48-4.04-6.52-5.38-10.15-1.36-3.68-2.87-7.31-4.48-11.38,10.35-2.42,20.5.48,30.2-2.23,2.76,6.98,5.18,13.09,8.03,20.3-9.53,1.59-18.61,3.54-28.38,3.45ZM1562.08,588.17c-5.23-2.53-10.5-4.5-16.35-3.15-2.17.5-3.69-1.58-5.72-1.81-2.12-6.34-5.35-12.14-6.77-18.59-.14-.63.53-1.43.71-1.86,8.67-1.49,15.87,2.94,23.51,6.33,2.56,6.46,5.16,13.04,7.83,19.79-1.34,1.05-2.32-.27-3.21-.7ZM1568.94,589.54c-1.95-5.42-4.19-10.72-6.31-16.08,4.16,2.93,7.71,6.11,9.33,10.97.72,2.15,1.22,4.59,3.88,5.48-.08,2.21-.39,4.44.53,6.43-.18.77-.48.7-1.14.36-3.01-1.56-5.09-3.82-6.3-7.16ZM1572.32,620.88c1.43.59,1.83,1.58,1.19,3-1.43-.59-1.83-1.58-1.19-3ZM1569.15,626.64c-.78.96-1.51,1.85-2.35,2.89-.32-.82-.58-1.47-.81-2.04.58-1.18,1.37-1.48,3.16-.85ZM1556.21,630.91c1.8-.06,1.74,1.07,1.4,2.79-1.47-.74-1.75-1.58-1.4-2.79ZM1542.04,633.74c-.79,1.44-1.56,1.8-2.71,1.32-.05-1.84,1.03-1.77,2.71-1.32ZM1531.53,632.57c-.25,1.47-1.16,1.38-1.74,1.72-1.11-.33-1.52-1.13-1.5-2.45,1.42-.76,2.12.88,3.25.73ZM1519.52,629.97c1.8-.06,1.74,1.07,1.4,2.79-1.47-.74-1.75-1.58-1.4-2.79ZM1510.77,628.06c1.43.59,1.83,1.58,1.19,3-1.43-.59-1.83-1.58-1.19-3ZM1503.21,628.24c.05,1.84-1.03,1.77-2.71,1.32.79-1.44,1.56-1.8,2.71-1.32ZM1492.72,628.36c.86.22,1.05.72.58,1.47-.86-.22-1.05-.72-.58-1.47ZM1483.14,627.59c.05,1.84-1.03,1.77-2.71,1.32.79-1.44,1.56-1.8,2.71-1.32ZM1472.22,628.73c-.19.88-.67,1.07-1.41.56.19-.88.67-1.07,1.41-.56ZM1464.21,631.55c-1.15-.88-2.06-1.58-3.15-2.41,1.69-1.05,3.21-2.18,3.15,2.41ZM1452.33,630.6c.86.22,1.05.72.58,1.47-.86-.22-1.05-.72-.58-1.47ZM1444.61,631.94c.86.22,1.05.72.58,1.47-.86-.22-1.05-.72-.58-1.47ZM1437.27,636.41c-1.11.44-1.74.69-2.16.85-1.22-.25-1.15-1.2-1.59-1.96,1.38-1.82,2.56-2.26,3.75,1.1ZM1423.41,636.88c1.48.55,1.84,1.56,1.22,2.96-.48.19-.95.37-1.41.56-1.12-.32-1.54-1.13-1.5-2.17.14-1.09,1.08-.98,1.69-1.35ZM1415.96,640.65c-.68,1.49-1.49,1.76-2.67,1.37-.1-1.85.99-1.76,2.67-1.37ZM1407.05,643.95c.1,1.85-.99,1.76-2.67,1.37.68-1.49,1.49-1.76,2.67-1.37ZM1397.75,647.05c.86.22,1.05.72.58,1.47-.86-.22-1.05-.72-.58-1.47ZM1390.2,650.89c-.54,1.46-1.49,1.84-2.88,1.14.54-1.46,1.49-1.84,2.88-1.14ZM1380.62,653.83c.86.22,1.05.72.58,1.47-.86-.22-1.05-.72-.58-1.47ZM1373.05,657.68c-.19.88-.67,1.07-1.41.56.19-.88.67-1.07,1.41-.56ZM1356.5,665.94c-.19.88-.67,1.06-1.4.56.19-.88.67-1.06,1.4-.56ZM1326.45,683.86c.86.22,1.05.72.58,1.47-.86-.22-1.05-.72-.58-1.47ZM1318.4,688.64c1.47.74,1.75,1.58,1.4,2.79-1.8.06-1.74-1.07-1.4-2.79ZM1312.08,695.55c-.19.88-.67,1.06-1.4.56.19-.88.67-1.06,1.4-.56ZM1296.89,709.3c.86.22,1.05.72.58,1.47-.86-.22-1.05-.72-.58-1.47ZM1292.85,718.17c.05,2.03-1.03,1.96-2.64,1.53.68-1.58,1.58-1.58,2.64-1.53ZM1285.89,727.39c.86.22,1.05.72.58,1.47-.86-.22-1.05-.72-.58-1.47ZM1293.32,779.54c-1.42-.85-1.79-1.65-1.36-2.82,1.79,0,1.75,1.11,1.36,2.82ZM1294.09,767.08c-1.38.59-1.61-.55-2.2-1.41-.39-.58-1.26-.81-1.93-1.21.63-1.39.71-2.83-.17-4.27-.23.09-.59.12-.67.28-.3.68-.5,1.41-.79,2.26-2.32-2.14-2.93-4.54-2.29-7.3-.92-.41-1.94-.65-2.18-1.95.22-1.38.44-2.83,1.81-3.68-.19-.96-1.16-1.76-.53-3.06.49-.19,1.12-.44,1.79-.71,1.52,1.07-.93,2.2.17,3.21,2.81-.57,2.97,2.49,2.66,3.23-.96,2.26.33,3.84.87,5.68.67-.33,1.36-.43,1.52.54.04.26-.6.63-.93.95l3.92,6.48c-.35.32-.7.65-1.05.97ZM1323.7,839.53c-1.49-.55-1.72-1.6-1.29-2.94.54-.22,1.01-.4,1.47-.58,1.12.32,1.54,1.13,1.5,2.17-.14,1.09-1.08.98-1.69,1.35ZM1334.72,841.88c-1.65-.34-3.2-.69-3.75-2.68.33-1.11,1.09-1.52,2.19-1.42,1.24,1.02,1.73,2.34,1.56,4.1ZM1344.3,839.59c-.16-1.46.71-1.81,1.89-1.95,1.89.84,1.36,2.75,2.5,5.06-2.11-1.5-3.96-1.33-4.39-3.11ZM1361.81,839.9c-.48.19-.95.37-1.41.56-1.12-.32-1.54-1.13-1.5-2.17.14-1.09,1.08-.98,1.69-1.35,1.48.55,1.84,1.56,1.22,2.96ZM1373.83,837.97c-.75-.55-3.05-.29-2.92-2.82,1.4-2.32,2.92-.43,5.11.16-.81.98-1.53,1.87-2.19,2.66ZM1385.81,833.85c-1.43-.59-1.83-1.58-1.19-3,1.43.59,1.83,1.58,1.19,3ZM1399.02,830.17c-1.17-.62-1.47-1.45-.91-3.28.96.83,1.84,1.6,2.87,2.5-.78.31-1.41.56-1.96.78ZM1410.54,825.79c-1.8-1.47-2.27-2.7.97-3.83.46,1.15.72,1.81.89,2.25-.21,1.25-1.13,1.15-1.86,1.58ZM1417.62,820.38c.54-1.46,1.49-1.84,2.88-1.14-.54,1.46-1.49,1.84-2.88,1.14ZM1433.79,813.13c-1.11-.33-1.52-1.13-1.5-3.05,1.24.55,2.25.99,3.23,1.42-.23,1.38-1.14,1.28-1.73,1.63ZM1450.18,805.53c-3-.27-2.93-2.27-3.36-3.8.13-1.06,1.08-.94,1.73-1.33,1.72,1.04,2.28,2.54,1.64,5.13ZM1462.47,796.66c-1.54.19-1.78-.84-2.08-1.85.82-2.06,2.69-1.46,4.91-2.57-1.41,2.13-1.18,4.04-2.82,4.42ZM1478.89,788.4c-1.34.22-1.71-.7-1.9-1.98.46-1.63,2.16-1.39,3.47-1.86q-.52,2.41-1.57,3.84ZM1492.94,780.83c-.35-.88-.61-1.54-.84-2.13.87-1.75,2.6-1.12,3.76-2.52,2.02,4.66-1.2,3.82-2.91,4.65ZM1509.96,774.05c-.41-1.03-.6-1.51-.78-1.97.69-1.7,2.24-1.68,3.88-1.99.44,1.11.89,2.25,1.6,4.04-1.88-.06-3.34-1.07-4.7-.08ZM1525.09,767.26c1.13,1.39,4.38-1.5,4.25,2.35-.6,1.34-2.11,1.09-3.66,2.17-.7-1.78-1.16-2.92-1.55-3.91.08-.97.48-1.19.96-.61ZM1507.68,715.48c1.22,1.03,1.74,2.34,1.52,4.27-1.29-1.07-2.45-2.03-3.66-3.03.29-.94,1.05-1.35,2.15-1.23ZM1493.21,715.61c.61,1.31.97,1.98,1.24,2.68.17.46.21.96.3,1.45-.62,1.36-2.13,1.11-3.13,1.8-1.92-.58-1.24-2.59-2.24-3.37.82-1.79,2.33-1.54,3.83-2.57ZM1476.14,719.32c1.43.61,1.41,2.23,1.77,3.82-2.49,2.22-4.68,1.67-7.52-1.55,2.41-.95,3.97-1.57,5.75-2.28ZM1458.49,726.04c1.51.24,1.43,1.21,1.83,1.89-.97,1.74-2.41,2.28-4.59,1.65-.56-3.67,2.36-2.33,2.77-3.54ZM1449.49,741.5c5.92-.78,9.4-6.27,15.11-7.54,11.58-2.58,22.74-6.82,34.9-7.17,3.91-.11,7.27.36,10.69,2.01,4.11,10.38,8.22,20.76,12.34,31.18-.58,1.4-.87,2.13-1.17,2.85-4.45,2.24-9.28,3.06-14.06,4.3-7.37,1.91-14.28,5.51-21.47,8.16-2.62.97-3.75,3.79-6.6,4.54-2.24.59-4.65,1.09-6.22,3.8-.82,1.42-3.87,2.73-6.15,1.92-2.37-.84-3.76,1.18-5.86,1.13-1.52-1.45-1.91-4.07-4.39-4.94,1.11-2.4.11-4.51-.75-6.66-3.44-8.63-6.85-17.28-10.23-25.83.32-3.13,3.97-4.05,3.87-7.74ZM1441.86,732.91c1.02.2.95,1.15,1.65,2.37-1.7.67-2.8,1.11-3.7,1.46-1.23-.23-1.15-1.19-1.52-1.83.61-1.78,2.24-1.66,3.57-2ZM1423.48,741.78c.57-.23,1.2-.48,1.77-.7,1.37,1.13,1.89,2.45,1.67,4.21-.57.23-1.2.48-1.77.7-1.37-1.13-1.89-2.45-1.67-4.21ZM1409.97,748.71c2.9,1.53.63,3.31.29,5.06-.9-.45-1.79-.89-3.02-1.51.77-1.53.83-3.26,2.73-3.55ZM1396.07,755.02q1.7,3.49-.64,3.88c.15-.91.34-2.04.64-3.88ZM1385.99,762.03c.31.49.69,1.1,1.25,2-2.12,1.88-3.12,1.38-3.7-.58.33-1.12,1.1-1.53,2.45-1.42ZM1379.85,776.08c2.48-.98,5.24-2.53,8.2-3.13,3.67-.74,5.34-4.28,8.74-5.45,3.16-1.09,7.13-1.23,8.88-5.05.08-.17.45-.23.69-.29,7.94-1.77,13.58-8.57,21.65-10.04,1.99,3.19,5.95,5.6,5.84,9.53-.16,5.86,2.46,10.77,4.92,15.41,1.77,3.33,3.72,6.62,5.39,10.06,1.42,2.91,1.45,5.85,1.4,9.03-3.91,3.51-8.4,6.23-12.9,9.09-8.2,5.21-17.32,7.99-26.06,11.78-.7.31-1.5.45-2.13.87-5.33,3.52-7.84,3.74-13.8,1.13-4.9-12.37-9.79-24.74-14.86-37.54,1.48-1.98,2.65-3.54,4.03-5.39ZM1372.23,769.03c.4.64.77,1.25,1.51,2.46-1.31.52-1.93.76-3.26,1.29.26-1.7.53-2.78,1.75-3.75ZM1358.01,776.11c1.43.59,1.83,1.58,1.19,3-1.43-.59-1.83-1.58-1.19-3ZM1348.28,780.22c1.05.17.96,1.13,1.34,1.77-.5,1.51-1.46,1.85-2.84,1.18-.2-.5-.39-.98-.58-1.46.28-1.14,1.05-1.56,2.09-1.49ZM1332.46,782.58c1.62,1.23,2.19,2.53,1.99,4.82-1.71-1.33-2.17-2.67-1.99-4.82ZM1319.27,783.06c1.65.31,3.25.62,3.7,2.7-.36,1.1-1.13,1.49-2.22,1.34-1.16-1.08-1.76-2.35-1.49-4.04ZM1363.04,783.5c3.67,2.27,3.58,8.19,5.11,12.09,3.77,9.63,6.84,19.96,10.89,30.2-14.06,6.76-23.07,10.42-37.61,6.55-2.86-12.54-4.52-26.09-12.67-38.52,13.25.32,22.44-4.46,34.28-10.33ZM1330.98,832.35c-.94.52-9.42-3.81-9.74-3.92-6.62-2.27-12.21-5.4-15.23-11.91-3.15-6.78-6.69-19.71-10.45-29.24.71-.16.91-.27,1.06-.23,18.66,5.27,21.85,1.74,27.19,14.95,2.95,7.32,7.18,21.88,7.18,30.35ZM1299.15,779.35q2.48.68,3.87,1.81c.26,1.42-.77,1.63-2.31,2.14-.63-1.6-1.08-2.74-1.56-3.95ZM1310.39,784.46c-1.8.06-1.74-1.07-1.4-2.79,1.47.74,1.75,1.58,1.4,2.79ZM1308.74,762.14c.19-.88.67-1.06,1.4-.56-.19.88-.67,1.06-1.4.56ZM1315.1,755.31c-.86-.22-1.05-.72-.58-1.47.86.22,1.05.72.58,1.47ZM1307.49,756.17c-3.13,4.01-4.58,8.81-6.69,15.28-1.82-5.33-4.34-8.44-3.29-12.6-.81.52-1.53.15-1.85-.58-1.03-2.37-1.93-4.8-2.81-7.02.59-1.43,1.07-2.62,1.76-4.3-1.18-.21-2.36-.42-3.75-.68.17-2.84.31-5.07.44-7.29-.48-.01-.95-.03-1.86-.05-.64-10.62,7.33-16.63,11.27-24.28.7-.28.97-.5,1.17-.44.97.31,1.92.69,3.14,1.14.68,2.28,2.25,4.29,2.14,7.13-.08,2.06,2.46,3.21,2.99,5.45.6,2.56,1.87,4.97,2.85,7.44.88,2.23,1.76,4.45,2.64,6.68-1.42,5.51-4.81,9.85-8.14,14.12ZM1320.33,749.4c-.32-.82-.58-1.47-.81-2.04.58-1.18,1.37-1.48,3.16-.85-.78.96-1.51,1.85-2.35,2.89ZM1328.47,743.18c-1.43-.59-1.83-1.58-1.19-3,1.43.59,1.83,1.58,1.19,3ZM1334.21,737.32c.05-1.24.1-2.44.2-4.77,1.19,1.97,1.56,2.58,1.9,3.15-.58,1.55-1.53,1.91-2.1,1.62ZM1341.82,729.96c.89-.96,1.68-1.82,2.49-2.71.23.58.49,1.23.72,1.81-.53,1.2-1.33,1.46-3.21.9ZM1352.72,725.09c-1.47-.74-1.75-1.58-1.4-2.79,1.8-.06,1.74,1.07,1.4,2.79ZM1352.74,714.48c-11.44,5.59-21,15.1-31.26,25.17-4.06-10.26-7.76-19.61-11.66-29.47-.45-7.73,5.77-11.46,10.94-15.27,5.05-3.71,9.87-8.19,16.1-9.91,2.23-.62,1.37-4.63,4.79-4.33.98.9,1.96,1.8,2.93,2.7.11-.27.23-.55.34-.82,1.08,2.72,1.98,5.53,3.28,8.14,1.34,2.67,1.09,6.37,4.57,7.75-1.34,3.19.28,5.3,2.59,7.48-.21,2.61.1,5.69-2.62,8.57ZM1365.59,713.87c.19-.88.67-1.06,1.4-.56-.19.88-.67,1.06-1.4.56ZM1373.73,711.53c-1.43-.59-1.83-1.58-1.19-3,1.43.59,1.83,1.58,1.19,3ZM1380.53,708.54c-1.26-1.03-1.75-2.35-1.57-4.11,1.65.34,3.2.69,3.74,2.68-.32,1.12-1.1,1.51-2.17,1.43ZM1387.84,703.37c-.2-.5-.39-.98-.58-1.46.28-1.15,1.05-1.55,2.07-1.49,1.07.17.98,1.14,1.36,1.78-.5,1.51-1.46,1.85-2.84,1.18ZM1398.88,699.97c-1.42-.85-1.79-1.65-1.36-2.82,1.79,0,1.75,1.11,1.36,2.82ZM1405.85,697.11c-1.8-1.46-2.27-2.7.97-3.83.46,1.15.72,1.81.89,2.25-.21,1.25-1.13,1.15-1.86,1.58ZM1408.74,687.35c-4.41,1.74-9.19,3.42-13.79,5.51-7.71,3.5-16.29,5.04-23.08,10.68-1.86,1.54-4.62,1.95-6.87,2.84-1.39-1.32-2.62-2.5-3.75-3.57-.67-.98.11-1.58.27-2.85-.09-.91-1.77-.64-2.32-1.91-1.09-2.53-1.33-5.27-2.58-7.86-1.01-2.1-2.35-4.4-3.02-6.75-.95-3.35-1.85-6.85.02-10.39,9.29-2.71,16.94-9.26,26.3-12.35,2.72-.9,5.15-3.47,8.11-4.75,3.37-1.46,6.57-1.69,10.28-.2,3.93,9.92,7.73,19.46,11.42,29.05.2.53-.53,1.42-.99,2.55ZM1415.98,693.07c-.48.19-.95.37-1.41.56-1.12-.32-1.54-1.13-1.5-2.17.14-1.09,1.08-.98,1.69-1.35,1.48.55,1.84,1.56,1.22,2.96ZM1424.81,688.92c-.18,1.08-1.1.98-1.99,1.51-1.82-2.15-1.36-3.17.54-3.71,1.09.37,1.53,1.16,1.46,2.2ZM1432.33,688.55c-1.66-1.39-2.18-2.7-1.92-4.85,1.56,1.27,2.21,2.54,1.92,4.85ZM1440.62,684.9c-1.18-.58-1.46-1.41-.98-3.25.87,1.1,1.66,2.08,2.21,2.77-.05.02-.67.27-1.23.49ZM1449.89,680.59c.23-1.38,1.14-1.28,1.73-1.63,1.11.33,1.52,1.13,1.5,3.05-1.24-.55-2.25-.99-3.23-1.42ZM1460.93,679.32c-1.16-1.19-.52-2.16,2.53-2.28-.89.8-1.78,1.61-2.53,2.28ZM1461.94,671c-13.19,3.45-26.5,4.94-38.97,10.79-1.4-.81-2.97-1.72-5.28-3.06-2.71-8.98-8.72-17.87-9.67-29.05,5.69-1.44,10.32-5.32,16.47-4.69.92.09,1.97-.55,2.83-1.08,5.67-3.51,12.59-2.77,18.59-5.43,2.86-1.27,6.28.19,9.6,2.22,1.74,4.39,4.33,8.49,4.82,12.8.6,5.25,2.83,9.81,4.24,14.47-.81,1.57-3.28,1.31-2.62,3.03ZM1470.54,676.62c-.86-.22-1.05-.72-.58-1.47.86.22,1.05.72.58,1.47ZM1480.33,676.32c-1.42-.85-1.79-1.65-1.36-2.82,1.79,0,1.75,1.11,1.36,2.82ZM1486.2,674.55q3.35-1.66,3.79.76c-.89-.18-1.99-.4-3.79-.76ZM1499.19,673.9c-1.43-.59-1.83-1.58-1.19-3,1.43.59,1.83,1.58,1.19,3ZM1507.92,673c.19-.88.67-1.07,1.41-.56-.19.88-.67,1.07-1.41.56ZM1519.25,674.52c-.86-.22-1.05-.72-.58-1.47.86.22,1.05.72.58,1.47ZM1516.09,668.38c-7.77-1.18-15.63-2.35-23.41-.51-3.15-1.54-6.06,2.01-9.23.22-2.96,2.22-5.21-.57-7.65-1.15-3.99-10.07-7.89-19.93-11.8-29.81.4-.94.8-1.9,1.3-3.09,12.6-.61,25.37.75,39.47,1.03.29.13,1.95.9,3.6,1.64,2.88,1.29,4.81,3.42,5.94,6.47,1.65,4.47,4.44,8.79,4.97,13.34.52,4.49,2.26,8.35,3.62,12.93-2.41-.38-4.58-.74-6.8-1.07ZM1527.4,675.85c-.05-1.84,1.03-1.77,2.71-1.32-.79,1.44-1.56,1.8-2.71,1.32ZM1536.03,677.34c.54-1.46,1.49-1.84,2.88-1.14-.54,1.46-1.49,1.84-2.88,1.14ZM1548.81,678.28c-.86-.22-1.05-.72-.58-1.47.86.22,1.05.72.58,1.47ZM1556.48,675.79q1.35-.96,2.71,3.16c-1.53-1.79-2.34-2.73-2.71-3.16ZM1565.68,675.04c-.86-.22-1.05-.72-.58-1.47.86.22,1.05.72.58,1.47ZM1570.91,665.78c-13.3,7.28-26.67,10.02-40.81,5.74-4.26-10.77-8.28-22.1-12.18-31.94,1.37-1.46,2.67-1.86,4.71-1.3,9.84,2.7,19.88,2.52,29.86,2.35,2.38-.04,4.69-1.72,6.74-2.53,2.18.71,3.35,1.74,4.08,3.71,2.49,6.71,5.21,13.34,7.83,19.94-.88,1.43-.99,2.9-.24,4.04ZM1573.25,671.19c.19-.88.67-1.07,1.41-.56-.19.88-.67,1.07-1.41.56ZM1583.07,664.72c-.86-.22-1.05-.72-.58-1.47.86.22,1.05.72.58,1.47ZM1585.63,648.26c-.78,5.21-2.9,9.46-8.11,11.95-3.14-7.92-6.2-15.66-9.29-23.49.25-.61.34-1.7.87-1.99,3.79-2.09,6.96-4.94,10.09-7.9.48-.45,1.45,0,1.66.99,1.9-.77.74-2.05.39-3.15-.33-1.03-.7-2,.7-2.43.73,1.85,1.46,3.69,2.35,5.94-1.16.46-2.01.79-2.86,1.13l1.18,2.97c1.23-.26,1.01-1.58,1.57-2.31.86,1.34,5.56.37,2.46,4.15.2.49.39.99.59,1.48-.48.19-.95.38-1.43.57.44,1.01.16,1.7-.84,2.05.2.49.39.99.59,1.48.92-.17,1.67-1.13,2.98-.46-.68,2.29-1.37,4.63-2.05,6.97.44,1.01.16,1.7-.84,2.05ZM1588.6,636.59c-.71.1-1.21-.22-1.37-.98.63-.4,1.2-.24,1.61.38.07.1-.13.59-.25.6Z"/>
      <path class="cls-9" d="M1580.74,628.65c-.11.08-.22.16-.22.16,0,0,.13-.02.28-.03-.02-.04-.04-.08-.05-.13Z"/>
      <path class="cls-9" d="M1529.74,480.13c.09.13.19.27.19.27,0,0-.02-.17-.05-.33-.05.02-.09.04-.14.06Z"/>
    </g>
  </g>
  <g class="cls-11">
    <g>
      <path d="M1341.94,733.04c-3.68,3.63-7.54,7.15-11.26,10.82-.41.4-.82.77-1.25,1.11,3.45,5.58,6.91,11.16,10.36,16.74h19.01c-.52-1.25-.86-2.56-1.57-3.73-5.09-8.32-10.19-16.63-15.29-24.94Z"/>
      <path class="cls-9" d="M1418.95,495.45c3.83-7.19,2.76-13.57-2.15-19.57-3.15-3.86-6.68-3.94-10.51-.61,1.13,1.87,2.67,3.67,3.31,5.67.65,2.02.41,4.24.59,6.81-1.87-.27-3.16-.32-4.33-.63-16.73-4.49-33.44-9.05-50.19-13.5-4.47-1.19-4.22-4.16-3.57-6.67,1.2-4.66-2.06-6.91-6.29-8.17-20.92-6.23-41.93-12.27-62.96-18.25-5.32-1.51-8.32.25-8.97,4.83-.17,1.21-.11,2.44-.1,3.67.03,28.01.05,56.02.09,84.03,0,6.44,1.18,7.57,8.83,8.46,20.59,2.39,41.19,4.76,61.79,7.07,2.01.23,4.09.03,6.28-.67-17.47-5.15-35.72-7.76-53.42-12.1,15.99,2.04,31.98,4.08,47.9,6.11,1.35-4.1-1.06-4.99-4.12-5.52-15.78-2.69-31.57-5.39-47.35-8.1-2.91-.5-5.82-1.03-8.88-1.57v-79.97c19.24,4.2,38.15,8.32,57.84,12.61-4.64,2.38-8.79,4.42-12.79,6.63-1.17.65-2.19,1.71-2.8,2.77-4.77,8.17,2.08,19.42,12.97,21.18,4.22.68,8.26.37,11.45-2.58.76-.7,2.85-1.33,3.57-.97.93.46,1.52,1.94,1.54,2.99.13,8.56.09,17.13.09,25.7,0,10.17,0,20.34,0,30.51.65,0,1.3,0,1.95.01.57-19.11,1.14-38.22,1.72-57.9,4.55,1.15,8.64,2.06,12.59,3.26.87.26,1.79,1.58,1.79,2.4-.17,23.93-.45,47.86-.75,71.78,0,.37-.36.73-.66,1.32-21.1-3.04-42.2-6.07-63.29-9.13-15.72-2.28-31.39-4.76-47.16-6.79-4.01-.52-4.75-1.79-4.72-4.7.13-17.53.06-35.07.06-53.03-8.55,8.02-18.48,14.21-31.23,16.91-13.04,2.77-25,1.05-36.33-5.25,27.44,3.11,49.26-2.25,56.32-26.41,6.01-20.57-3.13-35.93-28.58-43.8.14-.37.29-.74.43-1.12,2.28-.2,4.62-.78,6.82-.54,12.43,1.34,21.93,6.68,29.27,14.78,1.06,1.17,2.01,2.4,3.86,4.63v-30.41c6.88,2.18,12.86,4.04,18.81,5.96,30.92,9.95,61.81,20,92.81,29.79,4.06,1.28,5.4,2.95,5.01,6.25-.28,2.4-.06,4.83-.06,7.25.53.15,1.07.3,1.6.46.68-1.05,1.86-2.07,1.95-3.15.26-3.25.39-6.55-.07-9.77-.18-1.23-1.83-2.78-3.29-3.34-7.02-2.69-14.2-5.09-21.68-7.72,17.09-11.12,21.98-26.61,24.58-42.65,3.3-20.38.64-40.38-8.61-59.64-4.05-8.43-9.46-16.18-18.16-22.1-5.89-4-12.51-6.02-20.31-5.21-8.91.93-17.88,1.47-26.75,2.61-5.84.75-8.15,2.64-10.09,7.01h16.76c.09.5.18.99.27,1.49-5.54,4.8-13.21,3.02-19.32,3.76-4.38-8.45-8.04-16.59-12.81-24.26-2.73-4.39-6.92-8.3-11.07-11.96-9.66-8.54-22.26-7.97-34.9-6.8-7.94.73-15.85,1.75-23.81,2.19-10.34.57-17.27,5.05-22.48,11.87-7.44,9.74-11.36,20.53-13.26,31.74-3.89,22.96-.87,45.32,11.62,66.33,4.29,7.21,10.49,13.66,16.06,20.78-11.65,1.85-24.35,3.87-38.2,6.07,2.11,1.23,3.47,2.05,4.87,2.83,6.74,3.74,13.48,7.49,20.26,11.18,2.86,1.56,4.2,3.46,4.02,6.43-.79,13.17-1.18,26.35-2.14,39.51-.14,1.89-2.13,4.37-4.15,5.35-5.55,2.69-11.43,5.04-17.46,6.91-4.67,1.45-6.95,3.27-6.33,7.63.59,4.13.13,8.35.13,13.06-16.65-1.79-32.68-3.51-48.72-5.24-.04-.34-.09-.69-.13-1.03.9-.35,1.78-.74,2.7-1.05,20.32-6.74,40.63-13.48,60.96-20.19,5.42-1.79,8.61-4.82,8.94-9.75.56-8.25,1.25-16.49,1.9-24.95-19.58-4.25-38.47-8.35-58-12.6-.29,4.35-.56,8.33-.84,12.52,15.11,1.98,29.74,3.89,44.37,5.8-.05.29-.1.59-.15.88h-44.7v7.8c13.33.42,26.65.83,39.97,1.25.01.43.02.86.04,1.29-13.62,1.35-27.25,2.71-40.87,4.06-.89,6.74-1.77,13.41-2.65,20.09-.63-.03-1.26-.05-1.89-.08-1.85-27.46-.02-54.9,1.55-83.15,21.43,10.1,42.14,19.86,62.85,29.62l.67-.74c-.57-.49-1.06-1.09-1.73-1.46-22.21-12.47-44.47-24.87-66.62-37.4-3.3-1.87-6.48-2.36-10.3-1.61-15.19,2.99-30.43,5.8-45.61,8.81-6.02,1.19-9.7,4.89-9.82,9.99-.6,24.87-1.18,49.75-1.51,74.63-.12,9.06,4.55,12.73,15.6,13.28,8.98.44,17.96.9,26.94,1.37.46.02.9.27,1.51.47v13.04c-9.21-.78-18.06-1.55-26.92-2.28-3.98-.33-7.98-.47-11.93-.92-4.64-.53-6.95,1.26-7.62,4.74-.86,4.47,1.16,7.33,5.87,7.91,7.73.95,15.49,1.81,23.27,2.4,27.03,2.03,54.08,3.92,81.12,5.88.46.03.91.27,1.95.59,0,4.33,0,8.77,0,13.22,0,4.98,1.49,6.51,7.47,7.25,23.22,2.85,46.45,5.7,70.06,4.91,1.45-.05,2.9,0,4.34,0,.08.39.16.78.24,1.17-2.4.39-4.77,1-7.19,1.14-7.31.42-14.64.87-21.96.89-3.97,0-5.67,1.3-6.44,4.27-3.34,12.82-3.07,25.3,5.12,37.6-3.6,0-6.93-.4-10.03.13-2.44.41-5.7,1.52-6.65,3.09-3.7,6.14-6.62,12.59-10.14,19.54.26-.03-.71.11-1.68.21-9.8,1-13.66,5.23-10.68,12.91,1.39,3.58.48,6.08-1.65,9-23.9,32.77-47.72,65.58-71.54,98.39-.58.81-.98,1.7-1.47,2.56h36.01c1.06-1.38,2.15-2.73,3.17-4.13,20.98-28.92,41.91-57.87,63.01-86.73,1.18-1.61,3.47-2.9,5.59-3.78,7.3-3.02,15.02-.73,22.56-.81,4.5-.05,9.02.44,13.52.68.02.38.03.75.05,1.13-3.76.51-7.52,1.02-11.44,1.55,1.4,13.18,2.79,25.87,4.1,38.57,1.85,17.84,3.66,35.68,5.48,53.52h39.66s-.03-.1-.03-.14c0-.02,0-.04,0-.06-.78-.22-1.54-.71-2.22-1.53-2.25-2.73-3.59-5.79-4.32-9.02-2.04-.78-3.59-2.6-3.47-5.48.33-7.73,1.8-17.48,5.64-24.31,3.63-6.46,7.31-11.95,12.03-17.44-.68-6.24-1.59-12.45-5.35-18.27-2.69-4.16-4.39-8.77-6.33-13.24-.77-1.79-.96-3.75-1.41-5.63.62-.25,1.24-.5,1.86-.74,1.96,2.48,4.18,4.84,5.82,7.44,4.6,7.29,9.17,14.59,13.75,21.9,4.25-3.93,8.88-7.57,13.56-11.05-1.18-1.93-2.37-3.86-3.55-5.79-1.96-3.2-3.88-6.41-5.74-9.51,3.46,4.82,6.93,9.65,10.4,14.48,2.05-1.52,4.11-3.01,6.13-4.49,1.49-1.09,3.01-2.17,4.58-3.23-1.76-2.92-3.53-5.84-5.3-8.77,9.29-2.65,10.37-2.53,14.08,3.58,2.21-1.09,4.47-2.03,6.8-2.75-.12-.19-.23-.38-.35-.57-1.32-2.15-1.59-3.62.3-5.79,3.28-3.78,4.52-8.21,2.54-12.77-.69-1.58-1.95-3.77-3.52-4.16-4.84-1.2-5.8-4.34-7.06-7.52-.26-.64-.71-1.23-.97-1.87-2.05-5.24-6.27-6.96-13.11-7.03-29.16-.3-58.32-1.08-87.47-1.74-2.36-.05-4.7-.53-7.02-1.45,31.68-3.39,63.56-2.77,95.33-3.74.09-.38.19-.75.28-1.12-1.48-.4-2.94-1.07-4.45-1.16-5.32-.32-10.69-.19-15.96-.76-2.32-.25-5.51-1.31-6.43-2.79-2.59-4.17-5.16-8.63-6.01-13.19-1.8-9.61-1.98-19.26,5.43-27.83,1.91-2.21,4.07-3.1,7.5-3.06,24,.31,48.01.46,72.01.6,6.75.04,7.43-.58,7.5-6.05.32-22.98.62-45.95.93-68.93.02-1.33,0-2.65,0-5.33,9.65,3.16,18.49,5.71,26.91,8.96,4.86,1.88,9.32,2.81,14.26.94,5.51-2.09,9.35-6.93,9.59-11.54-3.42,1.82-7.03,3.75-10.65,5.67ZM1314.61,425.33c-.28-8.13,2.72-15.6,4.66-24.32,3.75,7.45,5.41,14.85,15.57,16.65.49,2.84-1.1,3.46-4.01,2.82-6.59-1.46-12.62-1.62-16.22,4.86ZM1307.63,348.77c2.76-7.91,6.63-15.38,14.07-21.21,7.76-6.08,16.92-6.57,25.09-.82,4.21,2.96,7.95,6.61,10.92,10.45,8.96,11.6,12.85,24.65,14.54,38.1,2.11,16.76,1.23,33.38-6.33,49.34-3.2,6.76-7.3,13.09-14.86,17.45-3.22,1.86-6.21,2.65-10.04.87-3.44-1.6-7.2-2.89-10.99-3.81-4.51-1.1-5.84-3.7-6.13-7-.36-4,.66-7.71,5.18-9.92,4.64-2.27,7.23.87,10.28,3.73,1.93-5.57,3.65-10.53,5.7-16.42-3.37,1.22-5.55,2.01-7.75,2.8-9.55-6.84-11.58-16.08-12.07-25.52-.58-11.1.69-21.99,11.77-30.4-5.67-.97-10.05.9-12.38,4.24-3.56,5.11-6.66,10.59-8.67,16.21-3.38,9.45-5.76,19.14-8.56,28.73-5.88-19.12-6.31-38.02.25-56.82ZM1221.03,497.42c-6.12,3.02-12.32,3.27-18.42-.17,15.86.5,26.42-13.36,14.21-25.44,6.87,1.45,11.42,5.58,12.64,11.45,1.06,5.12-2.48,11.23-8.43,14.17ZM1231.03,444.42c5.06,3.59,6.87,8.25,4.98,13.62-2.05,5.82-6.86,8.99-14.46,9.4,5.29-3.8,7.4-8.42,6.3-13.93-1.16-5.8-6.04-8.85-13.3-10.57,6.57-2.61,11.89-1.77,16.48,1.49ZM1273.03,419.15c2.59-2.43,4.73-4.43,7.31-6.85,1.47,3.75,2.77,7.06,4.3,10.93-4.28-1.51-7.71-2.71-11.61-4.08ZM1262.83,299.83c5.96,4.89,11.01,10.95,14.7,17.18,8.46,14.26,11.25,29.69,12.37,45.61-1.74,9.22-2.95,18.53-5.36,27.63-2.37,8.94-6.86,17.31-15.12,23.87-1.31,1.04-4.2,2.26-5.23,1.78-5.7-2.65-11.26-1.59-16.92-.37-3.51.75-6.58.46-8.85-2.13-3.85-4.39-8.53-8.46-11.41-13.24-13.49-22.34-15.96-45.95-10.61-70.23,2.25-10.23,6.04-20.02,14.42-28.19,9.43-9.2,21.74-10.35,32.02-1.92ZM1198.78,308.04c-2.87,4.72-5.91,9.42-8.1,14.36-6.4,14.4-8.37,29.47-9.35,44.72-.65-1.23-1.4-2.5-1.36-3.76.28-10.55-.08-21.16,1.31-31.61,1.29-9.69,4.82-19.13,11.63-27.42,1.53-1.87,3.43-4.39,5.7-4.86,8.43-1.72,17.08-2.7,25.64-3.95.21.39.42.78.64,1.17-2.53,1.34-4.91,2.97-7.64,3.94-3.17,1.13-6.59,1.99-10,2.4-4.07.49-6.77,2.24-8.46,5.02ZM1196.66,452.71c9.8,1.27,14.78,6.73,13.01,13.46-1.32,5-6.39,7.4-13.01,6.16v-19.62ZM1098.37,438.21c-2.06,0-4.18.29-6.15-.05-8.22-1.41-16.39-3.01-24.63-4.55-2.18,10.91-4.26,21.34-6.34,31.77-.56-.07-1.11-.14-1.67-.2v-42.39c13.86,4.87,26.52,9.32,39.17,13.78-.13.55-.25,1.1-.38,1.65ZM1236.38,541.09c-1.06.45-2.63.24-3.94.14-7.46-.58-14.93-1.07-22.36-1.86-21.12-2.26-42.21-4.67-63.32-6.98-11-1.21-22.02-2.35-33.2-3.54.15-2.64.28-4.91.45-7.93,3,.34,5.44.61,7.88.89,38.22,4.38,76.45,8.72,114.65,13.22,1.89.22,3.54,1.83,5.3,2.8-1.8,1.11-3.47,2.41-5.44,3.26ZM1270.17,646.56c5.49-.18,9.51,3.17,9.55,7.97,0,.88,0,1.76,0,2.82,18.41-.55,36.55-1.08,54.7-1.62.16.58.32,1.16.48,1.73-2.76.76-5.49,2.03-8.3,2.19-18.57,1.03-37.15,1.84-55.74,2.67-5.96.27-10-2.78-10.07-7.42-.07-4.54,4.02-8.17,9.38-8.35ZM1215.68,604.28c7.66-2.14,52.58-.74,55.84,1.73-7.54,1.7-49.47.4-55.84-1.73ZM1221.97,612.6c18.81-1.08,37.5-.39,56.14,1.25-4.75,2.6-49.39,1.53-56.14-1.25Z"/>
      <path d="M1353.71,726.25c-1.83.59-3.78.7-5.71.41-.7.79-1.4,1.59-2.12,2.36,7.16,9.97,14.31,19.93,21.45,29.87,5.13-1.24,3.85-3.04,2.7-4.98-5.45-9.22-10.88-18.44-16.32-27.65Z"/>
      <path class="cls-9" d="M1382.15,643.34c4.63-1.67,9.27-3.44,13.96-4.92.55-.17,1.09-.36,1.63-.55-15.93-8.11-31.76-16.17-47.54-24.2,1.52-3.47,3.48-4.26,7.22-2.36,13.92,7.08,27.92,14.08,42.03,20.91,2.51,1.22,3.34,2.46,3.08,3.89,1.34-.49,2.7-.94,4.07-1.3-.22-1.83-1.82-3.32-4.71-4.77-14.43-7.25-28.91-14.42-43.38-21.6-3.4-1.69-6.76-2.45-9.79.79-6.35-2.99-12.53-5.86-18.66-8.81-2.93-1.41-5.86-1.91-7.78.83-1.87,2.68-.05,4.53,2.97,5.92,5.77,2.66,11.46,5.45,17.08,8.14-1.82,7.89-1.95,8.06,6.28,12.24,10.82,5.49,21.79,10.77,32.69,16.16.26-.13.54-.26.83-.37Z"/>
      <path class="cls-9" d="M1319.92,605.33c-10.88-10.89-7.88-25.82,3.06-28.62-5.49-1.23-10.93-2.99-16.51-3.42-2.34-.18-5.97,1.99-7.35,3.9-5.6,7.73-6.8,16.12-2.93,24.64,3.1,6.84,8.23,8.62,16.52,6.19,2.45-.72,4.75-1.76,7.22-2.68Z"/>
      <path class="cls-9" d="M1317.68,500.77c1.52-1.69,3.04-3.38,4.04-4.5-3.97.11-8.32,1.15-11.75.12-4.96-1.48-7.29-5.75-7.47-9.88-.18-4.07.28-8.46,2.06-12.21,2.9-6.08,8.42-7.32,15.59-4.55-3.25-6.9-13.84-7.94-19.88-3.49-10.62,7.82-10.7,26.99.04,34.74,5.45,3.93,10.68,3.83,17.5-.34l-.13.1Z"/>
      <path class="cls-9" d="M1179.97,448.71c-15.45-6.23-30.91-12.46-46.84-18.88-.33,1.76-.53,2.79-.72,3.82-.75,3.94.29,6.47,5.94,7.58,12.55,2.47,24.91,5.57,37.36,8.38,1.21.27,2.5.32,3.76.47.17-.46.34-.92.51-1.38Z"/>
      <path class="cls-9" d="M1317.8,500.67c-3.93,5.48-5.67,11.23-2.98,17.45,1.81,4.19,4.26,5.95,10.04,6.99-4.21-4.35-5.63-8.99-5.01-14.05.67-5.56,4.54-8.37,12.34-8.94-3.97-4.37-6.62-4.62-14.52-1.35,0,0,.12-.1.12-.1Z"/>
      <path class="cls-9" d="M1317.43,488.83c-5.72-3.38-5.18-7.72-3.6-13.25-1.98,1.04-4.62,1.73-5.81,3.2-2.28,2.82-1.34,8.45,1.72,10.14,1.92,1.06,4.82.95,7.29,1.36.13-.49.27-.97.4-1.46Z"/>
      <path class="cls-9" d="M1331.46,511.88c-2.02-2.12-3.47-3.63-4.92-5.15-1.19,1.73-3.25,3.44-3.32,5.21-.06,1.62,2.02,3.3,3.15,4.95,1.5-1.48,3-2.95,5.09-5Z"/>
      <path class="cls-9" d="M1293.98,512.77c2.33,1.52,3.64,2.9,5.26,3.21.74.14,3.17-2.04,2.93-2.76-.44-1.35-2.06-2.68-3.62-3.4-.5-.23-2.35,1.47-4.57,2.95Z"/>
      <path class="cls-9" d="M1345.98,507.41c.86-1.23,2.54-2.56,2.34-3.67-.21-1.17-2.2-2.13-3.42-3.18-1.09.92-3.11,1.87-3.07,2.75.06,1.38,1.52,2.72,2.38,4.08.59,0,1.18,0,1.77.01Z"/>
      <path class="cls-9" d="M1248.2,321.46c-4.34-1.16-8.06.22-11.25,2.91-5.67,4.78-8.15,10.83-9.59,17.15-3.63,15.82-2.58,31.34,5.38,46.25,1.44,2.7,3.36,5.4,5.83,7.5,1.91,1.63,4.91,2.96,7.63,3.27,4.3.5,5.94-2.17,3.71-5.26-.42-.58-.87-1.18-1.44-1.66-13.53-11.19-14.79-25.41-13.95-39.81.37-6.39,2.37-12.87,4.91-18.96,1.69-4.04,5.64-7.45,8.77-11.39Z"/>
      <path class="cls-9" d="M1260.87,372.15c-4.15.4-6.04-1.63-7.27-4.29-3.44-7.42-3.48-14.92.18-22.21,1.02-2.03,3.85-3.45,6.62-5.81-1.58-.81-4.12-3.15-6.5-3.05-2.53.1-6.01,2.07-7.19,3.99-6.45,10.57-6.45,21.46-.1,32.06,1.18,1.97,4.63,4.19,7.05,4.2,2.56.01,5.14-2.47,7.71-3.86-.17-.34-.34-.68-.51-1.03Z"/>
      <path class="cls-9" d="M1269.74,406.28c1.37-1.53,3.03-2.94,4.07-4.61,5.62-8.97,7.83-18.72,8.79-28.61,1.22-12.66.02-25.22-4.21-37.51-.42-1.23-1.14-2.39-2.05-4.28,1.16,9.18,2.98,17.5,3.04,25.82.06,8.36-.82,16.86-2.81,25.06-1.93,7.95-5.77,15.59-8.78,23.37.65.26,1.3.51,1.95.77Z"/>
      <path class="cls-9" d="M1346.66,398.82c-5.88-.97-8.68-5.64-8.55-13.64.13-8.18,2.89-12.61,9.98-13.59-3.29-1.66-5.63-3.8-7.73-3.65-2.24.16-5.14,2.14-6.19,3.93-5.09,8.64-5.21,17.61-.48,26.37,3.25,6.02,7.94,6.17,12.97.58Z"/>
      <path class="cls-9" d="M1352.22,431.08c1.5-1.3,3.43-2.42,4.43-3.94,5.51-8.38,7.82-17.57,8.88-26.9,1.53-13.46.53-26.83-3.93-39.93-.31-.9-.82-1.76-1.31-2.61-.11-.2-.53-.28-1.18-.59,6.08,25.11,5.52,49.54-9.05,72.89l2.15,1.08Z"/>
    </g>
  </g>
  <text class="cls-4" transform="translate(1274.16 278.03) rotate(11.92) scale(1.05 1)"><tspan x="0" y="0">S</tspan></text>
  <text class="cls-4" transform="translate(1304.33 283.47) rotate(21.35) scale(1.05 1)"><tspan x="0" y="0">a</tspan></text>
  <text class="cls-4" transform="translate(1349.24 300.43) rotate(33.97) scale(1.05 1)"><tspan x="0" y="0">m</tspan></text>
  <text class="cls-4" transform="translate(1393.84 331.42) rotate(45.29) scale(1.05 1)"><tspan x="0" y="0">f</tspan></text>
  <text class="cls-4" transform="translate(1417.6 354.65) rotate(54.72) scale(1.05 1)"><tspan x="0" y="0">o</tspan></text>
  <text class="cls-4" transform="translate(1441.56 388.24) rotate(65.76) scale(1.05 1)"><tspan x="0" y="0">r</tspan></text>
  <text class="cls-4" transform="translate(1458.52 425.61) rotate(76.92) scale(1.05 1)"><tspan x="0" y="0">d</tspan></text>
  <text class="cls-4" transform="translate(1466.91 465.32) rotate(84.43) scale(1.05 1)"><tspan x="0" y="0"> </tspan></text>
  <text class="cls-6" transform="translate(985.15 528.31) rotate(84.91) scale(1.11 1)"><tspan x="0" y="0">U</tspan></text>
  <text class="cls-6" transform="translate(990.04 578.5) rotate(72.84) scale(1.11 1)"><tspan x="0" y="0">n</tspan></text>
  <text class="cls-6" transform="translate(1006.4 627.61) rotate(63.72) scale(1.11 1)"><tspan x="0" y="0">i</tspan></text>
  <text class="cls-6" transform="translate(1019.46 655.25) rotate(54.94) scale(1.11 1)"><tspan x="0" y="0">v</tspan></text>
  <text class="cls-6" transform="translate(1050.13 697.62) rotate(45.17) scale(1.11 1)"><tspan x="0" y="0">e</tspan></text>
  <text class="cls-6" transform="translate(1079.8 727.39) rotate(36.13) scale(1.11 1)"><tspan x="0" y="0">r</tspan></text>
  <text class="cls-6" transform="translate(1118.77 755.12) rotate(27.71) scale(1.11 1)"><tspan x="0" y="0">s</tspan></text>
  <text class="cls-6" transform="translate(1152.28 772.29) rotate(21) scale(1.11 1)"><tspan x="0" y="0">i</tspan></text>
  <text class="cls-6" transform="translate(1180.29 783.4) rotate(13.28) scale(1.11 1)"><tspan x="0" y="0">t</tspan></text>
  <text class="cls-6" transform="translate(1225.8 793.98) rotate(3.11) scale(1.11 1)"><tspan x="0" y="0">y</tspan></text>
  <path class="cls-7" d="M1374.37,697.01l-.46-1.06,3.08-1.25-9.16-21.34-3.37,1.63-.47-1.08,4.9-2.39,10.11,23.62-4.64,1.88ZM1393.08,665.38l-1.46-3.52-12.23,5.91,4.6,10.91,6.08-2.71.46,1.1-6.08,2.69,4.28,10.15,4.22-1.72.47,1.12-12.98,5.25-10.14-23.73,22.43-10.93,1.95,4.72-1.61.76Z"/>
  <path class="cls-7" d="M1433.52,673.9l-.36-1.11,2.92-.86-7.2-22.48-2.95.96-.37-1.15,4.32-1.42,7.92,24.81-4.28,1.25ZM1439.04,672.28l-7.9-24.86,11.98-3.94.36,1.19-3.92,1.28,7.1,22.87,3.88-1.14.35,1.14-11.85,3.47Z"/>
  <path class="cls-7" d="M1485,663.72l-.17-1.2,3.6.12-3.44-23.87-3.81-.15-.18-1.22,5.48.22,3.78,26.27-5.26-.18ZM1491.73,663.95l-3.77-26.26,12.34.5.17,1.21-3.73-.15,3.37,23.8,9.01.31-1.04-7.47,1.46.05,1.2,8.66-19.01-.64Z"/>
  <path class="cls-7" d="M1533.22,667.91c-.1-.5-.15-.74-.25-1.24,1.17.12,1.75.17,2.92.26-1.91-9.96-2.89-14.65-4.99-22.89-1.25.1-1.87.16-3.12.28-.11-.4-.17-.6-.28-1,1.81-.2,2.72-.29,4.53-.45,2.27,9.11,3.34,14.35,5.4,25.41-1.69-.11-2.53-.18-4.22-.36ZM1557.94,643.3c1.49,9.23,2.22,13.95,3.71,23.19.83-.07,1.25-.11,2.08-.18.07.45.11.68.18,1.13-2.01.21-3.02.3-5.03.47-.08-.47-.11-.71-.19-1.18.84-.06,1.26-.1,2.1-.16-1.47-9.17-2.2-13.84-3.68-22.96-1.97,7.15-2.96,10.72-4.93,17.78-4.75-7.65-7.13-11.51-12.02-17.86,1.84,8.92,2.72,13.77,4.44,23.74,1.05,0,1.57,0,2.62-.01.08.5.13.75.21,1.25-3.58.06-5.37.04-8.92-.16-2.03-11.08-3.08-16.35-5.32-25.58,2.91-.25,4.36-.35,7.27-.51,4.6,5.93,6.83,9.5,11.29,16.66,1.89-6.68,2.84-10.06,4.74-16.84,1.38.05,2.07.08,3.44.16.07.47.11.7.19,1.17-.87-.05-1.31-.07-2.18-.11Z"/>
  <path class="cls-7" d="M1303.79,804.57c-.67-2.52-.91-4.9-.66-6.78l3.96,14.72c-1.49-2.61-2.61-5.34-3.3-7.94ZM1326.01,825.79l-2.01-6.43c-.75,3.91-3.62,5.08-7.25,3.34-2.89-1.39-6-4.51-8.51-8.35l-4.84-17.86c.7-2.47,2.42-3.73,4.77-3.39,3,.43,6.84,3.37,10.09,8.01l-1.71-5.48.94.15,2.49,7.9-1.09-.27c-3.17-5.15-7.2-8.63-10.36-9.12-.43-.07-.84-.1-1.22-.05l7.47,26.17c.53.36,1.02.63,1.53.86,3.78,1.76,6.51.03,6.7-4.59l1.22.46,2.89,9.16-1.11-.52Z"/>
  <path class="cls-7" d="M1345.56,829.06l-.44-1.63,3.53-.57-8.22-28.89-3.2.95-.35-1.28,4.6-1.39,9.31,32-5.24.81ZM1352.32,828.01l-9.55-32.15,11.27-3.4.47,1.35-3.56,1.05,10,30,10.46-1.7-3.99-10.62,1.68-.35,4.77,12.48-21.55,3.35Z"/>
  <path class="cls-7" d="M1396.72,799.65l-6.88-18.53-3.64,1.81-.58-1.55,5.75-2.86,10.21,27.45c-2.27-1.53-3.91-3.75-4.86-6.31ZM1422.3,764.99l7.15,18.81c3.15,8.29-1.8,18.68-10.92,23-4.85,2.3-10.14,2.47-14.47.57l-11.05-29.69,14.28-7.11.59,1.57-3.39,1.68,12.01,32c.49-.23.95-.39,1.44-.63,8.17-3.88,12.65-13.09,9.8-20.58l-7.14-18.8-4.05,2.01-.6-1.58,9.97-4.96.6,1.58-4.24,2.1Z"/>
  <path class="cls-7" d="M1468.6,778.5l-.5-1.7,5.02-2.06-9.56-32.29-5.1,1.4-.48-1.63,7.77-2.08,10.48,35.18-7.63,3.18ZM1501.79,764.66l-23.28,9.71-10.43-34.85,21.96-5.89c6.07-1.63,11.68.77,13.09,5.15.94,2.93-.32,6.04-3.2,8.57,4.55-.38,8.31,1.69,9.42,5.12,1.4,4.32-1.93,9.84-7.55,12.19ZM1490.48,735.06l-9.22,2.53,4.36,14.13,9.14-3.08c4.86-1.64,7.75-5.9,6.59-9.51-1.15-3.59-6.01-5.4-10.87-4.07ZM1496.97,749.4l-10.91,3.75,4.46,14.46,10.8-4.43c4.68-1.92,7.45-6.46,6.29-10.06s-5.86-5.36-10.65-3.72Z"/>
  <g>
    <path d="M418.94,714.79c-.86-.22-1.05-.72-.58-1.47.86.22,1.05.72.58,1.47Z"/>
    <path d="M416.25,733.03c-.86-.22-1.05-.72-.58-1.47.86.22,1.05.72.58,1.47Z"/>
    <path d="M416.18,739.08c.19-.88.67-1.06,1.4-.56-.19.88-.67,1.06-1.4.56Z"/>
    <path d="M401.86,740.51c-.37-1.57.36-2.69,1.22-3.77,1.05.45,1.31,1.28,1.11,2.64-.68.33-1.49.73-2.32,1.13Z"/>
    <path d="M393.88,745.38c-.37-1.57.36-2.69,1.22-3.77,1.05.45,1.31,1.28,1.11,2.64-.68.33-1.49.73-2.32,1.13Z"/>
    <path d="M404.21,746.45c-.37-1.57.36-2.69,1.22-3.77,1.05.45,1.31,1.28,1.11,2.64-.68.33-1.49.73-2.32,1.13Z"/>
    <path d="M392.87,748.88c-.84,2.64-1.7,3.12-3.08,2.52-.06-1.78,1.58-1.34,3.08-2.52Z"/>
    <path d="M400.09,736c.76,2.27-1.27,1.96-2.27,2.61-.76-2.27,1.27-1.96,2.27-2.61Z"/>
    <path d="M398.91,762.23c-.76-2.27,1.27-1.96,2.27-2.61.76,2.27-1.27,1.96-2.27,2.61Z"/>
    <path d="M396.67,771.58c-1.3-.68-1.92-2.12-.87-2.82,1.34-.88.73,1.23,1.38,1.73.06.04-.32.69-.51,1.08Z"/>
    <path d="M398.45,729.77c-.86-.22-1.05-.72-.58-1.47.86.22,1.05.72.58,1.47Z"/>
    <path d="M392.08,736.59c.19-.88.67-1.06,1.4-.56-.19.88-.67,1.06-1.4.56Z"/>
    <path d="M400.93,733.94c-.4-.66-.27-1.24.32-1.65.1-.07.57.15.59.27.12.74-.18,1.24-.92,1.38Z"/>
    <path d="M400.09,736c-.44-1.01-.16-1.7.84-2.05.44,1.01.16,1.7-.84,2.05Z"/>
    <path d="M388.42,744.04c-.4-.66-.27-1.24.32-1.65.1-.07.57.15.59.27.12.74-.18,1.24-.92,1.38Z"/>
    <path d="M397.81,738.62c.4.66.27,1.24-.32,1.65-.1.07-.57-.15-.59-.27-.12-.74.18-1.24.92-1.38Z"/>
    <path d="M388.41,744.05c.44,1.01.16,1.7-.84,2.05-.44-1.01-.16-1.7.84-2.05Z"/>
    <path d="M401.84,740.46c.4.66.27,1.24-.32,1.65-.1.07-.57-.15-.59-.27-.12-.74.18-1.24.92-1.38Z"/>
    <path d="M393.87,745.33c.44,1.01.16,1.7-.84,2.05-.44-1.01-.16-1.7.84-2.05Z"/>
    <path d="M399.86,743.82c-.19.88-.67,1.06-1.4.56.19-.88.67-1.06,1.4-.56Z"/>
    <path d="M392.19,749.43c-.44-1.01-.16-1.7.84-2.05.44,1.01.16,1.7-.84,2.05Z"/>
    <path d="M397.77,748.93c-.86-.22-1.05-.72-.58-1.47.86.22,1.05.72.58,1.47Z"/>
    <path d="M399.64,747.34c.19-.88.67-1.06,1.4-.56-.19.88-.67,1.06-1.4.56Z"/>
    <path d="M404.2,746.4c.4.66.27,1.24-.32,1.65-.1.07-.57-.15-.59-.27-.12-.74.18-1.24.92-1.38Z"/>
    <path d="M399.66,751.62c-.63.4-1.2.24-1.61-.38-.07-.1.13-.59.25-.6.71-.1,1.21.22,1.37.98Z"/>
    <path d="M401.1,751.05c-.4-.66-.27-1.24.32-1.65.1-.07.57.15.59.27.12.74-.18,1.24-.92,1.38Z"/>
    <path d="M399.66,751.62l1.43-.56c.44,1.01.16,1.7-.84,2.05l-.59-1.48Z"/>
    <path d="M400.25,753.12c.4.66.27,1.24-.32,1.65-.1.07-.57-.15-.59-.27-.12-.74.18-1.24.92-1.38Z"/>
    <path d="M397.15,757.76c-.4-.66-.27-1.24.32-1.65.1-.07.57.15.59.27.12.74-.18,1.24-.92,1.38Z"/>
    <path d="M397.15,757.77c.44,1.01.16,1.7-.84,2.05-.44-1.01-.16-1.7.84-2.05Z"/>
    <path d="M396.31,759.82c.44,1.01.16,1.7-.84,2.05-.44-1.01-.16-1.7.84-2.05Z"/>
    <path d="M401.18,759.6c-.4-.66-.27-1.24.32-1.65.1-.07.57.15.59.27.12.74-.18,1.24-.92,1.38Z"/>
    <path d="M395.47,761.87c.44,1.01.16,1.7-.84,2.05-.44-1.01-.16-1.7.84-2.05Z"/>
    <path d="M393.79,765.97c-.44-1.01-.16-1.7.84-2.05.44,1.01.16,1.7-.84,2.05Z"/>
    <path d="M398.07,764.28c-.44-1.01-.16-1.7.84-2.05.44,1.01.16,1.7-.84,2.05Z"/>
    <path d="M397.23,766.33c-.44-1.01-.16-1.7.84-2.05.44,1.01.16,1.7-.84,2.05Z"/>
    <path d="M396.39,768.38c-.44-1.01-.16-1.7.84-2.05.44,1.01.16,1.7-.84,2.05Z"/>
    <path d="M682.07,643.29l-1.43.56-1.18-2.97c1.17-.2,2.44-1.82,3.44.36-1,.35-1.28,1.04-.84,2.05Z"/>
    <path d="M677.12,634.95l.59,1.48c-.67.33-1.36.43-1.52-.54-.04-.26.6-.63.93-.95Z"/>
    <path d="M678.88,639.4l.59,1.48c-.67.33-1.36.43-1.52-.54-.04-.26.6-.63.93-.95Z"/>
    <path d="M680.64,643.86l.59,1.48c-.67.33-1.36.43-1.52-.54-.04-.26.6-.63.93-.95Z"/>
    <path d="M681.82,646.83c.44,1.01.16,1.7-.84,2.05-.44-1.01-.16-1.7.84-2.05Z"/>
    <path d="M675.99,650.86c.86.22,1.05.72.58,1.47-.86-.22-1.05-.72-.58-1.47Z"/>
    <path d="M680.98,648.88c.44,1.01.16,1.7-.84,2.05-.44-1.01-.16-1.7.84-2.05Z"/>
    <path d="M674.71,653.93c-.19.88-.67,1.06-1.4.56.19-.88.67-1.06,1.4-.56Z"/>
    <path d="M680.14,650.93l.59,1.48c-.67.33-1.36.43-1.52-.54-.04-.26.6-.63.93-.95Z"/>
    <path d="M678.15,654.29c-.19.88-.67,1.06-1.4.56.19-.88.67-1.06,1.4-.56Z"/>
    <path d="M682.74,653.33l-1.43.56-.59-1.48c.97-.43,1.64-.12,2.02.92Z"/>
    <path d="M681.32,653.9l.59,1.48c-.67.33-1.36.43-1.52-.54-.04-.26.6-.63.93-.95Z"/>
    <path d="M625.23,487.16l1.43-.56c.34.7.46,1.42-.48,1.55-.26.04-.63-.64-.95-.99Z"/>
    <path d="M589.97,544.05c-.4-.66-.27-1.24.32-1.65.1-.07.57.15.59.27.12.74-.18,1.24-.92,1.38Z"/>
    <path d="M585.68,545.74c-.4-.66-.27-1.24.32-1.65.1-.07.57.15.59.27.12.74-.18,1.24-.92,1.38Z"/>
    <path d="M589.91,539.78c-.19.88-.67,1.07-1.41.56.19-.88.67-1.07,1.41-.56Z"/>
    <path d="M381.95,756.92l1.43-.56,1.15,2.9c-2.39.31-1.91-1.54-2.57-2.33Z"/>
    <path d="M386.9,765.26l.59,1.48-1.43.56c-.44-1.01-.16-1.7.84-2.05Z"/>
    <path d="M587.78,555.23l-1.43.56c-.44-1.01-.16-1.7.84-2.05l.59,1.48Z"/>
    <path d="M582.91,555.43c-.4-.66-.27-1.24.32-1.65.1-.07.57.15.59.27.12.74-.18,1.24-.92,1.38Z"/>
    <path d="M586.94,557.28l-1.43.56c-.44-1.01-.16-1.7.84-2.05l.59,1.48Z"/>
    <g>
      <path d="M587.26,555.04c.16.02.32.08.51.18-.17-.09-.33-.18-.5-.27,0,.03,0,.06-.01.08Z"/>
      <path d="M394.88,763.29c-.1.25-.2.49-.3.73.01-.03.02-.05.03-.08.11-.26.21-.51.31-.76-.02.04-.03.07-.05.11Z"/>
      <path d="M395.43,762c-.06.04-.1.07-.11.08-.05.2-.11.38-.18.57,0-.02.01-.04.02-.05-.01.03.32-.55.3-.51,0,.01-.02-.03-.04-.08Z"/>
      <path d="M386.92,766.53c.19.07.38.15.57.22-.24-.07-.41-.17-.54-.29,0,.02-.02.05-.03.07Z"/>
      <path d="M586.4,557.09c.16.02.34.07.54.18-.16-.09-.32-.17-.48-.26-.02.03-.04.05-.06.07Z"/>
      <polygon points="387.54 745.91 387.57 746.1 387.72 745.98 387.54 745.91"/>
      <path d="M681.47,643.01c.18.03.37.12.6.28-.19-.26-.38-.52-.57-.78,0,.17-.01.34-.03.5Z"/>
      <path d="M681.5,642.08s0,0,0,.01c.09-.24.2-.43.36-.57-.17,0-.33.02-.49,0,.07.18.12.36.14.56Z"/>
      <path d="M533.32,402.75c-1.68.5-3.53.78-5.69.03-2.05-4.29-7.16-7.04-8.3-12.37,2.04-1.43,4.2-2.36,6.46-3.05-1.04-1.87-2.14-3.72-3.29-5.52-5.06,1.86-10.04,3.95-15.05,5.94-1.42.56-3.23.76-4.2,1.78-3.25,3.43-7.39,5.39-11.26,7.83-2.62,1.65-5.09,3.58-7.46,5.59-1.09.92-2.18,1.86-3.26,2.79.07,2.78-.14,5.53-.58,8.25,3.37-2.76,7.06-5.21,10.51-8.19,4.09,2.29,7.68,5.14,11.62,8.58-2.11,1.79-3.95,3.52-5.96,5.01-1.95,1.44-4.71,1.11-6.37,3.62-1.56,2.35-4.89,2.27-7.16,3.54-2.15-.84-3.56-2.22-4.94-3.56-.27.78-.56,1.56-.86,2.34,1.43.85,2.76,1.87,3.93,3.29-2.98,2.33-5.85,4.82-8.85,7.1-1.81,3.28-3.8,6.46-5.86,9.55,1.92-.81,3.66-1.41,4.95-2.55,3.5-3.09,7.46-5.32,11.33-7.8,3.14-2.02,7.28-2.94,9.4-5.5,2.44-2.94,6.46-2.37,8.12-4.89,2.18-3.3,5.64-3.08,8.36-4.7,2.72-1.62,6.38-1.45,8.2-4.88.47-.89,2.24-1.26,3.47-1.41,1.5-.17,3.06,1.5,4.45-.96.7-1.23,3.31-.16,5.1-1.07,1.9-.97,3.85-1.77,5.83-2.46-.84-2.12-1.72-4.23-2.64-6.33ZM522.49,386.12c-.19.88-.67,1.07-1.41.56.19-.88.67-1.07,1.41-.56ZM509.65,391.2c-.19.88-.67,1.07-1.41.56.19-.88.67-1.07,1.41-.56ZM497.82,396.76c.86.22,1.05.71.58,1.46-.86-.22-1.05-.71-.58-1.46ZM524.99,406.41c-6.24,2.47-12.59,4.98-18.91,7.49-4.27-1.71-6.52-6.04-10.77-8.81,5.09-6.96,12.75-9.02,19.67-11.53,5.09,2.44,6.6,7.75,11.02,10.06-.29.81-.62,1.7-1.01,2.79Z"/>
      <path d="M689.12,649.43c-1.5-6.44-2.18-13.35-5.65-19.33-.26-.45-.69-1.12-.55-1.46,1.55-3.73-2.06-6.44-2.04-9.62.02-3.8-1.47-6.96-2.56-10.36-1.49-4.63-4.53-8.75-4.1-14.06.15-1.87-.89-4.74-2.31-5.75-2.85-2.03-3.07-5.26-4.15-6.88-5.37-4.78-9.7-9.28-15.09-12.32-10.32-5.83-21.15-7.96-32.8-6.66-9.12,1.02-18.38,1.61-27.6-.4-.73-2.45.51-4.46,1.6-5.89,3.64-4.74,7.16-9.85,11.73-13.5,8.74-6.99,14.89-16.04,19.59-25.92,4.45-9.34,8.92-18.8,10.23-29.64.94-7.76.88-15.42-1.07-22.74-2.34-8.76-6.28-17.03-8.65-25.93-2.51-9.44-6.98-18.39-10.65-27.52-.47-1.17-.82-2.34-1.74-3.42-9.17-10.8-19.05-20.36-32.36-25.82-.48-.2-.97-.38-1.45-.58,1.03,2.04,1.94,4.16,2.81,6.33,8.8,4.23,15.75,9.61,20.56,18.12-.68,1.13-1.73,1.74-2.53.89-3.13-3.3-6.93-4.45-11.18-5.33-.72-.15-1.43-.39-2.14-.68.72,2.21,1.41,4.44,2.03,6.68.35.12.7.23,1.04.36,5.19,1.99,10.32,3.72,14.68,7.22,4.38,3.51,8.5,7.08,11.88,12.03,6.97,10.21,9.66,21.46,9.02,33.69-.35,6.63-1.13,13.2-2.76,19.8-3.13,12.65-8.78,23.72-17.63,32.43-5.89,5.8-11.77,11.84-18.55,16.72-3.4,2.45-5.99,5.43-7.69,9.62-1.65,4.09-1.59,8.34-2.38,12.72,1.07,2.72,1.89,5.91,3.52,8.6,1.89,3.12.65,6.53,1.99,9.69,3.33,7.82,6.32,15.78,9.11,22.82,7.95,7.95,16.86,8.41,25.96,6.73,1.79-.33,3.36.46,5.04-.04,1.87-.56,3.51-1.54,5.69-1.62,5.33-.19,10.47.76,15.7,1.61,6.09,1,11.74,3.31,17.03,6.32,3.97,2.26,8.12,5.01,8.97,10.56-1.98,3.29-4.67,5.94-7.47,8.64-5.39,5.19-12.7,5.86-18.92,9.02-.31.16-.97-.51-1.4-.44-7.98,1.26-15.86-.86-23.48-2.53-10.02-2.2-20.01-1.88-30-2.63-8.59-.64-17.14.57-25.7,1.19-4.12.3-8.15,1.23-12.02,2.01-3.31.66-6.85.52-10.09,1.82-3.17,1.27-6.22,2.52-9.96,2.55-3.37.03-6.82,2.08-9.96,3.76-3.2,1.72-6.76.5-10.09,2.02-8.38,3.81-17.14,6.75-25.61,10.36-8.29,3.53-17.12,5.75-24.63,11.24-4.14,3.02-9.39,4.11-13.9,7.03-5.69,3.69-11.62,7.18-17.55,10.5-5.12,2.87-9.01,7.52-14.56,9.59-8.65,9.19-19.4,16.05-26.73,26.8-4.65,6.82-9.89,13.24-12.04,21.41-1.96,7.41-2.83,15.15.14,22.71,9.32,23.79,18.75,47.54,28.23,71.26.73,1.82,1.59,3.57,2.93,5.3,5.48,7.03,12.18,11.76,20.16,15.21,6.34,2.74,12.61,3.5,19.3,3.27,5.15-.18,10.03-1.73,15-2.12,7.06-.55,13.95-2.07,20.59-3.81,9.35-2.46,18.03-7.25,27.24-10.34,9.13-3.06,16.57-9.6,25.9-12.1.48-.13,1.23-.28,1.34-.62,1.11-3.35,4.33-3.4,6.8-4.17,2.77-.86,3.68-3.9,6.6-4.59,4.34-1.03,7.04-5.56,11.7-6.22,1.37-3.33,4.71-3.51,7.41-4.58,2.78-1.11,4.33-3.76,7.31-4.84,12.5-4.55,24.8-9.65,37.17-14.54.95-.38,1.89-1.06,2.86-1.08,6.74-.18,13.16-2.36,19.82-3.12-1.41-6.27-.86-13.34-5.86-18.33-1,1,2,1,1,2,1-1-2-1-1-2v-.26s-.07-.04-.11-.06c-4.11-10.38-8.28-20.92-12.32-31.12.06-.6.19-1.11.36-1.54-2.17-6.37-3.97-13.18-6.78-19.52-11.4-2.4-22.27,1.25-32.96,3.46-9.43,1.95-19.08,4.42-27.96,8.81-5.26,2.6-10.79,4.77-16.4,6.5-10.92,3.38-20.33,9.99-30.91,14.04-.48.18-1.24.24-1.38.59-1.13,2.75-3.7,3.57-6.03,3.93-3.08.47-4.12,3.48-6.64,4.51-4.11,1.67-8.61,2.65-11.68,6.32-8.24,2.44-14.73,8.62-23.07,10.91-3.19.88-6.32,2.16-9.27,3.66-8.75,4.46-18.2,5.6-27.85,5.76-3.65.06-7.42.19-11.14-1.75,6.29-9.83,12.52-19.09,20.77-26.55,5.32-4.81,10.18-10.19,16.95-13.32,3.24-1.5,7.01-3.2,9.34-5.58,2.58-2.62,5.53-3.37,8.42-4.53,3.05-1.22,4.51-4.8,8.05-5.07.74-.06,1.42-.55,2.15-.81,29.98-10.71,58.35-25.81,89.87-32.39,4.26-.89,8.9-.95,12.9-3.13,3.02,1.75,5.6-.8,8.56-.74,8.56.17,17.11-.66,25.68-.72,5.69-.04,11.51.48,17.07,1.29,5.7.83,11.5.91,17.15,2.26,6.19,1.49,11.74-2.37,17.83-1.89,9.94-3.77,18.72-8.6,25.11-18.16,4.84-7.23,4.92-14.59,3.22-21.91ZM606.15,409.28c-.64-1.62-1.49-3.76-2.43-6.14,6.97,5,9.72,8.43,11.41,14.3-3-2.72-5.8-5.27-8.99-8.16ZM678.54,627.7c.1-.07.57.15.59.27.12.74-.18,1.24-.92,1.38-.4-.66-.27-1.24.32-1.65ZM673.97,620.74c.86.22,1.05.72.58,1.47-.86-.22-1.05-.72-.58-1.47ZM622.42,565.57c.86.22,1.05.72.58,1.47-.86-.22-1.05-.72-.58-1.47ZM617.14,566.79c-.54,1.46-1.49,1.84-2.88,1.14.54-1.46,1.49-1.84,2.88-1.14ZM628.5,470.37c-.38-.65-.25-1.22.34-1.62.1-.07.57.15.59.27.12.74-.18,1.24-.92,1.38,0,0,0-.02-.01-.03.38,1.69,1.36,2.76,2.92,3.25,1.6,1.47-.82,2.83.05,4.38.73,1.3,1.15,2.79,1.79,4.4-2.68,0-2.02-3.67-4.2-2.56-1.4-2.08.75-3.74-.56-5.59-.66-.93-2.15-2.66,0-3.89ZM625.23,487.16c-.34-.7-.46-1.42.48-1.55.26-.04.63.64.95.99,2.4-.62-.29-2.83,1.5-4.12.89,2.66,2.98,4.68,2.39,7.8-.89,4.72-.54,9.87-4.23,14.23-2.46-2.63-2.81-5.81-4.06-8.12,1.06-3.27,2.02-6.25,2.98-9.23ZM614.93,508.62c3.28-2.51,2.22-7.47,5.82-9.54,4.44,2.79.92,8.04,3.78,11.07-3.44,9.42-5.7,13.07-10.98,17.61-1.27-3.21-2.52-6.36-3.89-9.83.95-3.26,2.37-7.1,5.27-9.31ZM593.86,530.73c4.69-1.95,7.31-7.78,12.75-10.61,1.19,3.01,2.24,5.65,3.45,8.72-.38,8.13-7.43,11.72-12.46,17.1-2.65-4.59-4.16-9.38-3.74-15.21ZM582.63,558.98c.12-1.53.2-2.54.27-3.54-2.67-1.11-3.54-3.3-2.35-5.94.8-6.23,4.3-10.81,8.58-15.22,1.67,4.21,3.3,8.34,5.02,12.68-.57,1.4-1.26,3.08-2.02,4.92-3.14-2.22.19-4.08-.29-6.49-.25-.32-1.65-.03-1.89-1.33-.41.52-.86,1.01-1.23,1.55-.94,1.4-1.9,2.04-3.06.14-1.13.45-2.4.66-2.73,2.22-.26,1.25-1.6.99-2.39,1.52.19.96.88,1.15,1.66,1.05,2.49-.32,4.28.5,4.98,3.19,1.23-.25.99-1.6,1.62-2.31,1.08.36,1.45,1.2,1.41,2.24-.42,1.24-1.64,1.04-2.44,1.55.44,1.01.16,1.7-.84,2.05.34.7.46,1.42-.48,1.55-.26.04-.63-.64-.95-.99-.83.33-1.65.65-2.88,1.14ZM591.47,589.41c-2.89-5.09-4.5-12.08-5.6-19.32.99-.82,1.63.61,2.77.56,2.86,7.23,5.74,14.51,9.04,22.85-2.3-1.51-3.76-2.47-6.22-4.09ZM603.2,594.98c-.09-4.48-4.04-6.52-5.38-10.15-1.36-3.68-2.87-7.31-4.48-11.38,10.35-2.42,20.5.48,30.2-2.23,2.76,6.98,5.18,13.09,8.03,20.3-9.53,1.59-18.61,3.54-28.38,3.45ZM658.35,595.29c-5.23-2.53-10.5-4.5-16.35-3.15-2.17.5-3.69-1.58-5.72-1.81-2.12-6.34-5.35-12.14-6.77-18.59-.14-.63.53-1.43.71-1.86,8.67-1.49,15.87,2.94,23.51,6.33,2.56,6.46,5.16,13.04,7.83,19.79-1.34,1.05-2.32-.27-3.21-.7ZM665.22,596.66c-1.95-5.42-4.19-10.72-6.31-16.08,4.16,2.93,7.71,6.11,9.33,10.97.72,2.15,1.22,4.59,3.88,5.48-.08,2.21-.39,4.44.53,6.43-.18.77-.48.7-1.14.36-3.01-1.56-5.09-3.82-6.3-7.16ZM668.59,628c1.43.59,1.83,1.58,1.19,3-1.43-.59-1.83-1.58-1.19-3ZM665.42,633.76c-.78.96-1.51,1.85-2.35,2.89-.32-.82-.58-1.47-.81-2.04.58-1.18,1.37-1.48,3.16-.85ZM652.49,638.03c1.8-.06,1.74,1.07,1.4,2.79-1.47-.74-1.75-1.58-1.4-2.79ZM638.31,640.86c-.79,1.44-1.56,1.8-2.71,1.32-.05-1.84,1.03-1.77,2.71-1.32ZM627.8,639.7c-.25,1.47-1.16,1.38-1.74,1.72-1.11-.33-1.52-1.13-1.5-2.45,1.42-.76,2.12.88,3.25.73ZM615.79,637.1c1.8-.06,1.74,1.07,1.4,2.79-1.47-.74-1.75-1.58-1.4-2.79ZM607.04,635.18c1.43.59,1.83,1.58,1.19,3-1.43-.59-1.83-1.58-1.19-3ZM599.48,635.36c.05,1.84-1.03,1.77-2.71,1.32.79-1.44,1.56-1.8,2.71-1.32ZM588.99,635.48c.86.22,1.05.72.58,1.47-.86-.22-1.05-.72-.58-1.47ZM579.41,634.72c.05,1.84-1.03,1.77-2.71,1.32.79-1.44,1.56-1.8,2.71-1.32ZM568.49,635.86c-.19.88-.67,1.07-1.41.56.19-.88.67-1.07,1.41-.56ZM560.48,638.68c-1.15-.88-2.06-1.58-3.15-2.41,1.69-1.05,3.21-2.18,3.15,2.41ZM548.6,637.73c.86.22,1.05.72.58,1.47-.86-.22-1.05-.72-.58-1.47ZM540.88,639.07c.86.22,1.05.72.58,1.47-.86-.22-1.05-.72-.58-1.47ZM533.54,643.53c-1.11.44-1.74.69-2.16.85-1.22-.25-1.15-1.2-1.59-1.96,1.38-1.82,2.56-2.26,3.75,1.1ZM519.68,644c1.48.55,1.84,1.56,1.22,2.96-.48.19-.95.37-1.41.56-1.12-.32-1.54-1.13-1.5-2.17.14-1.09,1.08-.98,1.69-1.35ZM512.23,647.77c-.68,1.49-1.49,1.76-2.67,1.37-.1-1.85.99-1.76,2.67-1.37ZM503.32,651.07c.1,1.85-.99,1.76-2.67,1.37.68-1.49,1.49-1.76,2.67-1.37ZM494.02,654.18c.86.22,1.05.72.58,1.47-.86-.22-1.05-.72-.58-1.47ZM486.47,658.01c-.54,1.46-1.49,1.84-2.88,1.14.54-1.46,1.49-1.84,2.88-1.14ZM476.89,660.96c.86.22,1.05.72.58,1.47-.86-.22-1.05-.72-.58-1.47ZM469.32,664.8c-.19.88-.67,1.07-1.41.56.19-.88.67-1.07,1.41-.56ZM452.77,673.07c-.19.88-.67,1.06-1.4.56.19-.88.67-1.06,1.4-.56ZM422.72,690.98c.86.22,1.05.72.58,1.47-.86-.22-1.05-.72-.58-1.47ZM414.67,695.76c1.47.74,1.75,1.58,1.4,2.79-1.8.06-1.74-1.07-1.4-2.79ZM408.35,702.67c-.19.88-.67,1.06-1.4.56.19-.88.67-1.06,1.4-.56ZM393.16,716.42c.86.22,1.05.72.58,1.47-.86-.22-1.05-.72-.58-1.47ZM389.12,725.3c.05,2.03-1.03,1.96-2.64,1.53.68-1.58,1.58-1.58,2.64-1.53ZM382.16,734.51c.86.22,1.05.72.58,1.47-.86-.22-1.05-.72-.58-1.47ZM389.59,786.66c-1.42-.85-1.79-1.65-1.36-2.82,1.79,0,1.75,1.11,1.36,2.82ZM390.36,774.2c-1.38.59-1.61-.55-2.2-1.41-.39-.58-1.26-.81-1.93-1.21.63-1.39.71-2.83-.17-4.27-.23.09-.59.12-.67.28-.3.68-.5,1.41-.79,2.26-2.32-2.14-2.93-4.54-2.29-7.3-.92-.41-1.94-.65-2.18-1.95.22-1.38.44-2.83,1.81-3.68-.19-.96-1.16-1.76-.53-3.06.49-.19,1.12-.44,1.79-.71,1.52,1.07-.93,2.2.17,3.21,2.81-.57,2.97,2.49,2.66,3.23-.96,2.26.33,3.84.87,5.68.67-.33,1.36-.43,1.52.54.04.26-.6.63-.93.95l3.92,6.48c-.35.32-.7.65-1.05.97ZM419.97,846.65c-1.49-.55-1.72-1.6-1.29-2.94.54-.22,1.01-.4,1.47-.58,1.12.32,1.54,1.13,1.5,2.17-.14,1.09-1.08.98-1.69,1.35ZM430.99,849.01c-1.65-.34-3.2-.69-3.75-2.68.33-1.11,1.09-1.52,2.19-1.42,1.24,1.02,1.73,2.34,1.56,4.1ZM440.58,846.71c-.16-1.46.71-1.81,1.89-1.95,1.89.84,1.36,2.75,2.5,5.06-2.11-1.5-3.96-1.33-4.39-3.11ZM458.08,847.02c-.48.19-.95.37-1.41.56-1.12-.32-1.54-1.13-1.5-2.17.14-1.09,1.08-.98,1.69-1.35,1.48.55,1.84,1.56,1.22,2.96ZM470.1,845.1c-.75-.55-3.05-.29-2.92-2.82,1.4-2.32,2.92-.43,5.11.16-.81.98-1.53,1.87-2.19,2.66ZM482.08,840.97c-1.43-.59-1.83-1.58-1.19-3,1.43.59,1.83,1.58,1.19,3ZM495.29,837.3c-1.17-.62-1.47-1.45-.91-3.28.96.83,1.84,1.6,2.87,2.5-.78.31-1.41.56-1.96.78ZM506.81,832.92c-1.8-1.47-2.27-2.7.97-3.83.46,1.15.72,1.81.89,2.25-.21,1.25-1.13,1.15-1.86,1.58ZM513.89,827.51c.54-1.46,1.49-1.84,2.88-1.14-.54,1.46-1.49,1.84-2.88,1.14ZM530.06,820.25c-1.11-.33-1.52-1.13-1.5-3.05,1.24.55,2.25.99,3.23,1.42-.23,1.38-1.14,1.28-1.73,1.63ZM546.45,812.65c-3-.27-2.93-2.27-3.36-3.8.13-1.06,1.08-.94,1.73-1.33,1.72,1.04,2.28,2.54,1.64,5.13ZM558.74,803.78c-1.54.19-1.78-.84-2.08-1.85.82-2.06,2.69-1.46,4.91-2.57-1.41,2.13-1.18,4.04-2.82,4.42ZM575.16,795.52c-1.34.22-1.71-.7-1.9-1.98.46-1.63,2.16-1.39,3.47-1.86q-.52,2.41-1.57,3.84ZM589.21,787.95c-.35-.88-.61-1.54-.84-2.13.87-1.75,2.6-1.12,3.76-2.52,2.02,4.66-1.2,3.82-2.91,4.65ZM606.23,781.17c-.41-1.03-.6-1.51-.78-1.97.69-1.7,2.24-1.68,3.88-1.99.44,1.11.89,2.25,1.6,4.04-1.88-.06-3.34-1.07-4.7-.08ZM621.36,774.38c1.13,1.39,4.38-1.5,4.25,2.35-.6,1.34-2.11,1.09-3.66,2.17-.7-1.78-1.16-2.92-1.55-3.91.08-.97.48-1.19.96-.61ZM603.95,722.6c1.22,1.03,1.74,2.34,1.52,4.27-1.29-1.07-2.45-2.03-3.66-3.03.29-.94,1.05-1.35,2.15-1.23ZM589.48,722.73c.61,1.31.97,1.98,1.24,2.68.17.46.21.96.3,1.45-.62,1.36-2.13,1.11-3.13,1.8-1.92-.58-1.24-2.59-2.24-3.37.82-1.79,2.33-1.54,3.83-2.57ZM572.41,726.44c1.43.61,1.41,2.23,1.77,3.82-2.49,2.22-4.68,1.67-7.52-1.55,2.41-.95,3.97-1.57,5.75-2.28ZM554.76,733.16c1.51.24,1.43,1.21,1.83,1.89-.97,1.74-2.41,2.28-4.59,1.65-.56-3.67,2.36-2.33,2.77-3.54ZM545.76,748.62c5.92-.78,9.4-6.27,15.11-7.54,11.58-2.58,22.74-6.82,34.9-7.17,3.91-.11,7.27.36,10.69,2.01,4.11,10.38,8.22,20.76,12.34,31.18-.58,1.4-.87,2.13-1.17,2.85-4.45,2.24-9.28,3.06-14.06,4.3-7.37,1.91-14.28,5.51-21.47,8.16-2.62.97-3.75,3.79-6.6,4.54-2.24.59-4.65,1.09-6.22,3.8-.82,1.42-3.87,2.73-6.15,1.92-2.37-.84-3.76,1.18-5.86,1.13-1.52-1.45-1.91-4.07-4.39-4.94,1.11-2.4.11-4.51-.75-6.66-3.44-8.63-6.85-17.28-10.23-25.83.32-3.13,3.97-4.05,3.87-7.74ZM538.13,740.03c1.02.2.95,1.15,1.65,2.37-1.7.67-2.8,1.11-3.7,1.46-1.23-.23-1.15-1.19-1.52-1.83.61-1.78,2.24-1.66,3.57-2ZM519.75,748.9c.57-.23,1.2-.48,1.77-.7,1.37,1.13,1.89,2.45,1.67,4.21-.57.23-1.2.48-1.77.7-1.37-1.13-1.89-2.45-1.67-4.21ZM506.24,755.84c2.9,1.53.63,3.31.29,5.06-.9-.45-1.79-.89-3.02-1.51.77-1.53.83-3.26,2.73-3.55ZM492.34,762.14q1.7,3.49-.64,3.88c.15-.91.34-2.04.64-3.88ZM482.27,769.15c.31.49.69,1.1,1.25,2-2.12,1.88-3.12,1.38-3.7-.58.33-1.12,1.1-1.53,2.45-1.42ZM476.12,783.2c2.48-.98,5.24-2.53,8.2-3.13,3.67-.74,5.34-4.28,8.74-5.45,3.16-1.09,7.13-1.23,8.88-5.05.08-.17.45-.23.69-.29,7.94-1.77,13.58-8.57,21.65-10.04,1.99,3.19,5.95,5.6,5.84,9.53-.16,5.86,2.46,10.77,4.92,15.41,1.77,3.33,3.72,6.62,5.39,10.06,1.42,2.91,1.45,5.85,1.4,9.03-3.91,3.51-8.4,6.23-12.9,9.09-8.2,5.21-17.32,7.99-26.06,11.78-.7.31-1.5.45-2.13.87-5.33,3.52-7.84,3.74-13.8,1.13-4.9-12.37-9.79-24.74-14.86-37.54,1.48-1.98,2.65-3.54,4.03-5.39ZM468.5,776.15c.4.64.77,1.25,1.51,2.46-1.31.52-1.93.76-3.26,1.29.26-1.7.53-2.78,1.75-3.75ZM454.28,783.24c1.43.59,1.83,1.58,1.19,3-1.43-.59-1.83-1.58-1.19-3ZM444.55,787.35c1.05.17.96,1.13,1.34,1.77-.5,1.51-1.46,1.85-2.84,1.18-.2-.5-.39-.98-.58-1.46.28-1.14,1.05-1.56,2.09-1.49ZM428.73,789.7c1.62,1.23,2.19,2.53,1.99,4.82-1.71-1.33-2.17-2.67-1.99-4.82ZM415.54,790.19c1.65.31,3.25.62,3.7,2.7-.36,1.1-1.13,1.49-2.22,1.34-1.16-1.08-1.76-2.35-1.49-4.04ZM459.31,790.63c3.67,2.27,3.58,8.19,5.11,12.09,3.77,9.63,6.84,19.96,10.89,30.2-14.06,6.76-23.07,10.42-37.61,6.55-2.86-12.54-4.52-26.09-12.67-38.52,13.25.32,22.44-4.46,34.28-10.33ZM427.25,839.47c-.94.52-9.42-3.81-9.74-3.92-6.62-2.27-12.73-5.66-15.52-12.28-3.91-9.23-6.44-19.49-10.16-28.88.71-.16.91-.27,1.06-.23,18.66,5.27,21.85,1.74,27.19,14.95,2.95,7.32,7.18,21.88,7.18,30.35ZM395.42,786.47q2.48.68,3.87,1.81c.26,1.42-.77,1.63-2.31,2.14-.63-1.6-1.08-2.74-1.56-3.95ZM406.66,791.59c-1.8.06-1.74-1.07-1.4-2.79,1.47.74,1.75,1.58,1.4,2.79ZM405.01,769.26c.19-.88.67-1.06,1.4-.56-.19.88-.67,1.06-1.4.56ZM411.37,762.44c-.86-.22-1.05-.72-.58-1.47.86.22,1.05.72.58,1.47ZM403.76,763.29c-3.13,4.01-4.58,8.81-6.69,15.28-1.82-5.33-4.34-8.44-3.29-12.6-.81.52-1.53.15-1.85-.58-1.03-2.37-1.93-4.8-2.81-7.02.59-1.43,1.07-2.62,1.76-4.3-1.18-.21-2.36-.42-3.75-.68.17-2.84.31-5.07.44-7.29-.48-.01-.95-.03-1.86-.05-.64-10.62,7.33-16.63,11.27-24.28.7-.28.97-.5,1.17-.44.97.31,1.92.69,3.14,1.14.68,2.28,2.25,4.29,2.14,7.13-.08,2.06,2.46,3.21,2.99,5.45.6,2.56,1.87,4.97,2.85,7.44.88,2.23,1.76,4.45,2.64,6.68-1.42,5.51-4.81,9.85-8.14,14.12ZM416.6,756.52c-.32-.82-.58-1.47-.81-2.04.58-1.18,1.37-1.48,3.16-.85-.78.96-1.51,1.85-2.35,2.89ZM424.74,750.31c-1.43-.59-1.83-1.58-1.19-3,1.43.59,1.83,1.58,1.19,3ZM430.48,744.45c.05-1.24.1-2.44.2-4.77,1.19,1.97,1.56,2.58,1.9,3.15-.58,1.55-1.53,1.91-2.1,1.62ZM438.1,737.08c.89-.96,1.68-1.82,2.49-2.71.23.58.49,1.23.72,1.81-.53,1.2-1.33,1.46-3.21.9ZM448.99,732.21c-1.47-.74-1.75-1.58-1.4-2.79,1.8-.06,1.74,1.07,1.4,2.79ZM449.01,721.61c-11.44,5.59-21,15.1-31.26,25.17-4.06-10.26-7.76-19.61-11.66-29.47-.45-7.73,5.77-11.46,10.94-15.27,5.05-3.71,9.87-8.19,16.1-9.91,2.23-.62,1.37-4.63,4.79-4.33.98.9,1.96,1.8,2.93,2.7.11-.27.23-.55.34-.82,1.08,2.72,1.98,5.53,3.28,8.14,1.34,2.67,1.09,6.37,4.57,7.75-1.34,3.19.28,5.3,2.59,7.48-.21,2.61.1,5.69-2.62,8.57ZM461.86,721c.19-.88.67-1.06,1.4-.56-.19.88-.67,1.06-1.4.56ZM470,718.65c-1.43-.59-1.83-1.58-1.19-3,1.43.59,1.83,1.58,1.19,3ZM476.8,715.67c-1.26-1.03-1.75-2.35-1.57-4.11,1.65.34,3.2.69,3.74,2.68-.32,1.12-1.1,1.51-2.17,1.43ZM484.11,710.49c-.2-.5-.39-.98-.58-1.46.28-1.15,1.05-1.55,2.07-1.49,1.07.17.98,1.14,1.36,1.78-.5,1.51-1.46,1.85-2.84,1.18ZM495.15,707.1c-1.42-.85-1.79-1.65-1.36-2.82,1.79,0,1.75,1.11,1.36,2.82ZM502.12,704.24c-1.8-1.46-2.27-2.7.97-3.83.46,1.15.72,1.81.89,2.25-.21,1.25-1.13,1.15-1.86,1.58ZM505.01,694.47c-4.41,1.74-9.19,3.42-13.79,5.51-7.71,3.5-16.29,5.04-23.08,10.68-1.86,1.54-4.62,1.95-6.87,2.84-1.39-1.32-2.62-2.5-3.75-3.57-.67-.98.11-1.58.27-2.85-.09-.91-1.77-.64-2.32-1.91-1.09-2.53-1.33-5.27-2.58-7.86-1.01-2.1-2.35-4.4-3.02-6.75-.95-3.35-1.85-6.85.02-10.39,9.29-2.71,16.94-9.26,26.3-12.35,2.72-.9,5.15-3.47,8.11-4.75,3.37-1.46,6.57-1.69,10.28-.2,3.93,9.92,7.73,19.46,11.42,29.05.2.53-.53,1.42-.99,2.55ZM512.25,700.2c-.48.19-.95.37-1.41.56-1.12-.32-1.54-1.13-1.5-2.17.14-1.09,1.08-.98,1.69-1.35,1.48.55,1.84,1.56,1.22,2.96ZM521.08,696.05c-.18,1.08-1.1.98-1.99,1.51-1.82-2.15-1.36-3.17.54-3.71,1.09.37,1.53,1.16,1.46,2.2ZM528.6,695.67c-1.66-1.39-2.18-2.7-1.92-4.85,1.56,1.27,2.21,2.54,1.92,4.85ZM536.89,692.02c-1.18-.58-1.46-1.41-.98-3.25.87,1.1,1.66,2.08,2.21,2.77-.05.02-.67.27-1.23.49ZM546.16,687.72c.23-1.38,1.14-1.28,1.73-1.63,1.11.33,1.52,1.13,1.5,3.05-1.24-.55-2.25-.99-3.23-1.42ZM557.2,686.45c-1.16-1.19-.52-2.16,2.53-2.28-.89.8-1.78,1.61-2.53,2.28ZM558.21,678.12c-13.19,3.45-26.5,4.94-38.97,10.79-1.4-.81-2.97-1.72-5.28-3.06-2.71-8.98-8.72-17.87-9.67-29.05,5.69-1.44,10.32-5.32,16.47-4.69.92.09,1.97-.55,2.83-1.08,5.67-3.51,12.59-2.77,18.59-5.43,2.86-1.27,6.28.19,9.6,2.22,1.74,4.39,4.33,8.49,4.82,12.8.6,5.25,2.83,9.81,4.24,14.47-.81,1.57-3.28,1.31-2.62,3.03ZM566.81,683.75c-.86-.22-1.05-.72-.58-1.47.86.22,1.05.72.58,1.47ZM576.6,683.45c-1.42-.85-1.79-1.65-1.36-2.82,1.79,0,1.75,1.11,1.36,2.82ZM582.47,681.67q3.35-1.66,3.79.76c-.89-.18-1.99-.4-3.79-.76ZM595.46,681.02c-1.43-.59-1.83-1.58-1.19-3,1.43.59,1.83,1.58,1.19,3ZM604.19,680.13c.19-.88.67-1.07,1.41-.56-.19.88-.67,1.07-1.41.56ZM615.52,681.65c-.86-.22-1.05-.72-.58-1.47.86.22,1.05.72.58,1.47ZM612.36,675.51c-7.77-1.18-15.63-2.35-23.41-.51-3.15-1.54-6.06,2.01-9.23.22-2.96,2.22-5.21-.57-7.65-1.15-3.99-10.07-7.89-19.93-11.8-29.81.4-.94.8-1.9,1.3-3.09,12.6-.61,25.37.75,39.47,1.03.29.13,1.95.9,3.6,1.64,2.88,1.29,4.81,3.42,5.94,6.47,1.65,4.47,4.44,8.79,4.97,13.34.52,4.49,2.26,8.35,3.62,12.93-2.41-.38-4.58-.74-6.8-1.07ZM623.67,682.97c-.05-1.84,1.03-1.77,2.71-1.32-.79,1.44-1.56,1.8-2.71,1.32ZM632.3,684.46c.54-1.46,1.49-1.84,2.88-1.14-.54,1.46-1.49,1.84-2.88,1.14ZM645.08,685.41c-.86-.22-1.05-.72-.58-1.47.86.22,1.05.72.58,1.47ZM652.75,682.92q1.35-.96,2.71,3.16c-1.53-1.79-2.34-2.73-2.71-3.16ZM661.95,682.16c-.86-.22-1.05-.72-.58-1.47.86.22,1.05.72.58,1.47ZM667.19,672.9c-13.3,7.28-26.88,9.41-41.01,5.12-4.26-10.77-8.08-21.49-11.97-31.33,1.37-1.46,2.67-1.86,4.71-1.3,9.84,2.7,19.88,2.52,29.86,2.35,2.38-.04,4.69-1.72,6.74-2.53,2.18.71,3.35,1.74,4.08,3.71,2.49,6.71,5.21,13.34,7.83,19.94-.88,1.43-.99,2.9-.24,4.04ZM669.52,678.32c.19-.88.67-1.07,1.41-.56-.19.88-.67,1.07-1.41.56ZM679.34,671.85c-.86-.22-1.05-.72-.58-1.47.86.22,1.05.72.58,1.47ZM681.9,655.38c-.78,5.21-2.9,9.46-8.11,11.95-3.14-7.92-6.2-15.66-9.29-23.49.25-.61.34-1.7.87-1.99,3.79-2.09,6.96-4.94,10.09-7.9.48-.45,1.45,0,1.66.99,1.9-.77.74-2.05.39-3.15-.33-1.03-.7-2,.7-2.43.73,1.85,1.46,3.69,2.35,5.94-1.16.46-2.01.79-2.86,1.13l1.18,2.97c1.23-.26,1.01-1.58,1.57-2.31.86,1.34,5.56.37,2.46,4.15.2.49.39.99.59,1.48-.48.19-.95.38-1.43.57.44,1.01.16,1.7-.84,2.05.2.49.39.99.59,1.48.92-.17,1.67-1.13,2.98-.46-.68,2.29-1.37,4.63-2.05,6.97.44,1.01.16,1.7-.84,2.05ZM684.87,643.71c-.71.1-1.21-.22-1.37-.98.63-.4,1.2-.24,1.61.38.07.1-.13.59-.25.6Z"/>
      <path d="M677.02,635.77c-.11.08-.22.16-.22.16,0,0,.13-.02.28-.03-.02-.04-.04-.08-.05-.13Z"/>
      <path d="M626.01,487.25c.09.13.19.27.19.27,0,0-.02-.17-.05-.33-.05.02-.09.04-.14.06Z"/>
    </g>
  </g>
  <g class="cls-8">
    <g>
      <path d="M438.21,740.17c-3.68,3.63-7.54,7.15-11.26,10.82-.41.4-.82.77-1.25,1.11,3.45,5.58,6.91,11.16,10.36,16.74h19.01c-.52-1.25-.86-2.56-1.57-3.73-5.09-8.32-10.19-16.63-15.29-24.94Z"/>
      <path d="M515.22,502.58c3.83-7.19,2.76-13.57-2.15-19.57-3.15-3.86-6.68-3.94-10.51-.61,1.13,1.87,2.67,3.67,3.31,5.67.65,2.02.41,4.24.59,6.81-1.87-.27-3.16-.32-4.33-.63-16.73-4.49-33.44-9.05-50.19-13.5-4.47-1.19-4.22-4.16-3.57-6.67,1.2-4.66-2.06-6.91-6.29-8.17-20.92-6.23-41.93-12.27-62.96-18.25-5.32-1.51-8.32.25-8.97,4.83-.17,1.21-.11,2.44-.1,3.67.03,28.01.05,56.02.09,84.03,0,6.44,1.18,7.57,8.83,8.46,20.59,2.39,41.19,4.76,61.79,7.07,2.01.23,4.09.03,6.28-.67-17.47-5.15-35.72-7.76-53.42-12.1,15.99,2.04,31.98,4.08,47.9,6.11,1.35-4.1-1.06-4.99-4.12-5.52-15.78-2.69-31.57-5.39-47.35-8.1-2.91-.5-5.82-1.03-8.88-1.57v-79.97c19.24,4.2,38.15,8.32,57.84,12.61-4.64,2.38-8.79,4.42-12.79,6.63-1.17.65-2.19,1.71-2.8,2.77-4.77,8.17,2.08,19.42,12.97,21.18,4.22.68,8.26.37,11.45-2.58.76-.7,2.85-1.33,3.57-.97.93.46,1.52,1.94,1.54,2.99.13,8.56.09,17.13.09,25.7,0,10.17,0,20.34,0,30.51.65,0,1.3,0,1.95.01.57-19.11,1.14-38.22,1.72-57.9,4.55,1.15,8.64,2.06,12.59,3.26.87.26,1.79,1.58,1.79,2.4-.17,23.93-.45,47.86-.75,71.78,0,.37-.36.73-.66,1.32-21.1-3.04-42.2-6.07-63.29-9.13-15.72-2.28-31.39-4.76-47.16-6.79-4.01-.52-4.75-1.79-4.72-4.7.13-17.53.06-35.07.06-53.03-8.55,8.02-18.48,14.21-31.23,16.91-13.04,2.77-25,1.05-36.33-5.25,27.44,3.11,49.26-2.25,56.32-26.41,6.01-20.57-3.13-35.93-28.58-43.8.14-.37.29-.74.43-1.12,2.28-.2,4.62-.78,6.82-.54,12.43,1.34,21.93,6.68,29.27,14.78,1.06,1.17,2.01,2.4,3.86,4.63v-30.41c6.88,2.18,12.86,4.04,18.81,5.96,30.92,9.95,61.81,20,92.81,29.79,4.06,1.28,5.4,2.95,5.01,6.25-.28,2.4-.06,4.83-.06,7.25.53.15,1.07.3,1.6.46.68-1.05,1.86-2.07,1.95-3.15.26-3.25.39-6.55-.07-9.77-.18-1.23-1.83-2.78-3.29-3.34-7.02-2.69-14.2-5.09-21.68-7.72,17.09-11.12,21.98-26.61,24.58-42.65,3.3-20.38.64-40.38-8.61-59.64-4.05-8.43-9.46-16.18-18.16-22.1-5.89-4-12.51-6.02-20.31-5.21-8.91.93-17.88,1.47-26.75,2.61-5.84.75-8.15,2.64-10.09,7.01h16.76c.09.5.18.99.27,1.49-5.54,4.8-13.21,3.02-19.32,3.76-4.38-8.45-8.04-16.59-12.81-24.26-2.73-4.39-6.92-8.3-11.07-11.96-9.66-8.54-22.26-7.97-34.9-6.8-7.94.73-15.85,1.75-23.81,2.19-10.34.57-17.27,5.05-22.48,11.87-7.44,9.74-11.36,20.53-13.26,31.74-3.89,22.96-.87,45.32,11.62,66.33,4.29,7.21,10.49,13.66,16.06,20.78-11.65,1.85-24.35,3.87-38.2,6.07,2.11,1.23,3.47,2.05,4.87,2.83,6.74,3.74,13.48,7.49,20.26,11.18,2.86,1.56,4.2,3.46,4.02,6.43-.79,13.17-1.18,26.35-2.14,39.51-.14,1.89-2.13,4.37-4.15,5.35-5.55,2.69-11.43,5.04-17.46,6.91-4.67,1.45-6.95,3.27-6.33,7.63.59,4.13.13,8.35.13,13.06-16.65-1.79-32.68-3.51-48.72-5.24-.04-.34-.09-.69-.13-1.03.9-.35,1.78-.74,2.7-1.05,20.32-6.74,40.63-13.48,60.96-20.19,5.42-1.79,8.61-4.82,8.94-9.75.56-8.25,1.25-16.49,1.9-24.95-19.58-4.25-38.47-8.35-58-12.6-.29,4.35-.56,8.33-.84,12.52,15.11,1.98,29.74,3.89,44.37,5.8-.05.29-.1.59-.15.88h-44.7v7.8c13.33.42,26.65.83,39.97,1.25.01.43.02.86.04,1.29-13.62,1.35-27.25,2.71-40.87,4.06-.89,6.74-1.77,13.41-2.65,20.09-.63-.03-1.26-.05-1.89-.08-1.85-27.46-.02-54.9,1.55-83.15,21.43,10.1,42.14,19.86,62.85,29.62l.67-.74c-.57-.49-1.06-1.09-1.73-1.46-22.21-12.47-44.47-24.87-66.62-37.4-3.3-1.87-6.48-2.36-10.3-1.61-15.19,2.99-30.43,5.8-45.61,8.81-6.02,1.19-9.7,4.89-9.82,9.99-.6,24.87-1.18,49.75-1.51,74.63-.12,9.06,4.55,12.73,15.6,13.28,8.98.44,17.96.9,26.94,1.37.46.02.9.27,1.51.47v13.04c-9.21-.78-18.06-1.55-26.92-2.28-3.98-.33-7.98-.47-11.93-.92-4.64-.53-6.95,1.26-7.62,4.74-.86,4.47,1.16,7.33,5.87,7.91,7.73.95,15.49,1.81,23.27,2.4,27.03,2.03,54.08,3.92,81.12,5.88.46.03.91.27,1.95.59,0,4.33,0,8.77,0,13.22,0,4.98,1.49,6.51,7.47,7.25,23.22,2.85,46.45,5.7,70.06,4.91,1.45-.05,2.9,0,4.34,0,.08.39.16.78.24,1.17-2.4.39-4.77,1-7.19,1.14-7.31.42-14.64.87-21.96.89-3.97,0-5.67,1.3-6.44,4.27-3.34,12.82-3.07,25.3,5.12,37.6-3.6,0-6.93-.4-10.03.13-2.44.41-5.7,1.52-6.65,3.09-3.7,6.14-6.62,12.59-10.14,19.54.26-.03-.71.11-1.68.21-9.8,1-13.66,5.23-10.68,12.91,1.39,3.58.48,6.08-1.65,9-23.9,32.77-47.72,65.58-71.54,98.39-.58.81-.98,1.7-1.47,2.56h36.01c1.06-1.38,2.15-2.73,3.17-4.13,20.98-28.92,41.91-57.87,63.01-86.73,1.18-1.61,3.47-2.9,5.59-3.78,7.3-3.02,15.02-.73,22.56-.81,4.5-.05,9.02.44,13.52.68.02.38.03.75.05,1.13-3.76.51-7.52,1.02-11.44,1.55,1.4,13.18,2.79,25.87,4.1,38.57,1.85,17.84,3.66,35.68,5.48,53.52h39.66s-.03-.1-.03-.14c0-.02,0-.04,0-.06-.78-.22-1.54-.71-2.22-1.53-2.25-2.73-3.59-5.79-4.32-9.02-2.04-.78-3.59-2.6-3.47-5.48.33-7.73,1.8-17.48,5.64-24.31,3.63-6.46,7.31-11.95,12.03-17.44-.68-6.24-1.59-12.45-5.35-18.27-2.69-4.16-4.39-8.77-6.33-13.24-.77-1.79-.96-3.75-1.41-5.63.62-.25,1.24-.5,1.86-.74,1.96,2.48,4.18,4.84,5.82,7.44,4.6,7.29,9.17,14.59,13.75,21.9,4.25-3.93,8.88-7.57,13.56-11.05-1.18-1.93-2.37-3.86-3.55-5.79-1.96-3.2-3.88-6.41-5.74-9.51,3.46,4.82,6.93,9.65,10.4,14.48,2.05-1.52,4.11-3.01,6.13-4.49,1.49-1.09,3.01-2.17,4.58-3.23-1.76-2.92-3.53-5.84-5.3-8.77,9.29-2.65,10.37-2.53,14.08,3.58,2.21-1.09,4.47-2.03,6.8-2.75-.12-.19-.23-.38-.35-.57-1.32-2.15-1.59-3.62.3-5.79,3.28-3.78,4.52-8.21,2.54-12.77-.69-1.58-1.95-3.77-3.52-4.16-4.84-1.2-5.8-4.34-7.06-7.52-.26-.64-.71-1.23-.97-1.87-2.05-5.24-6.27-6.96-13.11-7.03-29.16-.3-58.32-1.08-87.47-1.74-2.36-.05-4.7-.53-7.02-1.45,31.68-3.39,63.56-2.77,95.33-3.74.09-.38.19-.75.28-1.12-1.48-.4-2.94-1.07-4.45-1.16-5.32-.32-10.69-.19-15.96-.76-2.32-.25-5.51-1.31-6.43-2.79-2.59-4.17-5.16-8.63-6.01-13.19-1.8-9.61-1.98-19.26,5.43-27.83,1.91-2.21,4.07-3.1,7.5-3.06,24,.31,48.01.46,72.01.6,6.75.04,7.43-.58,7.5-6.05.32-22.98.62-45.95.93-68.93.02-1.33,0-2.65,0-5.33,9.65,3.16,18.49,5.71,26.91,8.96,4.86,1.88,9.32,2.81,14.26.94,5.51-2.09,9.35-6.93,9.59-11.54-3.42,1.82-7.03,3.75-10.65,5.67ZM410.88,432.45c-.28-8.13,2.72-15.6,4.66-24.32,3.75,7.45,5.41,14.85,15.57,16.65.49,2.84-1.1,3.46-4.01,2.82-6.59-1.46-12.62-1.62-16.22,4.86ZM403.91,355.9c2.76-7.91,6.63-15.38,14.07-21.21,7.76-6.08,16.92-6.57,25.09-.82,4.21,2.96,7.95,6.61,10.92,10.45,8.96,11.6,12.85,24.65,14.54,38.1,2.11,16.76,1.23,33.38-6.33,49.34-3.2,6.76-7.3,13.09-14.86,17.45-3.22,1.86-6.21,2.65-10.04.87-3.44-1.6-7.2-2.89-10.99-3.81-4.51-1.1-5.84-3.7-6.13-7-.36-4,.66-7.71,5.18-9.92,4.64-2.27,7.23.87,10.28,3.73,1.93-5.57,3.65-10.53,5.7-16.42-3.37,1.22-5.55,2.01-7.75,2.8-9.55-6.84-11.58-16.08-12.07-25.52-.58-11.1.69-21.99,11.77-30.4-5.67-.97-10.05.9-12.38,4.24-3.56,5.11-6.66,10.59-8.67,16.21-3.38,9.45-5.76,19.14-8.56,28.73-5.88-19.12-6.31-38.02.25-56.82ZM317.3,504.55c-6.12,3.02-12.32,3.27-18.42-.17,15.86.5,26.42-13.36,14.21-25.44,6.87,1.45,11.42,5.58,12.64,11.45,1.06,5.12-2.48,11.23-8.43,14.17ZM327.31,451.55c5.06,3.59,6.87,8.25,4.98,13.62-2.05,5.82-6.86,8.99-14.46,9.4,5.29-3.8,7.4-8.42,6.3-13.93-1.16-5.8-6.04-8.85-13.3-10.57,6.57-2.61,11.89-1.77,16.48,1.49ZM369.3,426.27c2.59-2.43,4.73-4.43,7.31-6.85,1.47,3.75,2.77,7.06,4.3,10.93-4.28-1.51-7.71-2.71-11.61-4.08ZM359.1,306.95c5.96,4.89,11.01,10.95,14.7,17.18,8.46,14.26,11.25,29.69,12.37,45.61-1.74,9.22-2.95,18.53-5.36,27.63-2.37,8.94-6.86,17.31-15.12,23.87-1.31,1.04-4.2,2.26-5.23,1.78-5.7-2.65-11.26-1.59-16.92-.37-3.51.75-6.58.46-8.85-2.13-3.85-4.39-8.53-8.46-11.41-13.24-13.49-22.34-15.96-45.95-10.61-70.23,2.25-10.23,6.04-20.02,14.42-28.19,9.43-9.2,21.74-10.35,32.02-1.92ZM295.05,315.16c-2.87,4.72-5.91,9.42-8.1,14.36-6.4,14.4-8.37,29.47-9.35,44.72-.65-1.23-1.4-2.5-1.36-3.76.28-10.55-.08-21.16,1.31-31.61,1.29-9.69,4.82-19.13,11.63-27.42,1.53-1.87,3.43-4.39,5.7-4.86,8.43-1.72,17.08-2.7,25.64-3.95.21.39.42.78.64,1.17-2.53,1.34-4.91,2.97-7.64,3.94-3.17,1.13-6.59,1.99-10,2.4-4.07.49-6.77,2.24-8.46,5.02ZM292.93,459.83c9.8,1.27,14.78,6.73,13.01,13.46-1.32,5-6.39,7.4-13.01,6.16v-19.62ZM194.64,445.33c-2.06,0-4.18.29-6.15-.05-8.22-1.41-16.39-3.01-24.63-4.55-2.18,10.91-4.26,21.34-6.34,31.77-.56-.07-1.11-.14-1.67-.2v-42.39c13.86,4.87,26.52,9.32,39.17,13.78-.13.55-.25,1.1-.38,1.65ZM332.65,548.21c-1.06.45-2.63.24-3.94.14-7.46-.58-14.93-1.07-22.36-1.86-21.12-2.26-42.21-4.67-63.32-6.98-11-1.21-22.02-2.35-33.2-3.54.15-2.64.28-4.91.45-7.93,3,.34,5.44.61,7.88.89,38.22,4.38,76.45,8.72,114.65,13.22,1.89.22,3.54,1.83,5.3,2.8-1.8,1.11-3.47,2.41-5.44,3.26ZM366.44,653.69c5.49-.18,9.51,3.17,9.55,7.97,0,.88,0,1.76,0,2.82,18.41-.55,36.55-1.08,54.7-1.62.16.58.32,1.16.48,1.73-2.76.76-5.49,2.03-8.3,2.19-18.57,1.03-37.15,1.84-55.74,2.67-5.96.27-10-2.78-10.07-7.42-.07-4.54,4.02-8.17,9.38-8.35ZM311.95,611.4c7.66-2.14,52.58-.74,55.84,1.73-7.54,1.7-49.47.4-55.84-1.73ZM318.24,619.72c18.81-1.08,37.5-.39,56.14,1.25-4.75,2.6-49.39,1.53-56.14-1.25Z"/>
      <path d="M449.98,733.37c-1.83.59-3.78.7-5.71.41-.7.79-1.4,1.59-2.12,2.36,7.16,9.97,14.31,19.93,21.45,29.87,5.13-1.24,3.85-3.04,2.7-4.98-5.45-9.22-10.88-18.44-16.32-27.65Z"/>
      <path d="M465.14,723.08c-2.11,1.42-4.22,2.94-6.27,4.45,8.39,13.77,16.81,27.54,25.22,41.31h9c-9.31-15.25-18.63-30.51-27.95-45.76Z"/>
      <path d="M478.42,650.46c4.63-1.67,9.27-3.44,13.96-4.92.55-.17,1.09-.36,1.63-.55-15.93-8.11-31.76-16.17-47.54-24.2,1.52-3.47,3.48-4.26,7.22-2.36,13.92,7.08,27.92,14.08,42.03,20.91,2.51,1.22,3.34,2.46,3.08,3.89,1.34-.49,2.7-.94,4.07-1.3-.22-1.83-1.82-3.32-4.71-4.77-14.43-7.25-28.91-14.42-43.38-21.6-3.4-1.69-6.76-2.45-9.79.79-6.35-2.99-12.53-5.86-18.66-8.81-2.93-1.41-5.86-1.91-7.78.83-1.87,2.68-.05,4.53,2.97,5.92,5.77,2.66,11.46,5.45,17.08,8.14-1.82,7.89-1.95,8.06,6.28,12.24,10.82,5.49,21.79,10.77,32.69,16.16.26-.13.54-.26.83-.37Z"/>
      <path d="M416.19,612.45c-10.88-10.89-7.88-25.82,3.06-28.62-5.49-1.23-10.93-2.99-16.51-3.42-2.34-.18-5.97,1.99-7.35,3.9-5.6,7.73-6.8,16.12-2.93,24.64,3.1,6.84,8.23,8.62,16.52,6.19,2.45-.72,4.75-1.76,7.22-2.68Z"/>
      <path d="M413.95,507.89c1.52-1.69,3.04-3.38,4.04-4.5-3.97.11-8.32,1.15-11.75.12-4.96-1.48-7.29-5.75-7.47-9.88-.18-4.07.28-8.46,2.06-12.21,2.9-6.08,8.42-7.32,15.59-4.55-3.25-6.9-13.84-7.94-19.88-3.49-10.62,7.82-10.7,26.99.04,34.74,5.45,3.93,10.68,3.83,17.5-.34l-.13.1Z"/>
      <path d="M276.24,455.83c-15.45-6.23-30.91-12.46-46.84-18.88-.33,1.76-.53,2.79-.72,3.82-.75,3.94.29,6.47,5.94,7.58,12.55,2.47,24.91,5.57,37.36,8.38,1.21.27,2.5.32,3.76.47.17-.46.34-.92.51-1.38Z"/>
      <path d="M414.07,507.79c-3.93,5.48-5.67,11.23-2.98,17.45,1.81,4.19,4.26,5.95,10.04,6.99-4.21-4.35-5.63-8.99-5.01-14.05.67-5.56,4.54-8.37,12.34-8.94-3.97-4.37-6.62-4.62-14.52-1.35,0,0,.12-.1.12-.1Z"/>
      <path d="M413.7,495.95c-5.72-3.38-5.18-7.72-3.6-13.25-1.98,1.04-4.62,1.73-5.81,3.2-2.28,2.82-1.34,8.45,1.72,10.14,1.92,1.06,4.82.95,7.29,1.36.13-.49.27-.97.4-1.46Z"/>
      <path d="M427.73,519c-2.02-2.12-3.47-3.63-4.92-5.15-1.19,1.73-3.25,3.44-3.32,5.21-.06,1.62,2.02,3.3,3.15,4.95,1.5-1.48,3-2.95,5.09-5Z"/>
      <path d="M390.25,519.89c2.33,1.52,3.64,2.9,5.26,3.21.74.14,3.17-2.04,2.93-2.76-.44-1.35-2.06-2.68-3.62-3.4-.5-.23-2.35,1.47-4.57,2.95Z"/>
      <path d="M442.25,514.53c.86-1.23,2.54-2.56,2.34-3.67-.21-1.17-2.2-2.13-3.42-3.18-1.09.92-3.11,1.87-3.07,2.75.06,1.38,1.52,2.72,2.38,4.08.59,0,1.18,0,1.77.01Z"/>
      <path d="M344.47,328.59c-4.34-1.16-8.06.22-11.25,2.91-5.67,4.78-8.15,10.83-9.59,17.15-3.63,15.82-2.58,31.34,5.38,46.25,1.44,2.7,3.36,5.4,5.83,7.5,1.91,1.63,4.91,2.96,7.63,3.27,4.3.5,5.94-2.17,3.71-5.26-.42-.58-.87-1.18-1.44-1.66-13.53-11.19-14.79-25.41-13.95-39.81.37-6.39,2.37-12.87,4.91-18.96,1.69-4.04,5.64-7.45,8.77-11.39Z"/>
      <path d="M357.15,379.27c-4.15.4-6.04-1.63-7.27-4.29-3.44-7.42-3.48-14.92.18-22.21,1.02-2.03,3.85-3.45,6.62-5.81-1.58-.81-4.12-3.15-6.5-3.05-2.53.1-6.01,2.07-7.19,3.99-6.45,10.57-6.45,21.46-.1,32.06,1.18,1.97,4.63,4.19,7.05,4.2,2.56.01,5.14-2.47,7.71-3.86-.17-.34-.34-.68-.51-1.03Z"/>
      <path d="M366.02,413.4c1.37-1.53,3.03-2.94,4.07-4.61,5.62-8.97,7.83-18.72,8.79-28.61,1.22-12.66.02-25.22-4.21-37.51-.42-1.23-1.14-2.39-2.05-4.28,1.16,9.18,2.98,17.5,3.04,25.82.06,8.36-.82,16.86-2.81,25.06-1.93,7.95-5.77,15.59-8.78,23.37.65.26,1.3.51,1.95.77Z"/>
      <path d="M442.93,405.95c-5.88-.97-8.68-5.64-8.55-13.64.13-8.18,2.89-12.61,9.98-13.59-3.29-1.66-5.63-3.8-7.73-3.65-2.24.16-5.14,2.14-6.19,3.93-5.09,8.64-5.21,17.61-.48,26.37,3.25,6.02,7.94,6.17,12.97.58Z"/>
      <path d="M448.49,438.21c1.5-1.3,3.43-2.42,4.43-3.94,5.51-8.38,7.82-17.57,8.88-26.9,1.53-13.46.53-26.83-3.93-39.93-.31-.9-.82-1.76-1.31-2.61-.11-.2-.53-.28-1.18-.59,6.08,25.11,5.52,49.54-9.05,72.89l2.15,1.08Z"/>
    </g>
  </g>
  <text class="cls-1" transform="translate(370.43 285.15) rotate(11.92) scale(1.05 1)"><tspan x="0" y="0">S</tspan></text>
  <text class="cls-1" transform="translate(400.61 290.59) rotate(21.35) scale(1.05 1)"><tspan x="0" y="0">a</tspan></text>
  <text class="cls-1" transform="translate(445.51 307.55) rotate(33.97) scale(1.05 1)"><tspan x="0" y="0">m</tspan></text>
  <text class="cls-1" transform="translate(490.11 338.54) rotate(45.29) scale(1.05 1)"><tspan x="0" y="0">f</tspan></text>
  <text class="cls-1" transform="translate(513.87 361.77) rotate(54.72) scale(1.05 1)"><tspan x="0" y="0">o</tspan></text>
  <text class="cls-1" transform="translate(537.83 395.36) rotate(65.76) scale(1.05 1)"><tspan x="0" y="0">r</tspan></text>
  <text class="cls-1" transform="translate(554.79 432.73) rotate(76.92) scale(1.05 1)"><tspan x="0" y="0">d</tspan></text>
  <text class="cls-1" transform="translate(563.18 472.44) rotate(84.43) scale(1.05 1)"><tspan x="0" y="0"> </tspan></text>
  <text class="cls-3" transform="translate(81.42 535.44) rotate(84.91) scale(1.11 1)"><tspan x="0" y="0">U</tspan></text>
  <text class="cls-3" transform="translate(86.31 585.62) rotate(72.84) scale(1.11 1)"><tspan x="0" y="0">n</tspan></text>
  <text class="cls-3" transform="translate(102.68 634.73) rotate(63.72) scale(1.11 1)"><tspan x="0" y="0">i</tspan></text>
  <text class="cls-3" transform="translate(115.73 662.38) rotate(54.94) scale(1.11 1)"><tspan x="0" y="0">v</tspan></text>
  <text class="cls-3" transform="translate(146.4 704.74) rotate(45.17) scale(1.11 1)"><tspan x="0" y="0">e</tspan></text>
  <text class="cls-3" transform="translate(176.07 734.52) rotate(36.13) scale(1.11 1)"><tspan x="0" y="0">r</tspan></text>
  <text class="cls-3" transform="translate(215.05 762.24) rotate(27.71) scale(1.11 1)"><tspan x="0" y="0">s</tspan></text>
  <text class="cls-3" transform="translate(248.56 779.42) rotate(21) scale(1.11 1)"><tspan x="0" y="0">i</tspan></text>
  <text class="cls-3" transform="translate(276.56 790.53) rotate(13.28) scale(1.11 1)"><tspan x="0" y="0">t</tspan></text>
  <text class="cls-3" transform="translate(322.07 801.1) rotate(3.11) scale(1.11 1)"><tspan x="0" y="0">y</tspan></text>
  <path class="cls-2" d="M470.65,704.13l-.46-1.06,3.08-1.25-9.16-21.34-3.37,1.63-.47-1.08,4.9-2.39,10.11,23.62-4.64,1.88ZM489.35,672.5l-1.46-3.52-12.23,5.91,4.6,10.91,6.08-2.71.46,1.1-6.08,2.69,4.28,10.15,4.22-1.72.47,1.12-12.98,5.25-10.14-23.73,22.43-10.93,1.95,4.72-1.61.76Z"/>
  <path class="cls-2" d="M529.79,681.02l-.36-1.11,2.92-.86-7.2-22.48-2.95.96-.37-1.15,4.32-1.42,7.92,24.81-4.28,1.25ZM535.31,679.41l-7.9-24.86,11.98-3.94.36,1.19-3.92,1.28,7.1,22.87,3.88-1.14.35,1.14-11.85,3.47Z"/>
  <path class="cls-2" d="M581.27,670.84l-.17-1.2,3.6.12-3.44-23.87-3.81-.15-.18-1.22,5.48.22,3.78,26.27-5.26-.18ZM588,671.07l-3.77-26.26,12.34.5.17,1.21-3.73-.15,3.37,23.8,9.01.31-1.04-7.47,1.46.05,1.2,8.66-19.01-.64Z"/>
  <path class="cls-2" d="M629.49,675.03c-.1-.5-.15-.74-.25-1.24,1.17.12,1.75.17,2.92.26-1.91-9.96-2.89-14.65-4.99-22.89-1.25.1-1.87.16-3.12.28-.11-.4-.17-.6-.28-1,1.81-.2,2.72-.29,4.53-.45,2.27,9.11,3.34,14.35,5.4,25.41-1.69-.11-2.53-.18-4.22-.36ZM654.21,650.42c1.49,9.23,2.22,13.95,3.71,23.19.83-.07,1.25-.11,2.08-.18.07.45.11.68.18,1.13-2.01.21-3.02.3-5.03.47-.08-.47-.11-.71-.19-1.18.84-.06,1.26-.1,2.1-.16-1.47-9.17-2.2-13.84-3.68-22.96-1.97,7.15-2.96,10.72-4.93,17.78-4.75-7.65-7.13-11.51-12.02-17.86,1.84,8.92,2.72,13.77,4.44,23.74,1.05,0,1.57,0,2.62-.01.08.5.13.75.21,1.25-3.58.06-5.37.04-8.92-.16-2.03-11.08-3.08-16.35-5.32-25.58,2.91-.25,4.36-.35,7.27-.51,4.6,5.93,6.83,9.5,11.29,16.66,1.89-6.68,2.84-10.06,4.74-16.84,1.38.05,2.07.08,3.44.16.07.47.11.7.19,1.17-.87-.05-1.31-.07-2.18-.11Z"/>
  <path class="cls-2" d="M400.06,811.69c-.67-2.52-.91-4.9-.66-6.78l3.96,14.72c-1.49-2.61-2.61-5.34-3.3-7.94ZM422.28,832.91l-2.01-6.43c-.75,3.91-3.62,5.08-7.25,3.34-2.89-1.39-6-4.51-8.51-8.35l-4.84-17.86c.7-2.47,2.42-3.73,4.77-3.39,3,.43,6.84,3.37,10.09,8.01l-1.71-5.48.94.15,2.49,7.9-1.09-.27c-3.17-5.15-7.2-8.63-10.36-9.12-.43-.07-.84-.1-1.22-.05l7.47,26.17c.53.36,1.02.63,1.53.86,3.78,1.76,6.51.03,6.7-4.59l1.22.46,2.89,9.16-1.11-.52Z"/>
  <path class="cls-2" d="M441.83,836.19l-.44-1.63,3.53-.57-8.22-28.89-3.2.95-.35-1.28,4.6-1.39,9.31,32-5.24.81ZM448.59,835.14l-9.55-32.15,11.27-3.4.47,1.35-3.56,1.05,10,30,10.46-1.7-3.99-10.62,1.68-.35,4.77,12.48-21.55,3.35Z"/>
  <path class="cls-2" d="M492.99,806.77l-6.88-18.53-3.64,1.81-.58-1.55,5.75-2.86,10.21,27.45c-2.27-1.53-3.91-3.75-4.86-6.31ZM518.57,772.12l7.15,18.81c3.15,8.29-1.8,18.68-10.92,23-4.85,2.3-10.14,2.47-14.47.57l-11.05-29.69,14.28-7.11.59,1.57-3.39,1.68,12.01,32c.49-.23.95-.39,1.44-.63,8.17-3.88,12.65-13.09,9.8-20.58l-7.14-18.8-4.05,2.01-.6-1.58,9.97-4.96.6,1.58-4.24,2.1Z"/>
  <path class="cls-2" d="M564.87,785.63l-.5-1.7,5.02-2.06-9.56-32.29-5.1,1.4-.48-1.63,7.77-2.08,10.48,35.18-7.63,3.18ZM598.06,771.78l-23.28,9.71-10.43-34.85,21.96-5.89c6.07-1.63,11.68.77,13.09,5.15.94,2.93-.32,6.04-3.2,8.57,4.55-.38,8.31,1.69,9.42,5.12,1.4,4.32-1.93,9.84-7.55,12.19ZM586.75,742.18l-9.22,2.53,4.36,14.13,9.14-3.08c4.86-1.64,7.75-5.9,6.59-9.51-1.15-3.59-6.01-5.4-10.87-4.07ZM593.24,756.52l-10.91,3.75,4.46,14.46,10.8-4.43c4.68-1.92,7.45-6.46,6.29-10.06s-5.86-5.36-10.65-3.72Z"/>
</svg>